<?xml version="1.0" encoding="UTF-8" standalone="no"?>
<!DOCTYPE svg PUBLIC "-//W3C//DTD SVG 1.1//EN"
 "http://www.w3.org/Graphics/SVG/1.1/DTD/svg11.dtd">
<!-- Generated by graphviz version 2.40.1 (20161225.0304)
 -->
<!-- Title: dependencies Pages: 1 -->
<svg width="2902pt" height="211pt"
 viewBox="0.00 0.00 2902.00 211.00" xmlns="http://www.w3.org/2000/svg" xmlns:xlink="http://www.w3.org/1999/xlink">
<g id="graph0" class="graph" transform="scale(1 1) rotate(0) translate(4 207)">
<title>dependencies</title>
<polygon fill="#ffffff" stroke="transparent" points="-4,4 -4,-207 2898,-207 2898,4 -4,4"/>
<text text-anchor="start" x="1426.0091" y="-42.4" font-family="sans-serif" font-weight="bold" font-size="14.00" fill="#000000">Legend</text>
<polygon fill="#ffffb3" stroke="transparent" points="1213,-10 1213,-30 1233,-30 1233,-10 1213,-10"/>
<text text-anchor="start" x="1236.629" y="-15.4" font-family="sans-serif" font-size="14.00" fill="#000000"> &#160;Declarations</text>
<polygon fill="#8dd3c7" stroke="transparent" points="1326,-10 1326,-30 1346,-30 1346,-10 1326,-10"/>
<text text-anchor="start" x="1349.7251" y="-15.4" font-family="sans-serif" font-size="14.00" fill="#000000"> &#160;Module</text>
<polygon fill="#80b1d3" stroke="transparent" points="1412,-10 1412,-30 1432,-30 1432,-10 1412,-10"/>
<text text-anchor="start" x="1435.7812" y="-15.4" font-family="sans-serif" font-size="14.00" fill="#000000"> &#160;Bootstrap</text>
<polygon fill="#fdb462" stroke="transparent" points="1509,-10 1509,-30 1529,-30 1529,-10 1509,-10"/>
<text text-anchor="start" x="1532.6732" y="-15.4" font-family="sans-serif" font-size="14.00" fill="#000000"> &#160;Providers</text>
<polygon fill="#fb8072" stroke="transparent" points="1605,-10 1605,-30 1625,-30 1625,-10 1605,-10"/>
<text text-anchor="start" x="1628.7258" y="-15.4" font-family="sans-serif" font-size="14.00" fill="#000000"> &#160;Exports</text>
<g id="clust1" class="cluster">
<title>cluster_AddEmployeeModule</title>
<polygon fill="none" stroke="#000000" stroke-dasharray="1,5" points="8,-70 8,-195 2886,-195 2886,-70 8,-70"/>
</g>
<g id="clust2" class="cluster">
<title>cluster_AddEmployeeModule_declarations</title>
<polygon fill="none" stroke="#000000" points="2275,-78 2275,-130 2878,-130 2878,-78 2275,-78"/>
</g>
<g id="clust7" class="cluster">
<title>cluster_AddEmployeeModule_imports</title>
<polygon fill="none" stroke="#000000" points="16,-78 16,-130 2267,-130 2267,-78 16,-78"/>
</g>
<!-- AddEmployeePage -->
<g id="node1" class="node">
<title>AddEmployeePage</title>
<polygon fill="#ffffb3" stroke="#000000" points="2870.0814,-122 2745.9186,-122 2745.9186,-86 2870.0814,-86 2870.0814,-122"/>
<text text-anchor="middle" x="2808" y="-99.8" font-family="Times,serif" font-size="14.00" fill="#000000">AddEmployeePage</text>
</g>
<!-- AddEmployeeModule -->
<g id="node5" class="node">
<title>AddEmployeeModule</title>
<polygon fill="#8dd3c7" stroke="#000000" points="1597.42,-187 1594.42,-191 1573.42,-191 1570.42,-187 1456.58,-187 1456.58,-151 1597.42,-151 1597.42,-187"/>
<text text-anchor="middle" x="1527" y="-164.8" font-family="Times,serif" font-size="14.00" fill="#000000">AddEmployeeModule</text>
</g>
<!-- AddEmployeePage&#45;&gt;AddEmployeeModule -->
<g id="edge1" class="edge">
<title>AddEmployeePage&#45;&gt;AddEmployeeModule</title>
<path fill="none" stroke="#000000" d="M2808,-122.1532C2808,-145.7566 2808,-184 2808,-184 2808,-184 1607.2387,-184 1607.2387,-184"/>
<polygon fill="#000000" stroke="#000000" points="1607.2387,-180.5001 1597.2387,-184 1607.2386,-187.5001 1607.2387,-180.5001"/>
</g>
<!-- BulkImportPage -->
<g id="node2" class="node">
<title>BulkImportPage</title>
<polygon fill="#ffffb3" stroke="#000000" points="2728.0424,-122 2619.9576,-122 2619.9576,-86 2728.0424,-86 2728.0424,-122"/>
<text text-anchor="middle" x="2674" y="-99.8" font-family="Times,serif" font-size="14.00" fill="#000000">BulkImportPage</text>
</g>
<!-- BulkImportPage&#45;&gt;AddEmployeeModule -->
<g id="edge2" class="edge">
<title>BulkImportPage&#45;&gt;AddEmployeeModule</title>
<path fill="none" stroke="#000000" d="M2674,-122.0109C2674,-144.4852 2674,-180 2674,-180 2674,-180 1607.4533,-180 1607.4533,-180"/>
<polygon fill="#000000" stroke="#000000" points="1607.4533,-176.5001 1597.4533,-180 1607.4533,-183.5001 1607.4533,-176.5001"/>
</g>
<!-- BulkImportSuccessPage -->
<g id="node3" class="node">
<title>BulkImportSuccessPage</title>
<polygon fill="#ffffb3" stroke="#000000" points="2601.3571,-122 2448.6429,-122 2448.6429,-86 2601.3571,-86 2601.3571,-122"/>
<text text-anchor="middle" x="2525" y="-99.8" font-family="Times,serif" font-size="14.00" fill="#000000">BulkImportSuccessPage</text>
</g>
<!-- BulkImportSuccessPage&#45;&gt;AddEmployeeModule -->
<g id="edge3" class="edge">
<title>BulkImportSuccessPage&#45;&gt;AddEmployeeModule</title>
<path fill="none" stroke="#000000" d="M2525,-122.0449C2525,-143.6623 2525,-177 2525,-177 2525,-177 1607.575,-177 1607.575,-177"/>
<polygon fill="#000000" stroke="#000000" points="1607.5751,-173.5001 1597.575,-177 1607.575,-180.5001 1607.5751,-173.5001"/>
</g>
<!-- AddOneEmployeePage -->
<g id="node4" class="node">
<title>AddOneEmployeePage</title>
<polygon fill="#ffffb3" stroke="#000000" points="2430.9032,-122 2283.0968,-122 2283.0968,-86 2430.9032,-86 2430.9032,-122"/>
<text text-anchor="middle" x="2357" y="-99.8" font-family="Times,serif" font-size="14.00" fill="#000000">AddOneEmployeePage</text>
</g>
<!-- AddOneEmployeePage&#45;&gt;AddEmployeeModule -->
<g id="edge4" class="edge">
<title>AddOneEmployeePage&#45;&gt;AddEmployeeModule</title>
<path fill="none" stroke="#000000" d="M2357,-122.1289C2357,-142.5724 2357,-173 2357,-173 2357,-173 1607.4073,-173 1607.4073,-173"/>
<polygon fill="#000000" stroke="#000000" points="1607.4073,-169.5001 1597.4073,-173 1607.4073,-176.5001 1607.4073,-169.5001"/>
</g>
<!-- CommonModule -->
<g id="node6" class="node">
<title>CommonModule</title>
<polygon fill="#8dd3c7" stroke="#000000" points="2258.6681,-122 2255.6681,-126 2234.6681,-126 2231.6681,-122 2147.3319,-122 2147.3319,-86 2258.6681,-86 2258.6681,-122"/>
<text text-anchor="middle" x="2203" y="-99.8" font-family="Times,serif" font-size="14.00" fill="#000000">CommonModule</text>
</g>
<!-- CommonModule&#45;&gt;AddEmployeeModule -->
<g id="edge5" class="edge">
<title>CommonModule&#45;&gt;AddEmployeeModule</title>
<path fill="none" stroke="#000000" d="M2203,-122.1061C2203,-141.3391 2203,-169 2203,-169 2203,-169 1607.4308,-169 1607.4308,-169"/>
<polygon fill="#000000" stroke="#000000" points="1607.4308,-165.5001 1597.4308,-169 1607.4308,-172.5001 1607.4308,-165.5001"/>
</g>
<!-- FormsModule -->
<g id="node7" class="node">
<title>FormsModule</title>
<polygon fill="#8dd3c7" stroke="#000000" points="2129.8288,-122 2126.8288,-126 2105.8288,-126 2102.8288,-122 2034.1712,-122 2034.1712,-86 2129.8288,-86 2129.8288,-122"/>
<text text-anchor="middle" x="2082" y="-99.8" font-family="Times,serif" font-size="14.00" fill="#000000">FormsModule</text>
</g>
<!-- FormsModule&#45;&gt;AddEmployeeModule -->
<g id="edge6" class="edge">
<title>FormsModule&#45;&gt;AddEmployeeModule</title>
<path fill="none" stroke="#000000" d="M2082,-122.2667C2082,-140.5552 2082,-166 2082,-166 2082,-166 1607.2911,-166 1607.2911,-166"/>
<polygon fill="#000000" stroke="#000000" points="1607.2912,-162.5001 1597.2911,-166 1607.2911,-169.5001 1607.2912,-162.5001"/>
</g>
<!-- IonicModule -->
<g id="node8" class="node">
<title>IonicModule</title>
<polygon fill="#8dd3c7" stroke="#000000" points="2016.3162,-122 2013.3162,-126 1992.3162,-126 1989.3162,-122 1927.6838,-122 1927.6838,-86 2016.3162,-86 2016.3162,-122"/>
<text text-anchor="middle" x="1972" y="-99.8" font-family="Times,serif" font-size="14.00" fill="#000000">IonicModule</text>
</g>
<!-- IonicModule&#45;&gt;AddEmployeeModule -->
<g id="edge7" class="edge">
<title>IonicModule&#45;&gt;AddEmployeeModule</title>
<path fill="none" stroke="#000000" d="M1972,-122.0336C1972,-139.0597 1972,-162 1972,-162 1972,-162 1607.5116,-162 1607.5116,-162"/>
<polygon fill="#000000" stroke="#000000" points="1607.5116,-158.5001 1597.5116,-162 1607.5115,-165.5001 1607.5116,-158.5001"/>
</g>
<!-- MatCardModule -->
<g id="node9" class="node">
<title>MatCardModule</title>
<polygon fill="#8dd3c7" stroke="#000000" points="1909.8118,-122 1906.8118,-126 1885.8118,-126 1882.8118,-122 1800.1882,-122 1800.1882,-86 1909.8118,-86 1909.8118,-122"/>
<text text-anchor="middle" x="1855" y="-99.8" font-family="Times,serif" font-size="14.00" fill="#000000">MatCardModule</text>
</g>
<!-- MatCardModule&#45;&gt;AddEmployeeModule -->
<g id="edge8" class="edge">
<title>MatCardModule&#45;&gt;AddEmployeeModule</title>
<path fill="none" stroke="#000000" d="M1855,-122.0091C1855,-138.0494 1855,-159 1855,-159 1855,-159 1607.3642,-159 1607.3642,-159"/>
<polygon fill="#000000" stroke="#000000" points="1607.3643,-155.5001 1597.3642,-159 1607.3642,-162.5001 1607.3643,-155.5001"/>
</g>
<!-- InlineSVGModule -->
<g id="node10" class="node">
<title>InlineSVGModule</title>
<polygon fill="#8dd3c7" stroke="#000000" points="1782.2022,-122 1779.2022,-126 1758.2022,-126 1755.2022,-122 1661.7978,-122 1661.7978,-86 1782.2022,-86 1782.2022,-122"/>
<text text-anchor="middle" x="1722" y="-99.8" font-family="Times,serif" font-size="14.00" fill="#000000">InlineSVGModule</text>
</g>
<!-- InlineSVGModule&#45;&gt;AddEmployeeModule -->
<g id="edge9" class="edge">
<title>InlineSVGModule&#45;&gt;AddEmployeeModule</title>
<path fill="none" stroke="#000000" d="M1722,-122.1243C1722,-136.7832 1722,-155 1722,-155 1722,-155 1607.3995,-155 1607.3995,-155"/>
<polygon fill="#000000" stroke="#000000" points="1607.3995,-151.5001 1597.3995,-155 1607.3994,-158.5001 1607.3995,-151.5001"/>
</g>
<!-- SpinnerModule -->
<g id="node11" class="node">
<title>SpinnerModule</title>
<polygon fill="#8dd3c7" stroke="#000000" points="1643.5982,-122 1640.5982,-126 1619.5982,-126 1616.5982,-122 1540.4018,-122 1540.4018,-86 1643.5982,-86 1643.5982,-122"/>
<text text-anchor="middle" x="1592" y="-99.8" font-family="Times,serif" font-size="14.00" fill="#000000">SpinnerModule</text>
</g>
<!-- SpinnerModule&#45;&gt;AddEmployeeModule -->
<g id="edge10" class="edge">
<title>SpinnerModule&#45;&gt;AddEmployeeModule</title>
<path fill="none" stroke="#000000" d="M1568.8303,-122.1061C1568.8303,-122.1061 1568.8303,-140.991 1568.8303,-140.991"/>
<polygon fill="#000000" stroke="#000000" points="1565.3304,-140.9909 1568.8303,-150.991 1572.3304,-140.991 1565.3304,-140.9909"/>
</g>
<!-- MatDialogModule -->
<g id="node12" class="node">
<title>MatDialogModule</title>
<polygon fill="#8dd3c7" stroke="#000000" points="1522.2022,-122 1519.2022,-126 1498.2022,-126 1495.2022,-122 1401.7978,-122 1401.7978,-86 1522.2022,-86 1522.2022,-122"/>
<text text-anchor="middle" x="1462" y="-99.8" font-family="Times,serif" font-size="14.00" fill="#000000">MatDialogModule</text>
</g>
<!-- MatDialogModule&#45;&gt;AddEmployeeModule -->
<g id="edge11" class="edge">
<title>MatDialogModule&#45;&gt;AddEmployeeModule</title>
<path fill="none" stroke="#000000" d="M1489.4457,-122.1061C1489.4457,-122.1061 1489.4457,-140.991 1489.4457,-140.991"/>
<polygon fill="#000000" stroke="#000000" points="1485.9457,-140.9909 1489.4457,-150.991 1492.9457,-140.991 1485.9457,-140.9909"/>
</g>
<!-- MatButtonModule -->
<g id="node13" class="node">
<title>MatButtonModule</title>
<polygon fill="#8dd3c7" stroke="#000000" points="1384.2176,-122 1381.2176,-126 1360.2176,-126 1357.2176,-122 1263.7824,-122 1263.7824,-86 1384.2176,-86 1384.2176,-122"/>
<text text-anchor="middle" x="1324" y="-99.8" font-family="Times,serif" font-size="14.00" fill="#000000">MatButtonModule</text>
</g>
<!-- MatButtonModule&#45;&gt;AddEmployeeModule -->
<g id="edge12" class="edge">
<title>MatButtonModule&#45;&gt;AddEmployeeModule</title>
<path fill="none" stroke="#000000" d="M1324,-122.1243C1324,-136.7832 1324,-155 1324,-155 1324,-155 1446.5702,-155 1446.5702,-155"/>
<polygon fill="#000000" stroke="#000000" points="1446.5702,-158.5001 1456.5702,-155 1446.5701,-151.5001 1446.5702,-158.5001"/>
</g>
<!-- MatFormFieldModule -->
<g id="node14" class="node">
<title>MatFormFieldModule</title>
<polygon fill="#8dd3c7" stroke="#000000" points="1245.712,-122 1242.712,-126 1221.712,-126 1218.712,-122 1104.288,-122 1104.288,-86 1245.712,-86 1245.712,-122"/>
<text text-anchor="middle" x="1175" y="-99.8" font-family="Times,serif" font-size="14.00" fill="#000000">MatFormFieldModule</text>
</g>
<!-- MatFormFieldModule&#45;&gt;AddEmployeeModule -->
<g id="edge13" class="edge">
<title>MatFormFieldModule&#45;&gt;AddEmployeeModule</title>
<path fill="none" stroke="#000000" d="M1175,-122.0091C1175,-138.0494 1175,-159 1175,-159 1175,-159 1446.6136,-159 1446.6136,-159"/>
<polygon fill="#000000" stroke="#000000" points="1446.6136,-162.5001 1456.6136,-159 1446.6135,-155.5001 1446.6136,-162.5001"/>
</g>
<!-- ReactiveFormsModule -->
<g id="node15" class="node">
<title>ReactiveFormsModule</title>
<polygon fill="#8dd3c7" stroke="#000000" points="1086.3047,-122 1083.3047,-126 1062.3047,-126 1059.3047,-122 941.6953,-122 941.6953,-86 1086.3047,-86 1086.3047,-122"/>
<text text-anchor="middle" x="1014" y="-99.8" font-family="Times,serif" font-size="14.00" fill="#000000">ReactiveFormsModule</text>
</g>
<!-- ReactiveFormsModule&#45;&gt;AddEmployeeModule -->
<g id="edge14" class="edge">
<title>ReactiveFormsModule&#45;&gt;AddEmployeeModule</title>
<path fill="none" stroke="#000000" d="M1014,-122.0336C1014,-139.0597 1014,-162 1014,-162 1014,-162 1446.7452,-162 1446.7452,-162"/>
<polygon fill="#000000" stroke="#000000" points="1446.7452,-165.5001 1456.7452,-162 1446.7451,-158.5001 1446.7452,-165.5001"/>
</g>
<!-- FileDropModule -->
<g id="node16" class="node">
<title>FileDropModule</title>
<polygon fill="#8dd3c7" stroke="#000000" points="924.0954,-122 921.0954,-126 900.0954,-126 897.0954,-122 813.9046,-122 813.9046,-86 924.0954,-86 924.0954,-122"/>
<text text-anchor="middle" x="869" y="-99.8" font-family="Times,serif" font-size="14.00" fill="#000000">FileDropModule</text>
</g>
<!-- FileDropModule&#45;&gt;AddEmployeeModule -->
<g id="edge15" class="edge">
<title>FileDropModule&#45;&gt;AddEmployeeModule</title>
<path fill="none" stroke="#000000" d="M869,-122.2667C869,-140.5552 869,-166 869,-166 869,-166 1446.5825,-166 1446.5825,-166"/>
<polygon fill="#000000" stroke="#000000" points="1446.5825,-169.5001 1456.5825,-166 1446.5824,-162.5001 1446.5825,-169.5001"/>
</g>
<!-- MatDatepickerModule -->
<g id="node17" class="node">
<title>MatDatepickerModule</title>
<polygon fill="#8dd3c7" stroke="#000000" points="795.5072,-122 792.5072,-126 771.5072,-126 768.5072,-122 652.4928,-122 652.4928,-86 795.5072,-86 795.5072,-122"/>
<text text-anchor="middle" x="724" y="-99.8" font-family="Times,serif" font-size="14.00" fill="#000000">MatDatepickerModule</text>
</g>
<!-- MatDatepickerModule&#45;&gt;AddEmployeeModule -->
<g id="edge16" class="edge">
<title>MatDatepickerModule&#45;&gt;AddEmployeeModule</title>
<path fill="none" stroke="#000000" d="M724,-122.1061C724,-141.3391 724,-169 724,-169 724,-169 1446.4429,-169 1446.4429,-169"/>
<polygon fill="#000000" stroke="#000000" points="1446.4429,-172.5001 1456.4429,-169 1446.4428,-165.5001 1446.4429,-172.5001"/>
</g>
<!-- MatNativeDateModule -->
<g id="node18" class="node">
<title>MatNativeDateModule</title>
<polygon fill="#8dd3c7" stroke="#000000" points="633.8431,-122 630.8431,-126 609.8431,-126 606.8431,-122 488.1569,-122 488.1569,-86 633.8431,-86 633.8431,-122"/>
<text text-anchor="middle" x="561" y="-99.8" font-family="Times,serif" font-size="14.00" fill="#000000">MatNativeDateModule</text>
</g>
<!-- MatNativeDateModule&#45;&gt;AddEmployeeModule -->
<g id="edge17" class="edge">
<title>MatNativeDateModule&#45;&gt;AddEmployeeModule</title>
<path fill="none" stroke="#000000" d="M561,-122.1289C561,-142.5724 561,-173 561,-173 561,-173 1446.7495,-173 1446.7495,-173"/>
<polygon fill="#000000" stroke="#000000" points="1446.7496,-176.5001 1456.7495,-173 1446.7495,-169.5001 1446.7496,-176.5001"/>
</g>
<!-- MatInputModule -->
<g id="node19" class="node">
<title>MatInputModule</title>
<polygon fill="#8dd3c7" stroke="#000000" points="469.6513,-122 466.6513,-126 445.6513,-126 442.6513,-122 358.3487,-122 358.3487,-86 469.6513,-86 469.6513,-122"/>
<text text-anchor="middle" x="414" y="-99.8" font-family="Times,serif" font-size="14.00" fill="#000000">MatInputModule</text>
</g>
<!-- MatInputModule&#45;&gt;AddEmployeeModule -->
<g id="edge18" class="edge">
<title>MatInputModule&#45;&gt;AddEmployeeModule</title>
<path fill="none" stroke="#000000" d="M414,-122.0449C414,-143.6623 414,-177 414,-177 414,-177 1446.5325,-177 1446.5325,-177"/>
<polygon fill="#000000" stroke="#000000" points="1446.5325,-180.5001 1456.5325,-177 1446.5325,-173.5001 1446.5325,-180.5001"/>
</g>
<!-- MatSelectModule -->
<g id="node20" class="node">
<title>MatSelectModule</title>
<polygon fill="#8dd3c7" stroke="#000000" points="340.3076,-122 337.3076,-126 316.3076,-126 313.3076,-122 223.6924,-122 223.6924,-86 340.3076,-86 340.3076,-122"/>
<text text-anchor="middle" x="282" y="-99.8" font-family="Times,serif" font-size="14.00" fill="#000000">MatSelectModule</text>
</g>
<!-- MatSelectModule&#45;&gt;AddEmployeeModule -->
<g id="edge19" class="edge">
<title>MatSelectModule&#45;&gt;AddEmployeeModule</title>
<path fill="none" stroke="#000000" d="M282,-122.0109C282,-144.4852 282,-180 282,-180 282,-180 1446.4962,-180 1446.4962,-180"/>
<polygon fill="#000000" stroke="#000000" points="1446.4963,-183.5001 1456.4962,-180 1446.4962,-176.5001 1446.4963,-183.5001"/>
</g>
<!-- RouterModule.forChild(args) -->
<g id="node21" class="node">
<title>RouterModule.forChild(args)</title>
<polygon fill="#8dd3c7" stroke="#000000" points="205.7323,-122 202.7323,-126 181.7323,-126 178.7323,-122 24.2677,-122 24.2677,-86 205.7323,-86 205.7323,-122"/>
<text text-anchor="middle" x="115" y="-99.8" font-family="Times,serif" font-size="14.00" fill="#000000">RouterModule.forChild(args)</text>
</g>
<!-- RouterModule.forChild(args)&#45;&gt;AddEmployeeModule -->
<g id="edge20" class="edge">
<title>RouterModule.forChild(args)&#45;&gt;AddEmployeeModule</title>
<path fill="none" stroke="#000000" d="M115,-122.1532C115,-145.7566 115,-184 115,-184 115,-184 1446.4956,-184 1446.4956,-184"/>
<polygon fill="#000000" stroke="#000000" points="1446.4956,-187.5001 1456.4956,-184 1446.4956,-180.5001 1446.4956,-187.5001"/>
</g>
</g>
</svg>
