<?xml version="1.0" encoding="UTF-8" standalone="no"?>
<!DOCTYPE svg PUBLIC "-//W3C//DTD SVG 1.1//EN"
 "http://www.w3.org/Graphics/SVG/1.1/DTD/svg11.dtd">
<!-- Generated by graphviz version 2.40.1 (20161225.0304)
 -->
<!-- Title: dependencies Pages: 1 -->
<svg width="2751pt" height="211pt"
 viewBox="0.00 0.00 2751.00 211.00" xmlns="http://www.w3.org/2000/svg" xmlns:xlink="http://www.w3.org/1999/xlink">
<g id="graph0" class="graph" transform="scale(1 1) rotate(0) translate(4 207)">
<title>dependencies</title>
<polygon fill="#ffffff" stroke="transparent" points="-4,4 -4,-207 2747,-207 2747,4 -4,4"/>
<text text-anchor="start" x="1350.5091" y="-42.4" font-family="sans-serif" font-weight="bold" font-size="14.00" fill="#000000">Legend</text>
<polygon fill="#ffffb3" stroke="transparent" points="1137.5,-10 1137.5,-30 1157.5,-30 1157.5,-10 1137.5,-10"/>
<text text-anchor="start" x="1161.129" y="-15.4" font-family="sans-serif" font-size="14.00" fill="#000000"> &#160;Declarations</text>
<polygon fill="#8dd3c7" stroke="transparent" points="1250.5,-10 1250.5,-30 1270.5,-30 1270.5,-10 1250.5,-10"/>
<text text-anchor="start" x="1274.2251" y="-15.4" font-family="sans-serif" font-size="14.00" fill="#000000"> &#160;Module</text>
<polygon fill="#80b1d3" stroke="transparent" points="1336.5,-10 1336.5,-30 1356.5,-30 1356.5,-10 1336.5,-10"/>
<text text-anchor="start" x="1360.2812" y="-15.4" font-family="sans-serif" font-size="14.00" fill="#000000"> &#160;Bootstrap</text>
<polygon fill="#fdb462" stroke="transparent" points="1433.5,-10 1433.5,-30 1453.5,-30 1453.5,-10 1433.5,-10"/>
<text text-anchor="start" x="1457.1732" y="-15.4" font-family="sans-serif" font-size="14.00" fill="#000000"> &#160;Providers</text>
<polygon fill="#fb8072" stroke="transparent" points="1529.5,-10 1529.5,-30 1549.5,-30 1549.5,-10 1529.5,-10"/>
<text text-anchor="start" x="1553.2258" y="-15.4" font-family="sans-serif" font-size="14.00" fill="#000000"> &#160;Exports</text>
<g id="clust1" class="cluster">
<title>cluster_EmployeeProfileModule</title>
<polygon fill="none" stroke="#000000" stroke-dasharray="1,5" points="8,-70 8,-195 2735,-195 2735,-70 8,-70"/>
</g>
<g id="clust2" class="cluster">
<title>cluster_EmployeeProfileModule_declarations</title>
<polygon fill="none" stroke="#000000" points="2330,-78 2330,-130 2727,-130 2727,-78 2330,-78"/>
</g>
<g id="clust6" class="cluster">
<title>cluster_EmployeeProfileModule_imports</title>
<polygon fill="none" stroke="#000000" points="16,-78 16,-130 2322,-130 2322,-78 16,-78"/>
</g>
<!-- EmployeeProfilePage -->
<g id="node1" class="node">
<title>EmployeeProfilePage</title>
<polygon fill="#ffffb3" stroke="#000000" points="2719.0744,-122 2580.9256,-122 2580.9256,-86 2719.0744,-86 2719.0744,-122"/>
<text text-anchor="middle" x="2650" y="-99.8" font-family="Times,serif" font-size="14.00" fill="#000000">EmployeeProfilePage</text>
</g>
<!-- EmployeeProfileModule -->
<g id="node4" class="node">
<title>EmployeeProfileModule</title>
<polygon fill="#8dd3c7" stroke="#000000" points="1553.413,-187 1550.413,-191 1529.413,-191 1526.413,-187 1398.587,-187 1398.587,-151 1553.413,-151 1553.413,-187"/>
<text text-anchor="middle" x="1476" y="-164.8" font-family="Times,serif" font-size="14.00" fill="#000000">EmployeeProfileModule</text>
</g>
<!-- EmployeeProfilePage&#45;&gt;EmployeeProfileModule -->
<g id="edge1" class="edge">
<title>EmployeeProfilePage&#45;&gt;EmployeeProfileModule</title>
<path fill="none" stroke="#000000" d="M2650,-122.1532C2650,-145.7566 2650,-184 2650,-184 2650,-184 1563.4834,-184 1563.4834,-184"/>
<polygon fill="#000000" stroke="#000000" points="1563.4835,-180.5001 1553.4834,-184 1563.4834,-187.5001 1563.4835,-180.5001"/>
</g>
<!-- PersonalPage -->
<g id="node2" class="node">
<title>PersonalPage</title>
<polygon fill="#ffffb3" stroke="#000000" points="2562.9204,-122 2471.0796,-122 2471.0796,-86 2562.9204,-86 2562.9204,-122"/>
<text text-anchor="middle" x="2517" y="-99.8" font-family="Times,serif" font-size="14.00" fill="#000000">PersonalPage</text>
</g>
<!-- PersonalPage&#45;&gt;EmployeeProfileModule -->
<g id="edge2" class="edge">
<title>PersonalPage&#45;&gt;EmployeeProfileModule</title>
<path fill="none" stroke="#000000" d="M2517,-122.0109C2517,-144.4852 2517,-180 2517,-180 2517,-180 1563.3937,-180 1563.3937,-180"/>
<polygon fill="#000000" stroke="#000000" points="1563.3938,-176.5001 1553.3937,-180 1563.3937,-183.5001 1563.3938,-176.5001"/>
</g>
<!-- EmploymentPage -->
<g id="node3" class="node">
<title>EmploymentPage</title>
<polygon fill="#ffffb3" stroke="#000000" points="2453.5423,-122 2338.4577,-122 2338.4577,-86 2453.5423,-86 2453.5423,-122"/>
<text text-anchor="middle" x="2396" y="-99.8" font-family="Times,serif" font-size="14.00" fill="#000000">EmploymentPage</text>
</g>
<!-- EmploymentPage&#45;&gt;EmployeeProfileModule -->
<g id="edge3" class="edge">
<title>EmploymentPage&#45;&gt;EmployeeProfileModule</title>
<path fill="none" stroke="#000000" d="M2396,-122.0449C2396,-143.6623 2396,-177 2396,-177 2396,-177 1563.2506,-177 1563.2506,-177"/>
<polygon fill="#000000" stroke="#000000" points="1563.2507,-173.5001 1553.2506,-177 1563.2506,-180.5001 1563.2507,-173.5001"/>
</g>
<!-- CommonModule -->
<g id="node5" class="node">
<title>CommonModule</title>
<polygon fill="#8dd3c7" stroke="#000000" points="2313.6681,-122 2310.6681,-126 2289.6681,-126 2286.6681,-122 2202.3319,-122 2202.3319,-86 2313.6681,-86 2313.6681,-122"/>
<text text-anchor="middle" x="2258" y="-99.8" font-family="Times,serif" font-size="14.00" fill="#000000">CommonModule</text>
</g>
<!-- CommonModule&#45;&gt;EmployeeProfileModule -->
<g id="edge4" class="edge">
<title>CommonModule&#45;&gt;EmployeeProfileModule</title>
<path fill="none" stroke="#000000" d="M2258,-122.1289C2258,-142.5724 2258,-173 2258,-173 2258,-173 1563.4804,-173 1563.4804,-173"/>
<polygon fill="#000000" stroke="#000000" points="1563.4804,-169.5001 1553.4804,-173 1563.4803,-176.5001 1563.4804,-169.5001"/>
</g>
<!-- FormsModule -->
<g id="node6" class="node">
<title>FormsModule</title>
<polygon fill="#8dd3c7" stroke="#000000" points="2184.8288,-122 2181.8288,-126 2160.8288,-126 2157.8288,-122 2089.1712,-122 2089.1712,-86 2184.8288,-86 2184.8288,-122"/>
<text text-anchor="middle" x="2137" y="-99.8" font-family="Times,serif" font-size="14.00" fill="#000000">FormsModule</text>
</g>
<!-- FormsModule&#45;&gt;EmployeeProfileModule -->
<g id="edge5" class="edge">
<title>FormsModule&#45;&gt;EmployeeProfileModule</title>
<path fill="none" stroke="#000000" d="M2137,-122.1061C2137,-141.3391 2137,-169 2137,-169 2137,-169 1563.4435,-169 1563.4435,-169"/>
<polygon fill="#000000" stroke="#000000" points="1563.4436,-165.5001 1553.4435,-169 1563.4435,-172.5001 1563.4436,-165.5001"/>
</g>
<!-- IonicModule -->
<g id="node7" class="node">
<title>IonicModule</title>
<polygon fill="#8dd3c7" stroke="#000000" points="2071.3162,-122 2068.3162,-126 2047.3162,-126 2044.3162,-122 1982.6838,-122 1982.6838,-86 2071.3162,-86 2071.3162,-122"/>
<text text-anchor="middle" x="2027" y="-99.8" font-family="Times,serif" font-size="14.00" fill="#000000">IonicModule</text>
</g>
<!-- IonicModule&#45;&gt;EmployeeProfileModule -->
<g id="edge6" class="edge">
<title>IonicModule&#45;&gt;EmployeeProfileModule</title>
<path fill="none" stroke="#000000" d="M2027,-122.2667C2027,-140.5552 2027,-166 2027,-166 2027,-166 1563.4851,-166 1563.4851,-166"/>
<polygon fill="#000000" stroke="#000000" points="1563.4851,-162.5001 1553.4851,-166 1563.485,-169.5001 1563.4851,-162.5001"/>
</g>
<!-- MatPaginatorModule -->
<g id="node8" class="node">
<title>MatPaginatorModule</title>
<polygon fill="#8dd3c7" stroke="#000000" points="1964.7534,-122 1961.7534,-126 1940.7534,-126 1937.7534,-122 1829.2466,-122 1829.2466,-86 1964.7534,-86 1964.7534,-122"/>
<text text-anchor="middle" x="1897" y="-99.8" font-family="Times,serif" font-size="14.00" fill="#000000">MatPaginatorModule</text>
</g>
<!-- MatPaginatorModule&#45;&gt;EmployeeProfileModule -->
<g id="edge7" class="edge">
<title>MatPaginatorModule&#45;&gt;EmployeeProfileModule</title>
<path fill="none" stroke="#000000" d="M1897,-122.0336C1897,-139.0597 1897,-162 1897,-162 1897,-162 1563.2179,-162 1563.2179,-162"/>
<polygon fill="#000000" stroke="#000000" points="1563.2179,-158.5001 1553.2179,-162 1563.2179,-165.5001 1563.2179,-158.5001"/>
</g>
<!-- MatInputModule -->
<g id="node9" class="node">
<title>MatInputModule</title>
<polygon fill="#8dd3c7" stroke="#000000" points="1810.6513,-122 1807.6513,-126 1786.6513,-126 1783.6513,-122 1699.3487,-122 1699.3487,-86 1810.6513,-86 1810.6513,-122"/>
<text text-anchor="middle" x="1755" y="-99.8" font-family="Times,serif" font-size="14.00" fill="#000000">MatInputModule</text>
</g>
<!-- MatInputModule&#45;&gt;EmployeeProfileModule -->
<g id="edge8" class="edge">
<title>MatInputModule&#45;&gt;EmployeeProfileModule</title>
<path fill="none" stroke="#000000" d="M1755,-122.0091C1755,-138.0494 1755,-159 1755,-159 1755,-159 1563.3465,-159 1563.3465,-159"/>
<polygon fill="#000000" stroke="#000000" points="1563.3466,-155.5001 1553.3465,-159 1563.3465,-162.5001 1563.3466,-155.5001"/>
</g>
<!-- MatSelectModule -->
<g id="node10" class="node">
<title>MatSelectModule</title>
<polygon fill="#8dd3c7" stroke="#000000" points="1681.3076,-122 1678.3076,-126 1657.3076,-126 1654.3076,-122 1564.6924,-122 1564.6924,-86 1681.3076,-86 1681.3076,-122"/>
<text text-anchor="middle" x="1623" y="-99.8" font-family="Times,serif" font-size="14.00" fill="#000000">MatSelectModule</text>
</g>
<!-- MatSelectModule&#45;&gt;EmployeeProfileModule -->
<g id="edge9" class="edge">
<title>MatSelectModule&#45;&gt;EmployeeProfileModule</title>
<path fill="none" stroke="#000000" d="M1623,-122.1243C1623,-136.7832 1623,-155 1623,-155 1623,-155 1563.3744,-155 1563.3744,-155"/>
<polygon fill="#000000" stroke="#000000" points="1563.3744,-151.5001 1553.3744,-155 1563.3743,-158.5001 1563.3744,-151.5001"/>
</g>
<!-- MatFormFieldModule -->
<g id="node11" class="node">
<title>MatFormFieldModule</title>
<polygon fill="#8dd3c7" stroke="#000000" points="1546.712,-122 1543.712,-126 1522.712,-126 1519.712,-122 1405.288,-122 1405.288,-86 1546.712,-86 1546.712,-122"/>
<text text-anchor="middle" x="1476" y="-99.8" font-family="Times,serif" font-size="14.00" fill="#000000">MatFormFieldModule</text>
</g>
<!-- MatFormFieldModule&#45;&gt;EmployeeProfileModule -->
<g id="edge10" class="edge">
<title>MatFormFieldModule&#45;&gt;EmployeeProfileModule</title>
<path fill="none" stroke="#000000" d="M1476,-122.1061C1476,-122.1061 1476,-140.991 1476,-140.991"/>
<polygon fill="#000000" stroke="#000000" points="1472.5001,-140.9909 1476,-150.991 1479.5001,-140.991 1472.5001,-140.9909"/>
</g>
<!-- MatIconModule -->
<g id="node12" class="node">
<title>MatIconModule</title>
<polygon fill="#8dd3c7" stroke="#000000" points="1387.4748,-122 1384.4748,-126 1363.4748,-126 1360.4748,-122 1280.5252,-122 1280.5252,-86 1387.4748,-86 1387.4748,-122"/>
<text text-anchor="middle" x="1334" y="-99.8" font-family="Times,serif" font-size="14.00" fill="#000000">MatIconModule</text>
</g>
<!-- MatIconModule&#45;&gt;EmployeeProfileModule -->
<g id="edge11" class="edge">
<title>MatIconModule&#45;&gt;EmployeeProfileModule</title>
<path fill="none" stroke="#000000" d="M1334,-122.1243C1334,-136.7832 1334,-155 1334,-155 1334,-155 1388.7669,-155 1388.7669,-155"/>
<polygon fill="#000000" stroke="#000000" points="1388.7669,-158.5001 1398.7669,-155 1388.7669,-151.5001 1388.7669,-158.5001"/>
</g>
<!-- MatGridListModule -->
<g id="node13" class="node">
<title>MatGridListModule</title>
<polygon fill="#8dd3c7" stroke="#000000" points="1262.5366,-122 1259.5366,-126 1238.5366,-126 1235.5366,-122 1133.4634,-122 1133.4634,-86 1262.5366,-86 1262.5366,-122"/>
<text text-anchor="middle" x="1198" y="-99.8" font-family="Times,serif" font-size="14.00" fill="#000000">MatGridListModule</text>
</g>
<!-- MatGridListModule&#45;&gt;EmployeeProfileModule -->
<g id="edge12" class="edge">
<title>MatGridListModule&#45;&gt;EmployeeProfileModule</title>
<path fill="none" stroke="#000000" d="M1198,-122.0091C1198,-138.0494 1198,-159 1198,-159 1198,-159 1388.5615,-159 1388.5615,-159"/>
<polygon fill="#000000" stroke="#000000" points="1388.5615,-162.5001 1398.5615,-159 1388.5615,-155.5001 1388.5615,-162.5001"/>
</g>
<!-- MatCardModule -->
<g id="node14" class="node">
<title>MatCardModule</title>
<polygon fill="#8dd3c7" stroke="#000000" points="1115.8118,-122 1112.8118,-126 1091.8118,-126 1088.8118,-122 1006.1882,-122 1006.1882,-86 1115.8118,-86 1115.8118,-122"/>
<text text-anchor="middle" x="1061" y="-99.8" font-family="Times,serif" font-size="14.00" fill="#000000">MatCardModule</text>
</g>
<!-- MatCardModule&#45;&gt;EmployeeProfileModule -->
<g id="edge13" class="edge">
<title>MatCardModule&#45;&gt;EmployeeProfileModule</title>
<path fill="none" stroke="#000000" d="M1061,-122.0336C1061,-139.0597 1061,-162 1061,-162 1061,-162 1388.4285,-162 1388.4285,-162"/>
<polygon fill="#000000" stroke="#000000" points="1388.4285,-165.5001 1398.4285,-162 1388.4285,-158.5001 1388.4285,-165.5001"/>
</g>
<!-- MatTabsModule -->
<g id="node15" class="node">
<title>MatTabsModule</title>
<polygon fill="#8dd3c7" stroke="#000000" points="988.8118,-122 985.8118,-126 964.8118,-126 961.8118,-122 879.1882,-122 879.1882,-86 988.8118,-86 988.8118,-122"/>
<text text-anchor="middle" x="934" y="-99.8" font-family="Times,serif" font-size="14.00" fill="#000000">MatTabsModule</text>
</g>
<!-- MatTabsModule&#45;&gt;EmployeeProfileModule -->
<g id="edge14" class="edge">
<title>MatTabsModule&#45;&gt;EmployeeProfileModule</title>
<path fill="none" stroke="#000000" d="M934,-122.2667C934,-140.5552 934,-166 934,-166 934,-166 1388.6326,-166 1388.6326,-166"/>
<polygon fill="#000000" stroke="#000000" points="1388.6327,-169.5001 1398.6326,-166 1388.6326,-162.5001 1388.6327,-169.5001"/>
</g>
<!-- InlineSVGModule.forRoot() -->
<g id="node16" class="node">
<title>InlineSVGModule.forRoot()</title>
<polygon fill="#8dd3c7" stroke="#000000" points="861.0721,-122 858.0721,-126 837.0721,-126 834.0721,-122 684.9279,-122 684.9279,-86 861.0721,-86 861.0721,-122"/>
<text text-anchor="middle" x="773" y="-99.8" font-family="Times,serif" font-size="14.00" fill="#000000">InlineSVGModule.forRoot()</text>
</g>
<!-- InlineSVGModule.forRoot()&#45;&gt;EmployeeProfileModule -->
<g id="edge15" class="edge">
<title>InlineSVGModule.forRoot()&#45;&gt;EmployeeProfileModule</title>
<path fill="none" stroke="#000000" d="M773,-122.1061C773,-141.3391 773,-169 773,-169 773,-169 1388.7557,-169 1388.7557,-169"/>
<polygon fill="#000000" stroke="#000000" points="1388.7558,-172.5001 1398.7557,-169 1388.7557,-165.5001 1388.7558,-172.5001"/>
</g>
<!-- HttpClientModule -->
<g id="node17" class="node">
<title>HttpClientModule</title>
<polygon fill="#8dd3c7" stroke="#000000" points="666.1611,-122 663.1611,-126 642.1611,-126 639.1611,-122 547.8389,-122 547.8389,-86 666.1611,-86 666.1611,-122"/>
<text text-anchor="middle" x="607" y="-99.8" font-family="Times,serif" font-size="14.00" fill="#000000">HttpClientModule</text>
</g>
<!-- HttpClientModule&#45;&gt;EmployeeProfileModule -->
<g id="edge16" class="edge">
<title>HttpClientModule&#45;&gt;EmployeeProfileModule</title>
<path fill="none" stroke="#000000" d="M607,-122.1289C607,-142.5724 607,-173 607,-173 607,-173 1388.5001,-173 1388.5001,-173"/>
<polygon fill="#000000" stroke="#000000" points="1388.5001,-176.5001 1398.5001,-173 1388.5,-169.5001 1388.5001,-176.5001"/>
</g>
<!-- MatDatepickerModule -->
<g id="node18" class="node">
<title>MatDatepickerModule</title>
<polygon fill="#8dd3c7" stroke="#000000" points="529.5072,-122 526.5072,-126 505.5072,-126 502.5072,-122 386.4928,-122 386.4928,-86 529.5072,-86 529.5072,-122"/>
<text text-anchor="middle" x="458" y="-99.8" font-family="Times,serif" font-size="14.00" fill="#000000">MatDatepickerModule</text>
</g>
<!-- MatDatepickerModule&#45;&gt;EmployeeProfileModule -->
<g id="edge17" class="edge">
<title>MatDatepickerModule&#45;&gt;EmployeeProfileModule</title>
<path fill="none" stroke="#000000" d="M458,-122.0449C458,-143.6623 458,-177 458,-177 458,-177 1388.649,-177 1388.649,-177"/>
<polygon fill="#000000" stroke="#000000" points="1388.649,-180.5001 1398.649,-177 1388.649,-173.5001 1388.649,-180.5001"/>
</g>
<!-- ReactiveFormsModule -->
<g id="node19" class="node">
<title>ReactiveFormsModule</title>
<polygon fill="#8dd3c7" stroke="#000000" points="368.3047,-122 365.3047,-126 344.3047,-126 341.3047,-122 223.6953,-122 223.6953,-86 368.3047,-86 368.3047,-122"/>
<text text-anchor="middle" x="296" y="-99.8" font-family="Times,serif" font-size="14.00" fill="#000000">ReactiveFormsModule</text>
</g>
<!-- ReactiveFormsModule&#45;&gt;EmployeeProfileModule -->
<g id="edge18" class="edge">
<title>ReactiveFormsModule&#45;&gt;EmployeeProfileModule</title>
<path fill="none" stroke="#000000" d="M296,-122.0109C296,-144.4852 296,-180 296,-180 296,-180 1388.5769,-180 1388.5769,-180"/>
<polygon fill="#000000" stroke="#000000" points="1388.5769,-183.5001 1398.5769,-180 1388.5769,-176.5001 1388.5769,-183.5001"/>
</g>
<!-- RouterModule.forChild(args) -->
<g id="node20" class="node">
<title>RouterModule.forChild(args)</title>
<polygon fill="#8dd3c7" stroke="#000000" points="205.7323,-122 202.7323,-126 181.7323,-126 178.7323,-122 24.2677,-122 24.2677,-86 205.7323,-86 205.7323,-122"/>
<text text-anchor="middle" x="115" y="-99.8" font-family="Times,serif" font-size="14.00" fill="#000000">RouterModule.forChild(args)</text>
</g>
<!-- RouterModule.forChild(args)&#45;&gt;EmployeeProfileModule -->
<g id="edge19" class="edge">
<title>RouterModule.forChild(args)&#45;&gt;EmployeeProfileModule</title>
<path fill="none" stroke="#000000" d="M115,-122.1532C115,-145.7566 115,-184 115,-184 115,-184 1388.4335,-184 1388.4335,-184"/>
<polygon fill="#000000" stroke="#000000" points="1388.4335,-187.5001 1398.4335,-184 1388.4335,-180.5001 1388.4335,-187.5001"/>
</g>
</g>
</svg>
