<?xml version="1.0" encoding="utf-8"?>
<!-- Generator: Adobe Illustrator 22.0.0, SVG Export Plug-In . SVG Version: 6.00 Build 0)  -->
<svg version="1.1" id="Layer_1" xmlns="http://www.w3.org/2000/svg" xmlns:xlink="http://www.w3.org/1999/xlink" x="0px" y="0px"
	 viewBox="0 0 512 512" style="enable-background:new 0 0 512 512;" xml:space="preserve">
<path d="M0,256c0,141.5,114.5,256,256,256c44.9,0,88.8-11.7,127.4-33.9l102.4,33c7.2,2.3,15,0.4,20.3-4.9c5.3-5.3,7.2-13.1,4.9-20.3
	l-33-102.4C500.3,344.8,512,300.9,512,256C512,114.5,397.5,0,256,0C114.5,0,0,114.5,0,256z M40,256c0-119.1,96.9-216,216-216
	s216,96.9,216,216c0,40.6-11.3,80.1-32.7,114.3c-3.1,5-3.9,11.1-2.1,16.7L461,461l-73.9-23.8c-5.7-1.8-11.8-1-16.7,2.1
	C336.1,460.7,296.6,472,256,472C136.9,472,40,375.1,40,256z M256,231c13.8,0,25,11.2,25,25c0,13.8-11.2,25-25,25s-25-11.2-25-25
	C231,242.2,242.2,231,256,231z M156,231c13.8,0,25,11.2,25,25c0,13.8-11.2,25-25,25s-25-11.2-25-25C131,242.2,142.2,231,156,231z
	 M356,231c13.8,0,25,11.2,25,25c0,13.8-11.2,25-25,25c-13.8,0-25-11.2-25-25C331,242.2,342.2,231,356,231z"/>
</svg>
