<svg height="512pt" viewBox="0 0 512.00023 512" width="512pt" xmlns="http://www.w3.org/2000/svg"><path d="m474.941406 37.722656c-49.902344-50.203125-130.863281-50.226562-180.835937-.492187-.070313.070312-.148438.128906-.214844.199219-.054687.050781-.101563.113281-.152344.164062l-267.867187 267.738281c-3.1875 3.1875-5.207032 7.359375-5.726563 11.839844l-20.007812 172.519531c-1.480469 12.757813 9.332031 23.671875 22.1875 22.167969l171.550781-20c4.464844-.519531 8.621094-2.527344 11.804688-5.699219l.367187-.367187c.066406-.066407.136719-.117188.203125-.183594.058594-.058594.109375-.128906.171875-.1875l268.082031-267.191406c49.824219-49.644531 50.019532-130.621094.4375-180.507813zm-166.902344 42.136719 47.980469 47.972656-239.664062 239.621094-48.015625-48.011719zm-265.253906 389.347656 12.34375-106.40625c10.738282 10.738281 83.429688 83.417969 94.019532 94.003907zm149.332032-26.007812-47.46875-47.464844 239.660156-239.617187 47.851562 47.839843zm266.714843-269.140625-120.875-120.855469c33.246094-20.722656 78.636719-17.4375 108.605469 12.714844 29.183594 29.359375 33.238281 74.394531 12.269531 108.140625zm0 0"/></svg>