<?xml version="1.0" encoding="iso-8859-1"?>
<!-- Generator: Adobe Illustrator 19.0.0, SVG Export Plug-In . SVG Version: 6.00 Build 0)  -->
<svg version="1.1" id="Capa_1" xmlns="http://www.w3.org/2000/svg" xmlns:xlink="http://www.w3.org/1999/xlink" x="0px" y="0px"
	 viewBox="0 0 490 490" style="enable-background:new 0 0 490 490;" xml:space="preserve">
<g>
	<g>
		<path d="M469.2,0H20.8C9.4,0,0,9.4,0,20.8v448.4C0,480.6,9.4,490,20.8,490h449.4c11.4,0,19.8-8.3,19.8-20.8V20.8
			C490,9.4,480.6,0,469.2,0z M449.4,41.6v119.2L299.5,332.2l-95.6-137.6c-4.2-5.2-20.3-16-33.3,0l-129,165.5V41.6H449.4z
			 M41.6,427.4l145.6-187.1L272,363.5l-75.2,85.9H41.6V427.4z M252.6,449.4l196.9-225.8v225.8H252.6z"/>
		<path d="M311.1,200.8c35.4,0,64.5-29.1,64.5-64.5s-29.1-64.5-64.5-64.5s-64.5,29.1-64.5,64.5S275.7,200.8,311.1,200.8z
			 M311.1,112.4c13.5,0,23.9,10.4,23.9,23.9s-10.4,23.9-23.9,23.9s-23.9-10.4-23.9-23.9S297.5,112.4,311.1,112.4z"/>
	</g>
</g>
<g>
</g>
<g>
</g>
<g>
</g>
<g>
</g>
<g>
</g>
<g>
</g>
<g>
</g>
<g>
</g>
<g>
</g>
<g>
</g>
<g>
</g>
<g>
</g>
<g>
</g>
<g>
</g>
<g>
</g>
</svg>
