<?xml version="1.0" encoding="UTF-8" standalone="no"?>
<!DOCTYPE svg PUBLIC "-//W3C//DTD SVG 1.1//EN"
 "http://www.w3.org/Graphics/SVG/1.1/DTD/svg11.dtd">
<!-- Generated by graphviz version 2.40.1 (20161225.0304)
 -->
<!-- Title: dependencies Pages: 1 -->
<svg width="1301pt" height="211pt"
 viewBox="0.00 0.00 1301.00 211.00" xmlns="http://www.w3.org/2000/svg" xmlns:xlink="http://www.w3.org/1999/xlink">
<g id="graph0" class="graph" transform="scale(1 1) rotate(0) translate(4 207)">
<title>dependencies</title>
<polygon fill="#ffffff" stroke="transparent" points="-4,4 -4,-207 1297,-207 1297,4 -4,4"/>
<text text-anchor="start" x="625.5091" y="-42.4" font-family="sans-serif" font-weight="bold" font-size="14.00" fill="#000000">Legend</text>
<polygon fill="#ffffb3" stroke="transparent" points="412.5,-10 412.5,-30 432.5,-30 432.5,-10 412.5,-10"/>
<text text-anchor="start" x="436.129" y="-15.4" font-family="sans-serif" font-size="14.00" fill="#000000"> &#160;Declarations</text>
<polygon fill="#8dd3c7" stroke="transparent" points="525.5,-10 525.5,-30 545.5,-30 545.5,-10 525.5,-10"/>
<text text-anchor="start" x="549.2251" y="-15.4" font-family="sans-serif" font-size="14.00" fill="#000000"> &#160;Module</text>
<polygon fill="#80b1d3" stroke="transparent" points="611.5,-10 611.5,-30 631.5,-30 631.5,-10 611.5,-10"/>
<text text-anchor="start" x="635.2812" y="-15.4" font-family="sans-serif" font-size="14.00" fill="#000000"> &#160;Bootstrap</text>
<polygon fill="#fdb462" stroke="transparent" points="708.5,-10 708.5,-30 728.5,-30 728.5,-10 708.5,-10"/>
<text text-anchor="start" x="732.1732" y="-15.4" font-family="sans-serif" font-size="14.00" fill="#000000"> &#160;Providers</text>
<polygon fill="#fb8072" stroke="transparent" points="804.5,-10 804.5,-30 824.5,-30 824.5,-10 804.5,-10"/>
<text text-anchor="start" x="828.2258" y="-15.4" font-family="sans-serif" font-size="14.00" fill="#000000"> &#160;Exports</text>
<g id="clust1" class="cluster">
<title>cluster_LoginModule</title>
<polygon fill="none" stroke="#000000" stroke-dasharray="1,5" points="8,-70 8,-195 1285,-195 1285,-70 8,-70"/>
</g>
<g id="clust2" class="cluster">
<title>cluster_LoginModule_declarations</title>
<polygon fill="none" stroke="#000000" points="1147,-78 1147,-130 1277,-130 1277,-78 1147,-78"/>
</g>
<g id="clust4" class="cluster">
<title>cluster_LoginModule_imports</title>
<polygon fill="none" stroke="#000000" points="16,-78 16,-130 1139,-130 1139,-78 16,-78"/>
</g>
<!-- LoginComponent -->
<g id="node1" class="node">
<title>LoginComponent</title>
<polygon fill="#ffffb3" stroke="#000000" points="1269.2758,-122 1154.7242,-122 1154.7242,-86 1269.2758,-86 1269.2758,-122"/>
<text text-anchor="middle" x="1212" y="-99.8" font-family="Times,serif" font-size="14.00" fill="#000000">LoginComponent</text>
</g>
<!-- LoginModule -->
<g id="node2" class="node">
<title>LoginModule</title>
<polygon fill="#8dd3c7" stroke="#000000" points="772.493,-187 769.493,-191 748.493,-191 745.493,-187 679.507,-187 679.507,-151 772.493,-151 772.493,-187"/>
<text text-anchor="middle" x="726" y="-164.8" font-family="Times,serif" font-size="14.00" fill="#000000">LoginModule</text>
</g>
<!-- LoginComponent&#45;&gt;LoginModule -->
<g id="edge1" class="edge">
<title>LoginComponent&#45;&gt;LoginModule</title>
<path fill="none" stroke="#000000" d="M1212,-122.0109C1212,-144.4852 1212,-180 1212,-180 1212,-180 782.5997,-180 782.5997,-180"/>
<polygon fill="#000000" stroke="#000000" points="782.5998,-176.5001 772.5997,-180 782.5997,-183.5001 782.5998,-176.5001"/>
</g>
<!-- CommonModule -->
<g id="node3" class="node">
<title>CommonModule</title>
<polygon fill="#8dd3c7" stroke="#000000" points="1130.6681,-122 1127.6681,-126 1106.6681,-126 1103.6681,-122 1019.3319,-122 1019.3319,-86 1130.6681,-86 1130.6681,-122"/>
<text text-anchor="middle" x="1075" y="-99.8" font-family="Times,serif" font-size="14.00" fill="#000000">CommonModule</text>
</g>
<!-- CommonModule&#45;&gt;LoginModule -->
<g id="edge2" class="edge">
<title>CommonModule&#45;&gt;LoginModule</title>
<path fill="none" stroke="#000000" d="M1075,-122.1289C1075,-142.5724 1075,-173 1075,-173 1075,-173 782.7056,-173 782.7056,-173"/>
<polygon fill="#000000" stroke="#000000" points="782.7056,-169.5001 772.7056,-173 782.7055,-176.5001 782.7056,-169.5001"/>
</g>
<!-- FormsModule -->
<g id="node4" class="node">
<title>FormsModule</title>
<polygon fill="#8dd3c7" stroke="#000000" points="1001.8288,-122 998.8288,-126 977.8288,-126 974.8288,-122 906.1712,-122 906.1712,-86 1001.8288,-86 1001.8288,-122"/>
<text text-anchor="middle" x="954" y="-99.8" font-family="Times,serif" font-size="14.00" fill="#000000">FormsModule</text>
</g>
<!-- FormsModule&#45;&gt;LoginModule -->
<g id="edge3" class="edge">
<title>FormsModule&#45;&gt;LoginModule</title>
<path fill="none" stroke="#000000" d="M954,-122.2667C954,-140.5552 954,-166 954,-166 954,-166 782.6894,-166 782.6894,-166"/>
<polygon fill="#000000" stroke="#000000" points="782.6894,-162.5001 772.6894,-166 782.6893,-169.5001 782.6894,-162.5001"/>
</g>
<!-- IonicModule -->
<g id="node5" class="node">
<title>IonicModule</title>
<polygon fill="#8dd3c7" stroke="#000000" points="888.3162,-122 885.3162,-126 864.3162,-126 861.3162,-122 799.6838,-122 799.6838,-86 888.3162,-86 888.3162,-122"/>
<text text-anchor="middle" x="844" y="-99.8" font-family="Times,serif" font-size="14.00" fill="#000000">IonicModule</text>
</g>
<!-- IonicModule&#45;&gt;LoginModule -->
<g id="edge4" class="edge">
<title>IonicModule&#45;&gt;LoginModule</title>
<path fill="none" stroke="#000000" d="M844,-122.0091C844,-138.0494 844,-159 844,-159 844,-159 782.6367,-159 782.6367,-159"/>
<polygon fill="#000000" stroke="#000000" points="782.6368,-155.5001 772.6367,-159 782.6367,-162.5001 782.6368,-155.5001"/>
</g>
<!-- MatInputModule -->
<g id="node6" class="node">
<title>MatInputModule</title>
<polygon fill="#8dd3c7" stroke="#000000" points="781.6513,-122 778.6513,-126 757.6513,-126 754.6513,-122 670.3487,-122 670.3487,-86 781.6513,-86 781.6513,-122"/>
<text text-anchor="middle" x="726" y="-99.8" font-family="Times,serif" font-size="14.00" fill="#000000">MatInputModule</text>
</g>
<!-- MatInputModule&#45;&gt;LoginModule -->
<g id="edge5" class="edge">
<title>MatInputModule&#45;&gt;LoginModule</title>
<path fill="none" stroke="#000000" d="M726,-122.1061C726,-122.1061 726,-140.991 726,-140.991"/>
<polygon fill="#000000" stroke="#000000" points="722.5001,-140.9909 726,-150.991 729.5001,-140.991 722.5001,-140.9909"/>
</g>
<!-- MatFormFieldModule -->
<g id="node7" class="node">
<title>MatFormFieldModule</title>
<polygon fill="#8dd3c7" stroke="#000000" points="652.712,-122 649.712,-126 628.712,-126 625.712,-122 511.288,-122 511.288,-86 652.712,-86 652.712,-122"/>
<text text-anchor="middle" x="582" y="-99.8" font-family="Times,serif" font-size="14.00" fill="#000000">MatFormFieldModule</text>
</g>
<!-- MatFormFieldModule&#45;&gt;LoginModule -->
<g id="edge6" class="edge">
<title>MatFormFieldModule&#45;&gt;LoginModule</title>
<path fill="none" stroke="#000000" d="M582,-122.0091C582,-138.0494 582,-159 582,-159 582,-159 669.2473,-159 669.2473,-159"/>
<polygon fill="#000000" stroke="#000000" points="669.2474,-162.5001 679.2473,-159 669.2473,-155.5001 669.2474,-162.5001"/>
</g>
<!-- ReactiveFormsModule -->
<g id="node8" class="node">
<title>ReactiveFormsModule</title>
<polygon fill="#8dd3c7" stroke="#000000" points="493.3047,-122 490.3047,-126 469.3047,-126 466.3047,-122 348.6953,-122 348.6953,-86 493.3047,-86 493.3047,-122"/>
<text text-anchor="middle" x="421" y="-99.8" font-family="Times,serif" font-size="14.00" fill="#000000">ReactiveFormsModule</text>
</g>
<!-- ReactiveFormsModule&#45;&gt;LoginModule -->
<g id="edge7" class="edge">
<title>ReactiveFormsModule&#45;&gt;LoginModule</title>
<path fill="none" stroke="#000000" d="M421,-122.2667C421,-140.5552 421,-166 421,-166 421,-166 669.3451,-166 669.3451,-166"/>
<polygon fill="#000000" stroke="#000000" points="669.3451,-169.5001 679.3451,-166 669.345,-162.5001 669.3451,-169.5001"/>
</g>
<!-- MatIconModule -->
<g id="node9" class="node">
<title>MatIconModule</title>
<polygon fill="#8dd3c7" stroke="#000000" points="330.4748,-122 327.4748,-126 306.4748,-126 303.4748,-122 223.5252,-122 223.5252,-86 330.4748,-86 330.4748,-122"/>
<text text-anchor="middle" x="277" y="-99.8" font-family="Times,serif" font-size="14.00" fill="#000000">MatIconModule</text>
</g>
<!-- MatIconModule&#45;&gt;LoginModule -->
<g id="edge8" class="edge">
<title>MatIconModule&#45;&gt;LoginModule</title>
<path fill="none" stroke="#000000" d="M277,-122.1289C277,-142.5724 277,-173 277,-173 277,-173 669.2198,-173 669.2198,-173"/>
<polygon fill="#000000" stroke="#000000" points="669.2198,-176.5001 679.2198,-173 669.2197,-169.5001 669.2198,-176.5001"/>
</g>
<!-- RouterModule.forChild(args) -->
<g id="node10" class="node">
<title>RouterModule.forChild(args)</title>
<polygon fill="#8dd3c7" stroke="#000000" points="205.7323,-122 202.7323,-126 181.7323,-126 178.7323,-122 24.2677,-122 24.2677,-86 205.7323,-86 205.7323,-122"/>
<text text-anchor="middle" x="115" y="-99.8" font-family="Times,serif" font-size="14.00" fill="#000000">RouterModule.forChild(args)</text>
</g>
<!-- RouterModule.forChild(args)&#45;&gt;LoginModule -->
<g id="edge9" class="edge">
<title>RouterModule.forChild(args)&#45;&gt;LoginModule</title>
<path fill="none" stroke="#000000" d="M115,-122.0109C115,-144.4852 115,-180 115,-180 115,-180 669.3226,-180 669.3226,-180"/>
<polygon fill="#000000" stroke="#000000" points="669.3226,-183.5001 679.3226,-180 669.3225,-176.5001 669.3226,-183.5001"/>
</g>
</g>
</svg>
