<?xml version="1.0" encoding="UTF-8" standalone="no"?>
<!DOCTYPE svg PUBLIC "-//W3C//DTD SVG 1.1//EN"
 "http://www.w3.org/Graphics/SVG/1.1/DTD/svg11.dtd">
<!-- Generated by graphviz version 2.40.1 (20161225.0304)
 -->
<!-- Title: dependencies Pages: 1 -->
<svg width="1970pt" height="211pt"
 viewBox="0.00 0.00 1970.00 211.00" xmlns="http://www.w3.org/2000/svg" xmlns:xlink="http://www.w3.org/1999/xlink">
<g id="graph0" class="graph" transform="scale(1 1) rotate(0) translate(4 207)">
<title>dependencies</title>
<polygon fill="#ffffff" stroke="transparent" points="-4,4 -4,-207 1966,-207 1966,4 -4,4"/>
<text text-anchor="start" x="960.0091" y="-42.4" font-family="sans-serif" font-weight="bold" font-size="14.00" fill="#000000">Legend</text>
<polygon fill="#ffffb3" stroke="transparent" points="747,-10 747,-30 767,-30 767,-10 747,-10"/>
<text text-anchor="start" x="770.629" y="-15.4" font-family="sans-serif" font-size="14.00" fill="#000000"> &#160;Declarations</text>
<polygon fill="#8dd3c7" stroke="transparent" points="860,-10 860,-30 880,-30 880,-10 860,-10"/>
<text text-anchor="start" x="883.7251" y="-15.4" font-family="sans-serif" font-size="14.00" fill="#000000"> &#160;Module</text>
<polygon fill="#80b1d3" stroke="transparent" points="946,-10 946,-30 966,-30 966,-10 946,-10"/>
<text text-anchor="start" x="969.7812" y="-15.4" font-family="sans-serif" font-size="14.00" fill="#000000"> &#160;Bootstrap</text>
<polygon fill="#fdb462" stroke="transparent" points="1043,-10 1043,-30 1063,-30 1063,-10 1043,-10"/>
<text text-anchor="start" x="1066.6732" y="-15.4" font-family="sans-serif" font-size="14.00" fill="#000000"> &#160;Providers</text>
<polygon fill="#fb8072" stroke="transparent" points="1139,-10 1139,-30 1159,-30 1159,-10 1139,-10"/>
<text text-anchor="start" x="1162.7258" y="-15.4" font-family="sans-serif" font-size="14.00" fill="#000000"> &#160;Exports</text>
<g id="clust1" class="cluster">
<title>cluster_AdminInvitesModule</title>
<polygon fill="none" stroke="#000000" stroke-dasharray="1,5" points="8,-70 8,-195 1954,-195 1954,-70 8,-70"/>
</g>
<g id="clust2" class="cluster">
<title>cluster_AdminInvitesModule_declarations</title>
<polygon fill="none" stroke="#000000" points="1686,-78 1686,-130 1946,-130 1946,-78 1686,-78"/>
</g>
<g id="clust5" class="cluster">
<title>cluster_AdminInvitesModule_imports</title>
<polygon fill="none" stroke="#000000" points="16,-78 16,-130 1678,-130 1678,-78 16,-78"/>
</g>
<!-- AdminInvitesPage -->
<g id="node1" class="node">
<title>AdminInvitesPage</title>
<polygon fill="#ffffb3" stroke="#000000" points="1938.2008,-122 1817.7992,-122 1817.7992,-86 1938.2008,-86 1938.2008,-122"/>
<text text-anchor="middle" x="1878" y="-99.8" font-family="Times,serif" font-size="14.00" fill="#000000">AdminInvitesPage</text>
</g>
<!-- AdminInvitesModule -->
<g id="node3" class="node">
<title>AdminInvitesModule</title>
<polygon fill="#8dd3c7" stroke="#000000" points="1113.0394,-187 1110.0394,-191 1089.0394,-191 1086.0394,-187 976.9606,-187 976.9606,-151 1113.0394,-151 1113.0394,-187"/>
<text text-anchor="middle" x="1045" y="-164.8" font-family="Times,serif" font-size="14.00" fill="#000000">AdminInvitesModule</text>
</g>
<!-- AdminInvitesPage&#45;&gt;AdminInvitesModule -->
<g id="edge1" class="edge">
<title>AdminInvitesPage&#45;&gt;AdminInvitesModule</title>
<path fill="none" stroke="#000000" d="M1878,-122.0908C1878,-145.1328 1878,-182 1878,-182 1878,-182 1123.1679,-182 1123.1679,-182"/>
<polygon fill="#000000" stroke="#000000" points="1123.1679,-178.5001 1113.1679,-182 1123.1679,-185.5001 1123.1679,-178.5001"/>
</g>
<!-- InviteMorePage -->
<g id="node2" class="node">
<title>InviteMorePage</title>
<polygon fill="#ffffb3" stroke="#000000" points="1800.1882,-122 1693.8118,-122 1693.8118,-86 1800.1882,-86 1800.1882,-122"/>
<text text-anchor="middle" x="1747" y="-99.8" font-family="Times,serif" font-size="14.00" fill="#000000">InviteMorePage</text>
</g>
<!-- InviteMorePage&#45;&gt;AdminInvitesModule -->
<g id="edge2" class="edge">
<title>InviteMorePage&#45;&gt;AdminInvitesModule</title>
<path fill="none" stroke="#000000" d="M1747,-122.0449C1747,-143.6623 1747,-177 1747,-177 1747,-177 1123.2684,-177 1123.2684,-177"/>
<polygon fill="#000000" stroke="#000000" points="1123.2684,-173.5001 1113.2684,-177 1123.2684,-180.5001 1123.2684,-173.5001"/>
</g>
<!-- CommonModule -->
<g id="node4" class="node">
<title>CommonModule</title>
<polygon fill="#8dd3c7" stroke="#000000" points="1669.6681,-122 1666.6681,-126 1645.6681,-126 1642.6681,-122 1558.3319,-122 1558.3319,-86 1669.6681,-86 1669.6681,-122"/>
<text text-anchor="middle" x="1614" y="-99.8" font-family="Times,serif" font-size="14.00" fill="#000000">CommonModule</text>
</g>
<!-- CommonModule&#45;&gt;AdminInvitesModule -->
<g id="edge3" class="edge">
<title>CommonModule&#45;&gt;AdminInvitesModule</title>
<path fill="none" stroke="#000000" d="M1614,-122.2228C1614,-142.3652 1614,-172 1614,-172 1614,-172 1123.0695,-172 1123.0695,-172"/>
<polygon fill="#000000" stroke="#000000" points="1123.0696,-168.5001 1113.0695,-172 1123.0695,-175.5001 1123.0696,-168.5001"/>
</g>
<!-- FormsModule -->
<g id="node5" class="node">
<title>FormsModule</title>
<polygon fill="#8dd3c7" stroke="#000000" points="1540.8288,-122 1537.8288,-126 1516.8288,-126 1513.8288,-122 1445.1712,-122 1445.1712,-86 1540.8288,-86 1540.8288,-122"/>
<text text-anchor="middle" x="1493" y="-99.8" font-family="Times,serif" font-size="14.00" fill="#000000">FormsModule</text>
</g>
<!-- FormsModule&#45;&gt;AdminInvitesModule -->
<g id="edge4" class="edge">
<title>FormsModule&#45;&gt;AdminInvitesModule</title>
<path fill="none" stroke="#000000" d="M1493,-122.2222C1493,-140.8285 1493,-167 1493,-167 1493,-167 1123.0416,-167 1123.0416,-167"/>
<polygon fill="#000000" stroke="#000000" points="1123.0416,-163.5001 1113.0416,-167 1123.0415,-170.5001 1123.0416,-163.5001"/>
</g>
<!-- IonicModule -->
<g id="node6" class="node">
<title>IonicModule</title>
<polygon fill="#8dd3c7" stroke="#000000" points="1427.3162,-122 1424.3162,-126 1403.3162,-126 1400.3162,-122 1338.6838,-122 1338.6838,-86 1427.3162,-86 1427.3162,-122"/>
<text text-anchor="middle" x="1383" y="-99.8" font-family="Times,serif" font-size="14.00" fill="#000000">IonicModule</text>
</g>
<!-- IonicModule&#45;&gt;AdminInvitesModule -->
<g id="edge5" class="edge">
<title>IonicModule&#45;&gt;AdminInvitesModule</title>
<path fill="none" stroke="#000000" d="M1383,-122.0336C1383,-139.0597 1383,-162 1383,-162 1383,-162 1123.3993,-162 1123.3993,-162"/>
<polygon fill="#000000" stroke="#000000" points="1123.3994,-158.5001 1113.3993,-162 1123.3993,-165.5001 1123.3994,-158.5001"/>
</g>
<!-- MatPaginatorModule -->
<g id="node7" class="node">
<title>MatPaginatorModule</title>
<polygon fill="#8dd3c7" stroke="#000000" points="1320.7534,-122 1317.7534,-126 1296.7534,-126 1293.7534,-122 1185.2466,-122 1185.2466,-86 1320.7534,-86 1320.7534,-122"/>
<text text-anchor="middle" x="1253" y="-99.8" font-family="Times,serif" font-size="14.00" fill="#000000">MatPaginatorModule</text>
</g>
<!-- MatPaginatorModule&#45;&gt;AdminInvitesModule -->
<g id="edge6" class="edge">
<title>MatPaginatorModule&#45;&gt;AdminInvitesModule</title>
<path fill="none" stroke="#000000" d="M1253,-122.2396C1253,-137.5706 1253,-157 1253,-157 1253,-157 1123.107,-157 1123.107,-157"/>
<polygon fill="#000000" stroke="#000000" points="1123.107,-153.5001 1113.107,-157 1123.1069,-160.5001 1123.107,-153.5001"/>
</g>
<!-- MatInputModule -->
<g id="node8" class="node">
<title>MatInputModule</title>
<polygon fill="#8dd3c7" stroke="#000000" points="1166.6513,-122 1163.6513,-126 1142.6513,-126 1139.6513,-122 1055.3487,-122 1055.3487,-86 1166.6513,-86 1166.6513,-122"/>
<text text-anchor="middle" x="1111" y="-99.8" font-family="Times,serif" font-size="14.00" fill="#000000">MatInputModule</text>
</g>
<!-- MatInputModule&#45;&gt;AdminInvitesModule -->
<g id="edge7" class="edge">
<title>MatInputModule&#45;&gt;AdminInvitesModule</title>
<path fill="none" stroke="#000000" d="M1084.222,-122.1061C1084.222,-122.1061 1084.222,-140.991 1084.222,-140.991"/>
<polygon fill="#000000" stroke="#000000" points="1080.722,-140.9909 1084.222,-150.991 1087.722,-140.991 1080.722,-140.9909"/>
</g>
<!-- MatSelectModule -->
<g id="node9" class="node">
<title>MatSelectModule</title>
<polygon fill="#8dd3c7" stroke="#000000" points="1037.3076,-122 1034.3076,-126 1013.3076,-126 1010.3076,-122 920.6924,-122 920.6924,-86 1037.3076,-86 1037.3076,-122"/>
<text text-anchor="middle" x="979" y="-99.8" font-family="Times,serif" font-size="14.00" fill="#000000">MatSelectModule</text>
</g>
<!-- MatSelectModule&#45;&gt;AdminInvitesModule -->
<g id="edge8" class="edge">
<title>MatSelectModule&#45;&gt;AdminInvitesModule</title>
<path fill="none" stroke="#000000" d="M1006.9422,-122.1061C1006.9422,-122.1061 1006.9422,-140.991 1006.9422,-140.991"/>
<polygon fill="#000000" stroke="#000000" points="1003.4422,-140.9909 1006.9422,-150.991 1010.4422,-140.991 1003.4422,-140.9909"/>
</g>
<!-- MatFormFieldModule -->
<g id="node10" class="node">
<title>MatFormFieldModule</title>
<polygon fill="#8dd3c7" stroke="#000000" points="902.712,-122 899.712,-126 878.712,-126 875.712,-122 761.288,-122 761.288,-86 902.712,-86 902.712,-122"/>
<text text-anchor="middle" x="832" y="-99.8" font-family="Times,serif" font-size="14.00" fill="#000000">MatFormFieldModule</text>
</g>
<!-- MatFormFieldModule&#45;&gt;AdminInvitesModule -->
<g id="edge9" class="edge">
<title>MatFormFieldModule&#45;&gt;AdminInvitesModule</title>
<path fill="none" stroke="#000000" d="M832,-122.2396C832,-137.5706 832,-157 832,-157 832,-157 966.7266,-157 966.7266,-157"/>
<polygon fill="#000000" stroke="#000000" points="966.7266,-160.5001 976.7266,-157 966.7265,-153.5001 966.7266,-160.5001"/>
</g>
<!-- MatIconModule -->
<g id="node11" class="node">
<title>MatIconModule</title>
<polygon fill="#8dd3c7" stroke="#000000" points="743.4748,-122 740.4748,-126 719.4748,-126 716.4748,-122 636.5252,-122 636.5252,-86 743.4748,-86 743.4748,-122"/>
<text text-anchor="middle" x="690" y="-99.8" font-family="Times,serif" font-size="14.00" fill="#000000">MatIconModule</text>
</g>
<!-- MatIconModule&#45;&gt;AdminInvitesModule -->
<g id="edge10" class="edge">
<title>MatIconModule&#45;&gt;AdminInvitesModule</title>
<path fill="none" stroke="#000000" d="M690,-122.0336C690,-139.0597 690,-162 690,-162 690,-162 966.5524,-162 966.5524,-162"/>
<polygon fill="#000000" stroke="#000000" points="966.5525,-165.5001 976.5524,-162 966.5524,-158.5001 966.5525,-165.5001"/>
</g>
<!-- MatGridListModule -->
<g id="node12" class="node">
<title>MatGridListModule</title>
<polygon fill="#8dd3c7" stroke="#000000" points="618.5366,-122 615.5366,-126 594.5366,-126 591.5366,-122 489.4634,-122 489.4634,-86 618.5366,-86 618.5366,-122"/>
<text text-anchor="middle" x="554" y="-99.8" font-family="Times,serif" font-size="14.00" fill="#000000">MatGridListModule</text>
</g>
<!-- MatGridListModule&#45;&gt;AdminInvitesModule -->
<g id="edge11" class="edge">
<title>MatGridListModule&#45;&gt;AdminInvitesModule</title>
<path fill="none" stroke="#000000" d="M554,-122.2222C554,-140.8285 554,-167 554,-167 554,-167 966.7286,-167 966.7286,-167"/>
<polygon fill="#000000" stroke="#000000" points="966.7286,-170.5001 976.7286,-167 966.7285,-163.5001 966.7286,-170.5001"/>
</g>
<!-- MatCardModule -->
<g id="node13" class="node">
<title>MatCardModule</title>
<polygon fill="#8dd3c7" stroke="#000000" points="471.8118,-122 468.8118,-126 447.8118,-126 444.8118,-122 362.1882,-122 362.1882,-86 471.8118,-86 471.8118,-122"/>
<text text-anchor="middle" x="417" y="-99.8" font-family="Times,serif" font-size="14.00" fill="#000000">MatCardModule</text>
</g>
<!-- MatCardModule&#45;&gt;AdminInvitesModule -->
<g id="edge12" class="edge">
<title>MatCardModule&#45;&gt;AdminInvitesModule</title>
<path fill="none" stroke="#000000" d="M417,-122.2228C417,-142.3652 417,-172 417,-172 417,-172 966.8972,-172 966.8972,-172"/>
<polygon fill="#000000" stroke="#000000" points="966.8972,-175.5001 976.8972,-172 966.8971,-168.5001 966.8972,-175.5001"/>
</g>
<!-- InlineSVGModule -->
<g id="node14" class="node">
<title>InlineSVGModule</title>
<polygon fill="#8dd3c7" stroke="#000000" points="344.2022,-122 341.2022,-126 320.2022,-126 317.2022,-122 223.7978,-122 223.7978,-86 344.2022,-86 344.2022,-122"/>
<text text-anchor="middle" x="284" y="-99.8" font-family="Times,serif" font-size="14.00" fill="#000000">InlineSVGModule</text>
</g>
<!-- InlineSVGModule&#45;&gt;AdminInvitesModule -->
<g id="edge13" class="edge">
<title>InlineSVGModule&#45;&gt;AdminInvitesModule</title>
<path fill="none" stroke="#000000" d="M284,-122.0449C284,-143.6623 284,-177 284,-177 284,-177 966.7966,-177 966.7966,-177"/>
<polygon fill="#000000" stroke="#000000" points="966.7966,-180.5001 976.7966,-177 966.7966,-173.5001 966.7966,-180.5001"/>
</g>
<!-- RouterModule.forChild(args) -->
<g id="node15" class="node">
<title>RouterModule.forChild(args)</title>
<polygon fill="#8dd3c7" stroke="#000000" points="205.7323,-122 202.7323,-126 181.7323,-126 178.7323,-122 24.2677,-122 24.2677,-86 205.7323,-86 205.7323,-122"/>
<text text-anchor="middle" x="115" y="-99.8" font-family="Times,serif" font-size="14.00" fill="#000000">RouterModule.forChild(args)</text>
</g>
<!-- RouterModule.forChild(args)&#45;&gt;AdminInvitesModule -->
<g id="edge14" class="edge">
<title>RouterModule.forChild(args)&#45;&gt;AdminInvitesModule</title>
<path fill="none" stroke="#000000" d="M115,-122.0908C115,-145.1328 115,-182 115,-182 115,-182 966.6149,-182 966.6149,-182"/>
<polygon fill="#000000" stroke="#000000" points="966.6149,-185.5001 976.6149,-182 966.6148,-178.5001 966.6149,-185.5001"/>
</g>
</g>
</svg>
