<?xml version="1.0" encoding="UTF-8" standalone="no"?>
<!DOCTYPE svg PUBLIC "-//W3C//DTD SVG 1.1//EN"
 "http://www.w3.org/Graphics/SVG/1.1/DTD/svg11.dtd">
<!-- Generated by graphviz version 2.40.1 (20161225.0304)
 -->
<!-- Title: dependencies Pages: 1 -->
<svg width="622pt" height="284pt"
 viewBox="0.00 0.00 622.00 284.00" xmlns="http://www.w3.org/2000/svg" xmlns:xlink="http://www.w3.org/1999/xlink">
<g id="graph0" class="graph" transform="scale(1 1) rotate(0) translate(4 280)">
<title>dependencies</title>
<polygon fill="#ffffff" stroke="transparent" points="-4,4 -4,-280 618,-280 618,4 -4,4"/>
<text text-anchor="start" x="286.0091" y="-42.4" font-family="sans-serif" font-weight="bold" font-size="14.00" fill="#000000">Legend</text>
<polygon fill="#ffffb3" stroke="transparent" points="73,-10 73,-30 93,-30 93,-10 73,-10"/>
<text text-anchor="start" x="96.629" y="-15.4" font-family="sans-serif" font-size="14.00" fill="#000000"> &#160;Declarations</text>
<polygon fill="#8dd3c7" stroke="transparent" points="186,-10 186,-30 206,-30 206,-10 186,-10"/>
<text text-anchor="start" x="209.7251" y="-15.4" font-family="sans-serif" font-size="14.00" fill="#000000"> &#160;Module</text>
<polygon fill="#80b1d3" stroke="transparent" points="272,-10 272,-30 292,-30 292,-10 272,-10"/>
<text text-anchor="start" x="295.7812" y="-15.4" font-family="sans-serif" font-size="14.00" fill="#000000"> &#160;Bootstrap</text>
<polygon fill="#fdb462" stroke="transparent" points="369,-10 369,-30 389,-30 389,-10 369,-10"/>
<text text-anchor="start" x="392.6732" y="-15.4" font-family="sans-serif" font-size="14.00" fill="#000000"> &#160;Providers</text>
<polygon fill="#fb8072" stroke="transparent" points="465,-10 465,-30 485,-30 485,-10 465,-10"/>
<text text-anchor="start" x="488.7258" y="-15.4" font-family="sans-serif" font-size="14.00" fill="#000000"> &#160;Exports</text>
<g id="clust1" class="cluster">
<title>cluster_SpinnerModule</title>
<polygon fill="none" stroke="#000000" stroke-dasharray="1,5" points="8,-70 8,-268 606,-268 606,-70 8,-70"/>
</g>
<g id="clust2" class="cluster">
<title>cluster_SpinnerModule_declarations</title>
<polygon fill="none" stroke="#000000" points="458,-78 458,-130 598,-130 598,-78 458,-78"/>
</g>
<g id="clust4" class="cluster">
<title>cluster_SpinnerModule_imports</title>
<polygon fill="none" stroke="#000000" points="16,-78 16,-130 450,-130 450,-78 16,-78"/>
</g>
<g id="clust5" class="cluster">
<title>cluster_SpinnerModule_exports</title>
<polygon fill="none" stroke="#000000" points="255,-208 255,-260 399,-260 399,-208 255,-208"/>
</g>
<!-- SpinnerComponent -->
<g id="node1" class="node">
<title>SpinnerComponent</title>
<polygon fill="#ffffb3" stroke="#000000" points="590.3809,-122 465.6191,-122 465.6191,-86 590.3809,-86 590.3809,-122"/>
<text text-anchor="middle" x="528" y="-99.8" font-family="Times,serif" font-size="14.00" fill="#000000">SpinnerComponent</text>
</g>
<!-- SpinnerModule -->
<g id="node2" class="node">
<title>SpinnerModule</title>
<polygon fill="#8dd3c7" stroke="#000000" points="378.5982,-187 375.5982,-191 354.5982,-191 351.5982,-187 275.4018,-187 275.4018,-151 378.5982,-151 378.5982,-187"/>
<text text-anchor="middle" x="327" y="-164.8" font-family="Times,serif" font-size="14.00" fill="#000000">SpinnerModule</text>
</g>
<!-- SpinnerComponent&#45;&gt;SpinnerModule -->
<g id="edge1" class="edge">
<title>SpinnerComponent&#45;&gt;SpinnerModule</title>
<path fill="none" stroke="#000000" d="M528,-122.1061C528,-141.3391 528,-169 528,-169 528,-169 388.7625,-169 388.7625,-169"/>
<polygon fill="#000000" stroke="#000000" points="388.7625,-165.5001 378.7625,-169 388.7625,-172.5001 388.7625,-165.5001"/>
</g>
<!-- SpinnerComponent  -->
<g id="node6" class="node">
<title>SpinnerComponent </title>
<polygon fill="#fb8072" stroke="#000000" points="391.3814,-252 262.6186,-252 262.6186,-216 391.3814,-216 391.3814,-252"/>
<text text-anchor="middle" x="327" y="-229.8" font-family="Times,serif" font-size="14.00" fill="#000000">SpinnerComponent </text>
</g>
<!-- SpinnerModule&#45;&gt;SpinnerComponent  -->
<g id="edge5" class="edge">
<title>SpinnerModule&#45;&gt;SpinnerComponent </title>
<path fill="none" stroke="#000000" stroke-dasharray="5,2" d="M327,-187.1061C327,-187.1061 327,-205.991 327,-205.991"/>
<polygon fill="#000000" stroke="#000000" points="323.5001,-205.9909 327,-215.991 330.5001,-205.991 323.5001,-205.9909"/>
</g>
<!-- CommonModule -->
<g id="node3" class="node">
<title>CommonModule</title>
<polygon fill="#8dd3c7" stroke="#000000" points="441.6681,-122 438.6681,-126 417.6681,-126 414.6681,-122 330.3319,-122 330.3319,-86 441.6681,-86 441.6681,-122"/>
<text text-anchor="middle" x="386" y="-99.8" font-family="Times,serif" font-size="14.00" fill="#000000">CommonModule</text>
</g>
<!-- CommonModule&#45;&gt;SpinnerModule -->
<g id="edge2" class="edge">
<title>CommonModule&#45;&gt;SpinnerModule</title>
<path fill="none" stroke="#000000" d="M354.3577,-122.1061C354.3577,-122.1061 354.3577,-140.991 354.3577,-140.991"/>
<polygon fill="#000000" stroke="#000000" points="350.8577,-140.9909 354.3577,-150.991 357.8577,-140.991 350.8577,-140.9909"/>
</g>
<!-- IonicModule -->
<g id="node4" class="node">
<title>IonicModule</title>
<polygon fill="#8dd3c7" stroke="#000000" points="312.3162,-122 309.3162,-126 288.3162,-126 285.3162,-122 223.6838,-122 223.6838,-86 312.3162,-86 312.3162,-122"/>
<text text-anchor="middle" x="268" y="-99.8" font-family="Times,serif" font-size="14.00" fill="#000000">IonicModule</text>
</g>
<!-- IonicModule&#45;&gt;SpinnerModule -->
<g id="edge3" class="edge">
<title>IonicModule&#45;&gt;SpinnerModule</title>
<path fill="none" stroke="#000000" d="M293.8044,-122.1061C293.8044,-122.1061 293.8044,-140.991 293.8044,-140.991"/>
<polygon fill="#000000" stroke="#000000" points="290.3044,-140.9909 293.8044,-150.991 297.3044,-140.991 290.3044,-140.9909"/>
</g>
<!-- RouterModule.forChild(args) -->
<g id="node5" class="node">
<title>RouterModule.forChild(args)</title>
<polygon fill="#8dd3c7" stroke="#000000" points="205.7323,-122 202.7323,-126 181.7323,-126 178.7323,-122 24.2677,-122 24.2677,-86 205.7323,-86 205.7323,-122"/>
<text text-anchor="middle" x="115" y="-99.8" font-family="Times,serif" font-size="14.00" fill="#000000">RouterModule.forChild(args)</text>
</g>
<!-- RouterModule.forChild(args)&#45;&gt;SpinnerModule -->
<g id="edge4" class="edge">
<title>RouterModule.forChild(args)&#45;&gt;SpinnerModule</title>
<path fill="none" stroke="#000000" d="M115,-122.1061C115,-141.3391 115,-169 115,-169 115,-169 265.4101,-169 265.4101,-169"/>
<polygon fill="#000000" stroke="#000000" points="265.4101,-172.5001 275.4101,-169 265.41,-165.5001 265.4101,-172.5001"/>
</g>
</g>
</svg>
