<svg height="511pt" viewBox="1 -37 511.999 511" width="511pt" xmlns="http://www.w3.org/2000/svg"><path d="m491.960938.5h-471.921876c-11.066406 0-20.039062 8.953125-20.039062 20v320c0 11.046875 8.972656 20 20.039062 20h215.921876v36h-79.15625c-11.066407 0-20.039063 8.953125-20.039063 20s8.972656 20 20.039063 20h198.390624c11.066407 0 20.039063-8.953125 20.039063-20s-8.972656-20-20.039063-20h-79.15625v-36h215.921876c11.066406 0 20.039062-8.953125 20.039062-20v-320c0-11.046875-8.972656-20-20.039062-20zm-20.039063 320h-431.84375v-44h431.84375zm0-84h-431.84375v-196h431.84375zm0 0"/></svg>