<svg height="512pt" viewBox="0 -1 512 512" width="512pt" xmlns="http://www.w3.org/2000/svg"><path d="m455.097656 370.320312c22.558594-18.246093 37.011719-46.136718 37.011719-77.339843 0-54.835938-44.609375-99.445313-99.441406-99.445313-11.328125 0-22.214844 1.90625-32.363281 5.410156-11.480469-10.238281-24.367188-18.691406-38.183594-25.128906 20.539062-18.230468 33.507812-44.8125 33.507812-74.371094 0-54.835937-44.609375-99.445312-99.441406-99.445312-54.835938 0-99.445312 44.609375-99.445312 99.445312 0 29.496094 12.914062 56.03125 33.378906 74.257813-13.898438 6.445313-26.859375 14.933594-38.402344 25.21875-10.160156-3.488281-21.054688-5.386719-32.386719-5.386719-55.117187 0-99.960937 44.839844-99.960937 99.960938 0 31.136718 14.3125 58.992187 36.703125 77.339844-33.652344 21.125-56.074219 58.558593-56.074219 101.140624v17.289063c0 10.984375 8.902344 19.886719 19.890625 19.886719h472.21875c10.988281 0 19.890625-8.902344 19.890625-19.886719v-17.289063c0-42.925781-22.789062-80.628906-56.902344-101.65625zm-2.765625-77.339843c0 32.898437-26.765625 59.664062-59.664062 59.664062-32.902344 0-59.667969-26.765625-59.667969-59.664062 0-32.902344 26.765625-59.667969 59.667969-59.667969 32.898437 0 59.664062 26.765625 59.664062 59.667969zm-196.144531-253.203125c32.898438 0 59.667969 26.765625 59.667969 59.667968 0 32.898438-26.769531 59.664063-59.667969 59.664063s-59.667969-26.765625-59.667969-59.664063c0-32.902343 26.769531-59.667968 59.667969-59.667968zm68.078125 181.085937c-19.109375 18.132813-31.042969 43.757813-31.042969 72.117188 0 31.203125 14.453125 59.09375 37.011719 77.339843-33.421875 20.601563-55.96875 57.207032-56.867187 99.054688h-34.734376c-.894531-41.5-23.078124-77.847656-56.042968-98.539062 22.390625-18.347657 36.703125-46.203126 36.703125-77.339844 0-28.625-12.097657-54.472656-31.441407-72.714844 40.445313-29.25 95.992188-29.222656 136.414063.082031zm-265.117187 72.632813c0-33.1875 27-60.183594 60.183593-60.183594 33.1875 0 60.183594 26.996094 60.183594 60.183594 0 30.089844-22.199219 55.09375-51.078125 59.492187-3.007812-.226562-6.042969-.34375-9.105469-.34375s-6.097656.117188-9.101562.34375c-28.882813-4.398437-51.082031-29.402343-51.082031-59.492187zm-19.328126 175.878906c1.273438-39.488281 31.476563-71.777344 70.054688-76.371094 3.113281.292969 6.265625.453125 9.457031.453125 3.191407 0 6.34375-.160156 9.460938-.453125 38.578125 4.597656 68.777343 36.882813 70.054687 76.371094zm273.332032 0c1.378906-42.667969 36.519531-76.953125 79.515625-76.953125 42.996093 0 78.136719 34.285156 79.511719 76.953125zm0 0"/></svg>