<svg xmlns="http://www.w3.org/2000/svg" width="14.577" height="9.19" viewBox="0 0 14.577 9.19">
    <defs>
        <style>
            .cls-1{fill:#a5a4bf}
        </style>
    </defs>
    <g id="icon_persons" data-name="icon persons" transform="translate(-1)">
        <path id="Union_10" d="M0 9.19a3.431 3.431 0 0 1 3.395-3.446h1.132a3.431 3.431 0 0 1 3.4 3.446zm1.471-1.149h5.036a2.276 2.276 0 0 0-1.98-1.149H3.451a2.277 2.277 0 0 0-1.98 1.149zM1.7 2.872V2.3A2.287 2.287 0 0 1 3.961 0a2.287 2.287 0 0 1 2.264 2.3v.574a2.288 2.288 0 0 1-2.264 2.3A2.287 2.287 0 0 1 1.7 2.872zM2.829 2.3v.574a1.132 1.132 0 1 0 2.264 0V2.3a1.132 1.132 0 1 0-2.264 0z" class="cls-1" data-name="Union 10" transform="translate(7.655)"/>
        <path id="Union_12" d="M0 8.239a3.049 3.049 0 0 1 2.988-3.09h1a3.049 3.049 0 0 1 2.988 3.09zm1.294-1.03h4.432a2 2 0 0 0-1.743-1.03h-.946a2 2 0 0 0-1.743 1.03zm.2-4.635V2.06A2.033 2.033 0 0 1 3.485 0a2.033 2.033 0 0 1 1.993 2.06v.515a2.033 2.033 0 0 1-1.992 2.06 2.033 2.033 0 0 1-1.992-2.06zm1-.515v.515a1.016 1.016 0 0 0 1 1.03 1.016 1.016 0 0 0 1-1.03V2.06a1.016 1.016 0 0 0-1-1.03A1.016 1.016 0 0 0 2.49 2.06z" class="cls-1" data-name="Union 12" transform="translate(1 .951)"/>
    </g>
</svg>
