<svg xmlns="http://www.w3.org/2000/svg" width="10.667" height="10.667" viewBox="0 0 10.667 10.667">
    <defs>
        <style>
            .cls-1{fill:none}.cls-2{clip-path:url(#clip-path)}.cls-3{fill:#a3a0fb}
        </style>
        <clipPath id="clip-path">
            <path d="M0 0h10.667v10.667H0z" class="cls-1"/>
        </clipPath>
    </defs>
    <g id="icon_setting" class="cls-2">
        <path id="Path_108" d="M8.867 3.467l.733-1.4-.933-.933-1.4.733a2.388 2.388 0 0 0-.734-.267L6 0H4.667l-.534 1.533a2.786 2.786 0 0 0-.667.267l-1.4-.733-1 1 .733 1.4a2.786 2.786 0 0 0-.267.667L0 4.667V6l1.533.533c.067.267.2.467.267.733l-.733 1.4L2 9.6l1.4-.733a2.388 2.388 0 0 0 .733.267l.533 1.533H6l.533-1.533c.267-.067.467-.2.733-.267l1.4.733.934-.933-.733-1.4a2.388 2.388 0 0 0 .267-.733L10.667 6V4.667l-1.534-.534a2.786 2.786 0 0 0-.266-.666zM5.333 7.333a1.964 1.964 0 0 1-2-2 1.964 1.964 0 0 1 2-2 1.964 1.964 0 0 1 2 2 1.964 1.964 0 0 1-2 2z" class="cls-3" data-name="Path 108"/>
    </g>
</svg>
