<?xml version="1.0" encoding="iso-8859-1"?>
<!-- Generator: Adobe Illustrator 19.0.0, SVG Export Plug-In . SVG Version: 6.00 Build 0)  -->
<svg version="1.1" id="Capa_1" xmlns="http://www.w3.org/2000/svg" xmlns:xlink="http://www.w3.org/1999/xlink" x="0px" y="0px"
	 viewBox="0 0 512 512" style="enable-background:new 0 0 512 512;" xml:space="preserve">
<g>
	<g>
		<g>
			<circle cx="121" cy="121" r="25"/>
			<path d="M492,0H20C8.954,0,0,8.954,0,20v472c0,11.046,8.954,20,20,20h472c11.046,0,20-8.954,20-20V20C512,8.954,503.046,0,492,0z
				 M472,472H40V40h432V472z"/>
			<path d="M96,436c63.99,0,256.73,0,320,0c11.046,0,20-8.954,20-20c0-24.194,0-189.269,0-213.333c0-11.046-8.954-20-20-20
				c-63.99,0-256.73,0-320,0c-11.046,0-20,8.954-20,20c0,24.194,0,189.269,0,213.333C76,427.046,84.954,436,96,436z
				 M329.333,222.666H396v66.667h-66.667V222.666z M329.333,329.333H396V396h-66.667V329.333z M222.667,222.666h66.666v66.667
				h-66.666V222.666z M222.667,329.333h66.666V396h-66.666V329.333z M116,222.667h66.667v66.667H116V222.667z M116,329.333h66.667
				V396H116V329.333z"/>
		</g>
	</g>
</g>
<g>
</g>
<g>
</g>
<g>
</g>
<g>
</g>
<g>
</g>
<g>
</g>
<g>
</g>
<g>
</g>
<g>
</g>
<g>
</g>
<g>
</g>
<g>
</g>
<g>
</g>
<g>
</g>
<g>
</g>
</svg>
