<svg xmlns="http://www.w3.org/2000/svg" xmlns:xlink="http://www.w3.org/1999/xlink" viewBox="0 0 18 17.5" version="1.1" x="0px" y="0px"><title>Hamburger</title><desc>Created with Sketch.</desc><g stroke="none" stroke-width="1" fill="none" fill-rule="evenodd"><g transform="translate(-17.000000, -49.000000)" fill="#000000"><path d="M18,49 L29.6,49 C30.1522847,49 30.6,49.4477153 30.6,50 C30.6,50.5522847 30.1522847,51 29.6,51 L18,51 C17.4477153,51 17,50.5522847 17,50 C17,49.4477153 17.4477153,49 18,49 Z M18,61 L27.2,61 C27.7522847,61 28.2,61.4477153 28.2,62 C28.2,62.5522847 27.7522847,63 27.2,63 L18,63 C17.4477153,63 17,62.5522847 17,62 C17,61.4477153 17.4477153,61 18,61 Z M18,55 L34,55 C34.5522847,55 35,55.4477153 35,56 C35,56.5522847 34.5522847,57 34,57 L18,57 C17.4477153,57 17,56.5522847 17,56 C17,55.4477153 17.4477153,55 18,55 Z"/></g></g><text x="0" y="29" fill="#000000" font-size="5px" font-weight="bold" font-family="'Helvetica Neue', Helvetica, Arial-Unicode, Arial, Sans-serif">Created by Naresh Karoo</text><text x="0" y="34" fill="#000000" font-size="5px" font-weight="bold" font-family="'Helvetica Neue', Helvetica, Arial-Unicode, Arial, Sans-serif">from the Noun Project</text></svg>