<?xml version="1.0" encoding="UTF-8" standalone="no"?>
<!DOCTYPE svg PUBLIC "-//W3C//DTD SVG 1.1//EN"
 "http://www.w3.org/Graphics/SVG/1.1/DTD/svg11.dtd">
<!-- Generated by graphviz version 2.40.1 (20161225.0304)
 -->
<!-- Title: dependencies Pages: 1 -->
<svg width="3786pt" height="276pt"
 viewBox="0.00 0.00 3786.00 276.00" xmlns="http://www.w3.org/2000/svg" xmlns:xlink="http://www.w3.org/1999/xlink">
<g id="graph0" class="graph" transform="scale(1 1) rotate(0) translate(4 272)">
<title>dependencies</title>
<polygon fill="#ffffff" stroke="transparent" points="-4,4 -4,-272 3782,-272 3782,4 -4,4"/>
<text text-anchor="start" x="1868.0091" y="-42.4" font-family="sans-serif" font-weight="bold" font-size="14.00" fill="#000000">Legend</text>
<polygon fill="#ffffb3" stroke="transparent" points="1655,-10 1655,-30 1675,-30 1675,-10 1655,-10"/>
<text text-anchor="start" x="1678.629" y="-15.4" font-family="sans-serif" font-size="14.00" fill="#000000"> &#160;Declarations</text>
<polygon fill="#8dd3c7" stroke="transparent" points="1768,-10 1768,-30 1788,-30 1788,-10 1768,-10"/>
<text text-anchor="start" x="1791.7251" y="-15.4" font-family="sans-serif" font-size="14.00" fill="#000000"> &#160;Module</text>
<polygon fill="#80b1d3" stroke="transparent" points="1854,-10 1854,-30 1874,-30 1874,-10 1854,-10"/>
<text text-anchor="start" x="1877.7812" y="-15.4" font-family="sans-serif" font-size="14.00" fill="#000000"> &#160;Bootstrap</text>
<polygon fill="#fdb462" stroke="transparent" points="1951,-10 1951,-30 1971,-30 1971,-10 1951,-10"/>
<text text-anchor="start" x="1974.6732" y="-15.4" font-family="sans-serif" font-size="14.00" fill="#000000"> &#160;Providers</text>
<polygon fill="#fb8072" stroke="transparent" points="2047,-10 2047,-30 2067,-30 2067,-10 2047,-10"/>
<text text-anchor="start" x="2070.7258" y="-15.4" font-family="sans-serif" font-size="14.00" fill="#000000"> &#160;Exports</text>
<g id="clust1" class="cluster">
<title>cluster_PublicHolidaySetupModule</title>
<polygon fill="none" stroke="#000000" stroke-dasharray="1,5" points="8,-70 8,-260 3770,-260 3770,-70 8,-70"/>
</g>
<g id="clust2" class="cluster">
<title>cluster_PublicHolidaySetupModule_declarations</title>
<polygon fill="none" stroke="#000000" points="3134,-143 3134,-195 3762,-195 3762,-143 3134,-143"/>
</g>
<g id="clust3" class="cluster">
<title>cluster_PublicHolidaySetupModule_ManageHolidayPage_providers</title>
<polygon fill="none" stroke="#000000" points="3614,-78 3614,-130 3760,-130 3760,-78 3614,-78"/>
</g>
<g id="clust5" class="cluster">
<title>cluster_PublicHolidaySetupModule_AssignCalendarPage_providers</title>
<polygon fill="none" stroke="#000000" points="3280,-78 3280,-130 3498,-130 3498,-78 3280,-78"/>
</g>
<g id="clust7" class="cluster">
<title>cluster_PublicHolidaySetupModule_imports</title>
<polygon fill="none" stroke="#000000" points="16,-143 16,-195 3126,-195 3126,-143 16,-143"/>
</g>
<!-- ManageHolidayPage -->
<g id="node1" class="node">
<title>ManageHolidayPage</title>
<polygon fill="#ffffb3" stroke="#000000" points="3753.9032,-187 3620.0968,-187 3620.0968,-151 3753.9032,-151 3753.9032,-187"/>
<text text-anchor="middle" x="3687" y="-164.8" font-family="Times,serif" font-size="14.00" fill="#000000">ManageHolidayPage</text>
</g>
<!-- PublicHolidaySetupModule -->
<g id="node5" class="node">
<title>PublicHolidaySetupModule</title>
<polygon fill="#8dd3c7" stroke="#000000" points="2019.3187,-252 2016.3187,-256 1995.3187,-256 1992.3187,-252 1846.6813,-252 1846.6813,-216 2019.3187,-216 2019.3187,-252"/>
<text text-anchor="middle" x="1933" y="-229.8" font-family="Times,serif" font-size="14.00" fill="#000000">PublicHolidaySetupModule</text>
</g>
<!-- ManageHolidayPage&#45;&gt;PublicHolidaySetupModule -->
<g id="edge1" class="edge">
<title>ManageHolidayPage&#45;&gt;PublicHolidaySetupModule</title>
<path fill="none" stroke="#000000" d="M3687,-187.3802C3687,-211.2785 3687,-250 3687,-250 3687,-250 2029.3829,-250 2029.3829,-250"/>
<polygon fill="#000000" stroke="#000000" points="2029.3829,-246.5001 2019.3829,-250 2029.3828,-253.5001 2029.3829,-246.5001"/>
</g>
<!-- PublicHolidaySetup -->
<g id="node2" class="node">
<title>PublicHolidaySetup</title>
<polygon fill="#ffffb3" stroke="#000000" points="3602.2688,-187 3473.7312,-187 3473.7312,-151 3602.2688,-151 3602.2688,-187"/>
<text text-anchor="middle" x="3538" y="-164.8" font-family="Times,serif" font-size="14.00" fill="#000000">PublicHolidaySetup</text>
</g>
<!-- PublicHolidaySetup&#45;&gt;PublicHolidaySetupModule -->
<g id="edge3" class="edge">
<title>PublicHolidaySetup&#45;&gt;PublicHolidaySetupModule</title>
<path fill="none" stroke="#000000" d="M3538,-187.0908C3538,-210.1328 3538,-247 3538,-247 3538,-247 2029.2918,-247 2029.2918,-247"/>
<polygon fill="#000000" stroke="#000000" points="2029.2918,-243.5001 2019.2918,-247 2029.2917,-250.5001 2029.2918,-243.5001"/>
</g>
<!-- AssignCalendarPage -->
<g id="node3" class="node">
<title>AssignCalendarPage</title>
<polygon fill="#ffffb3" stroke="#000000" points="3455.1303,-187 3322.8697,-187 3322.8697,-151 3455.1303,-151 3455.1303,-187"/>
<text text-anchor="middle" x="3389" y="-164.8" font-family="Times,serif" font-size="14.00" fill="#000000">AssignCalendarPage</text>
</g>
<!-- AssignCalendarPage&#45;&gt;PublicHolidaySetupModule -->
<g id="edge4" class="edge">
<title>AssignCalendarPage&#45;&gt;PublicHolidaySetupModule</title>
<path fill="none" stroke="#000000" d="M3389,-187.1554C3389,-209.3519 3389,-244 3389,-244 3389,-244 2029.1806,-244 2029.1806,-244"/>
<polygon fill="#000000" stroke="#000000" points="2029.1807,-240.5001 2019.1806,-244 2029.1806,-247.5001 2029.1807,-240.5001"/>
</g>
<!-- SnackbarNotificationPage -->
<g id="node4" class="node">
<title>SnackbarNotificationPage</title>
<polygon fill="#ffffb3" stroke="#000000" points="3304.4482,-187 3141.5518,-187 3141.5518,-151 3304.4482,-151 3304.4482,-187"/>
<text text-anchor="middle" x="3223" y="-164.8" font-family="Times,serif" font-size="14.00" fill="#000000">SnackbarNotificationPage</text>
</g>
<!-- SnackbarNotificationPage&#45;&gt;PublicHolidaySetupModule -->
<g id="edge6" class="edge">
<title>SnackbarNotificationPage&#45;&gt;PublicHolidaySetupModule</title>
<path fill="none" stroke="#000000" d="M3223,-187.1686C3223,-208.498 3223,-241 3223,-241 3223,-241 2029.3921,-241 2029.3921,-241"/>
<polygon fill="#000000" stroke="#000000" points="2029.3922,-237.5001 2019.3921,-241 2029.3921,-244.5001 2029.3922,-237.5001"/>
</g>
<!-- TitleCasePipe -->
<g id="node6" class="node">
<title>TitleCasePipe</title>
<ellipse fill="#fdb462" stroke="#000000" cx="3687" cy="-104" rx="65.4208" ry="18"/>
<text text-anchor="middle" x="3687" y="-99.8" font-family="Times,serif" font-size="14.00" fill="#000000">TitleCasePipe</text>
</g>
<!-- TitleCasePipe&#45;&gt;ManageHolidayPage -->
<g id="edge2" class="edge">
<title>TitleCasePipe&#45;&gt;ManageHolidayPage</title>
<path fill="none" stroke="#000000" d="M3687,-122.1061C3687,-122.1061 3687,-140.991 3687,-140.991"/>
<polygon fill="#000000" stroke="#000000" points="3683.5001,-140.9909 3687,-150.991 3690.5001,-140.991 3683.5001,-140.9909"/>
</g>
<!-- EmployeeListDatabase -->
<g id="node7" class="node">
<title>EmployeeListDatabase</title>
<ellipse fill="#fdb462" stroke="#000000" cx="3389" cy="-104" rx="100.6978" ry="18"/>
<text text-anchor="middle" x="3389" y="-99.8" font-family="Times,serif" font-size="14.00" fill="#000000">EmployeeListDatabase</text>
</g>
<!-- EmployeeListDatabase&#45;&gt;AssignCalendarPage -->
<g id="edge5" class="edge">
<title>EmployeeListDatabase&#45;&gt;AssignCalendarPage</title>
<path fill="none" stroke="#000000" d="M3389,-122.1061C3389,-122.1061 3389,-140.991 3389,-140.991"/>
<polygon fill="#000000" stroke="#000000" points="3385.5001,-140.9909 3389,-150.991 3392.5001,-140.991 3385.5001,-140.9909"/>
</g>
<!-- CommonModule -->
<g id="node8" class="node">
<title>CommonModule</title>
<polygon fill="#8dd3c7" stroke="#000000" points="3117.6681,-187 3114.6681,-191 3093.6681,-191 3090.6681,-187 3006.3319,-187 3006.3319,-151 3117.6681,-151 3117.6681,-187"/>
<text text-anchor="middle" x="3062" y="-164.8" font-family="Times,serif" font-size="14.00" fill="#000000">CommonModule</text>
</g>
<!-- CommonModule&#45;&gt;PublicHolidaySetupModule -->
<g id="edge7" class="edge">
<title>CommonModule&#45;&gt;PublicHolidaySetupModule</title>
<path fill="none" stroke="#000000" d="M3062,-187.0267C3062,-207.7672 3062,-239 3062,-239 3062,-239 2029.2501,-239 2029.2501,-239"/>
<polygon fill="#000000" stroke="#000000" points="2029.2501,-235.5001 2019.2501,-239 2029.2501,-242.5001 2029.2501,-235.5001"/>
</g>
<!-- FormsModule -->
<g id="node9" class="node">
<title>FormsModule</title>
<polygon fill="#8dd3c7" stroke="#000000" points="2988.8288,-187 2985.8288,-191 2964.8288,-191 2961.8288,-187 2893.1712,-187 2893.1712,-151 2988.8288,-151 2988.8288,-187"/>
<text text-anchor="middle" x="2941" y="-164.8" font-family="Times,serif" font-size="14.00" fill="#000000">FormsModule</text>
</g>
<!-- FormsModule&#45;&gt;PublicHolidaySetupModule -->
<g id="edge8" class="edge">
<title>FormsModule&#45;&gt;PublicHolidaySetupModule</title>
<path fill="none" stroke="#000000" d="M2941,-187.308C2941,-207.1455 2941,-236 2941,-236 2941,-236 2029.3773,-236 2029.3773,-236"/>
<polygon fill="#000000" stroke="#000000" points="2029.3773,-232.5001 2019.3773,-236 2029.3772,-239.5001 2029.3773,-232.5001"/>
</g>
<!-- IonicModule -->
<g id="node10" class="node">
<title>IonicModule</title>
<polygon fill="#8dd3c7" stroke="#000000" points="2875.3162,-187 2872.3162,-191 2851.3162,-191 2848.3162,-187 2786.6838,-187 2786.6838,-151 2875.3162,-151 2875.3162,-187"/>
<text text-anchor="middle" x="2831" y="-164.8" font-family="Times,serif" font-size="14.00" fill="#000000">IonicModule</text>
</g>
<!-- IonicModule&#45;&gt;PublicHolidaySetupModule -->
<g id="edge9" class="edge">
<title>IonicModule&#45;&gt;PublicHolidaySetupModule</title>
<path fill="none" stroke="#000000" d="M2831,-187.1686C2831,-206.0898 2831,-233 2831,-233 2831,-233 2029.5116,-233 2029.5116,-233"/>
<polygon fill="#000000" stroke="#000000" points="2029.5116,-229.5001 2019.5116,-233 2029.5116,-236.5001 2029.5116,-229.5001"/>
</g>
<!-- MatPaginatorModule -->
<g id="node11" class="node">
<title>MatPaginatorModule</title>
<polygon fill="#8dd3c7" stroke="#000000" points="2768.7534,-187 2765.7534,-191 2744.7534,-191 2741.7534,-187 2633.2466,-187 2633.2466,-151 2768.7534,-151 2768.7534,-187"/>
<text text-anchor="middle" x="2701" y="-164.8" font-family="Times,serif" font-size="14.00" fill="#000000">MatPaginatorModule</text>
</g>
<!-- MatPaginatorModule&#45;&gt;PublicHolidaySetupModule -->
<g id="edge10" class="edge">
<title>MatPaginatorModule&#45;&gt;PublicHolidaySetupModule</title>
<path fill="none" stroke="#000000" d="M2701,-187.302C2701,-205.2699 2701,-230 2701,-230 2701,-230 2029.2348,-230 2029.2348,-230"/>
<polygon fill="#000000" stroke="#000000" points="2029.2349,-226.5001 2019.2348,-230 2029.2348,-233.5001 2029.2349,-226.5001"/>
</g>
<!-- MatInputModule -->
<g id="node12" class="node">
<title>MatInputModule</title>
<polygon fill="#8dd3c7" stroke="#000000" points="2614.6513,-187 2611.6513,-191 2590.6513,-191 2587.6513,-187 2503.3487,-187 2503.3487,-151 2614.6513,-151 2614.6513,-187"/>
<text text-anchor="middle" x="2559" y="-164.8" font-family="Times,serif" font-size="14.00" fill="#000000">MatInputModule</text>
</g>
<!-- MatInputModule&#45;&gt;PublicHolidaySetupModule -->
<g id="edge11" class="edge">
<title>MatInputModule&#45;&gt;PublicHolidaySetupModule</title>
<path fill="none" stroke="#000000" d="M2559,-187.0225C2559,-204.3734 2559,-228 2559,-228 2559,-228 2029.3854,-228 2029.3854,-228"/>
<polygon fill="#000000" stroke="#000000" points="2029.3854,-224.5001 2019.3854,-228 2029.3853,-231.5001 2029.3854,-224.5001"/>
</g>
<!-- MatSelectModule -->
<g id="node13" class="node">
<title>MatSelectModule</title>
<polygon fill="#8dd3c7" stroke="#000000" points="2485.3076,-187 2482.3076,-191 2461.3076,-191 2458.3076,-187 2368.6924,-187 2368.6924,-151 2485.3076,-151 2485.3076,-187"/>
<text text-anchor="middle" x="2427" y="-164.8" font-family="Times,serif" font-size="14.00" fill="#000000">MatSelectModule</text>
</g>
<!-- MatSelectModule&#45;&gt;PublicHolidaySetupModule -->
<g id="edge12" class="edge">
<title>MatSelectModule&#45;&gt;PublicHolidaySetupModule</title>
<path fill="none" stroke="#000000" d="M2427,-187.027C2427,-203.3976 2427,-225 2427,-225 2427,-225 2029.3307,-225 2029.3307,-225"/>
<polygon fill="#000000" stroke="#000000" points="2029.3307,-221.5001 2019.3307,-225 2029.3307,-228.5001 2029.3307,-221.5001"/>
</g>
<!-- MatFormFieldModule -->
<g id="node14" class="node">
<title>MatFormFieldModule</title>
<polygon fill="#8dd3c7" stroke="#000000" points="2350.712,-187 2347.712,-191 2326.712,-191 2323.712,-187 2209.288,-187 2209.288,-151 2350.712,-151 2350.712,-187"/>
<text text-anchor="middle" x="2280" y="-164.8" font-family="Times,serif" font-size="14.00" fill="#000000">MatFormFieldModule</text>
</g>
<!-- MatFormFieldModule&#45;&gt;PublicHolidaySetupModule -->
<g id="edge13" class="edge">
<title>MatFormFieldModule&#45;&gt;PublicHolidaySetupModule</title>
<path fill="none" stroke="#000000" d="M2280,-187.2396C2280,-202.5706 2280,-222 2280,-222 2280,-222 2029.2211,-222 2029.2211,-222"/>
<polygon fill="#000000" stroke="#000000" points="2029.2212,-218.5001 2019.2211,-222 2029.2211,-225.5001 2029.2212,-218.5001"/>
</g>
<!-- MatIconModule -->
<g id="node15" class="node">
<title>MatIconModule</title>
<polygon fill="#8dd3c7" stroke="#000000" points="2191.4748,-187 2188.4748,-191 2167.4748,-191 2164.4748,-187 2084.5252,-187 2084.5252,-151 2191.4748,-151 2191.4748,-187"/>
<text text-anchor="middle" x="2138" y="-164.8" font-family="Times,serif" font-size="14.00" fill="#000000">MatIconModule</text>
</g>
<!-- MatIconModule&#45;&gt;PublicHolidaySetupModule -->
<g id="edge14" class="edge">
<title>MatIconModule&#45;&gt;PublicHolidaySetupModule</title>
<path fill="none" stroke="#000000" d="M2138,-187.0511C2138,-201.373 2138,-219 2138,-219 2138,-219 2029.3443,-219 2029.3443,-219"/>
<polygon fill="#000000" stroke="#000000" points="2029.3443,-215.5001 2019.3443,-219 2029.3443,-222.5001 2029.3443,-215.5001"/>
</g>
<!-- MatGridListModule -->
<g id="node16" class="node">
<title>MatGridListModule</title>
<polygon fill="#8dd3c7" stroke="#000000" points="2066.5366,-187 2063.5366,-191 2042.5366,-191 2039.5366,-187 1937.4634,-187 1937.4634,-151 2066.5366,-151 2066.5366,-187"/>
<text text-anchor="middle" x="2002" y="-164.8" font-family="Times,serif" font-size="14.00" fill="#000000">MatGridListModule</text>
</g>
<!-- MatGridListModule&#45;&gt;PublicHolidaySetupModule -->
<g id="edge15" class="edge">
<title>MatGridListModule&#45;&gt;PublicHolidaySetupModule</title>
<path fill="none" stroke="#000000" d="M1978.1957,-187.1061C1978.1957,-187.1061 1978.1957,-205.991 1978.1957,-205.991"/>
<polygon fill="#000000" stroke="#000000" points="1974.6957,-205.9909 1978.1957,-215.991 1981.6957,-205.991 1974.6957,-205.9909"/>
</g>
<!-- MatCardModule -->
<g id="node17" class="node">
<title>MatCardModule</title>
<polygon fill="#8dd3c7" stroke="#000000" points="1919.8118,-187 1916.8118,-191 1895.8118,-191 1892.8118,-187 1810.1882,-187 1810.1882,-151 1919.8118,-151 1919.8118,-187"/>
<text text-anchor="middle" x="1865" y="-164.8" font-family="Times,serif" font-size="14.00" fill="#000000">MatCardModule</text>
</g>
<!-- MatCardModule&#45;&gt;PublicHolidaySetupModule -->
<g id="edge16" class="edge">
<title>MatCardModule&#45;&gt;PublicHolidaySetupModule</title>
<path fill="none" stroke="#000000" d="M1883.2483,-187.1061C1883.2483,-187.1061 1883.2483,-205.991 1883.2483,-205.991"/>
<polygon fill="#000000" stroke="#000000" points="1879.7483,-205.9909 1883.2483,-215.991 1886.7483,-205.991 1879.7483,-205.9909"/>
</g>
<!-- MatTabsModule -->
<g id="node18" class="node">
<title>MatTabsModule</title>
<polygon fill="#8dd3c7" stroke="#000000" points="1792.8118,-187 1789.8118,-191 1768.8118,-191 1765.8118,-187 1683.1882,-187 1683.1882,-151 1792.8118,-151 1792.8118,-187"/>
<text text-anchor="middle" x="1738" y="-164.8" font-family="Times,serif" font-size="14.00" fill="#000000">MatTabsModule</text>
</g>
<!-- MatTabsModule&#45;&gt;PublicHolidaySetupModule -->
<g id="edge17" class="edge">
<title>MatTabsModule&#45;&gt;PublicHolidaySetupModule</title>
<path fill="none" stroke="#000000" d="M1738,-187.0511C1738,-201.373 1738,-219 1738,-219 1738,-219 1836.6186,-219 1836.6186,-219"/>
<polygon fill="#000000" stroke="#000000" points="1836.6186,-222.5001 1846.6186,-219 1836.6186,-215.5001 1836.6186,-222.5001"/>
</g>
<!-- InlineSVGModule -->
<g id="node19" class="node">
<title>InlineSVGModule</title>
<polygon fill="#8dd3c7" stroke="#000000" points="1665.2022,-187 1662.2022,-191 1641.2022,-191 1638.2022,-187 1544.7978,-187 1544.7978,-151 1665.2022,-151 1665.2022,-187"/>
<text text-anchor="middle" x="1605" y="-164.8" font-family="Times,serif" font-size="14.00" fill="#000000">InlineSVGModule</text>
</g>
<!-- InlineSVGModule&#45;&gt;PublicHolidaySetupModule -->
<g id="edge18" class="edge">
<title>InlineSVGModule&#45;&gt;PublicHolidaySetupModule</title>
<path fill="none" stroke="#000000" d="M1605,-187.2396C1605,-202.5706 1605,-222 1605,-222 1605,-222 1836.8219,-222 1836.8219,-222"/>
<polygon fill="#000000" stroke="#000000" points="1836.8219,-225.5001 1846.8219,-222 1836.8218,-218.5001 1836.8219,-225.5001"/>
</g>
<!-- FullCalendarModule -->
<g id="node20" class="node">
<title>FullCalendarModule</title>
<polygon fill="#8dd3c7" stroke="#000000" points="1527.1457,-187 1524.1457,-191 1503.1457,-191 1500.1457,-187 1394.8543,-187 1394.8543,-151 1527.1457,-151 1527.1457,-187"/>
<text text-anchor="middle" x="1461" y="-164.8" font-family="Times,serif" font-size="14.00" fill="#000000">FullCalendarModule</text>
</g>
<!-- FullCalendarModule&#45;&gt;PublicHolidaySetupModule -->
<g id="edge19" class="edge">
<title>FullCalendarModule&#45;&gt;PublicHolidaySetupModule</title>
<path fill="none" stroke="#000000" d="M1461,-187.027C1461,-203.3976 1461,-225 1461,-225 1461,-225 1836.7025,-225 1836.7025,-225"/>
<polygon fill="#000000" stroke="#000000" points="1836.7025,-228.5001 1846.7025,-225 1836.7025,-221.5001 1836.7025,-228.5001"/>
</g>
<!-- SpinnerModule -->
<g id="node21" class="node">
<title>SpinnerModule</title>
<polygon fill="#8dd3c7" stroke="#000000" points="1376.5982,-187 1373.5982,-191 1352.5982,-191 1349.5982,-187 1273.4018,-187 1273.4018,-151 1376.5982,-151 1376.5982,-187"/>
<text text-anchor="middle" x="1325" y="-164.8" font-family="Times,serif" font-size="14.00" fill="#000000">SpinnerModule</text>
</g>
<!-- SpinnerModule&#45;&gt;PublicHolidaySetupModule -->
<g id="edge20" class="edge">
<title>SpinnerModule&#45;&gt;PublicHolidaySetupModule</title>
<path fill="none" stroke="#000000" d="M1325,-187.0225C1325,-204.3734 1325,-228 1325,-228 1325,-228 1836.5341,-228 1836.5341,-228"/>
<polygon fill="#000000" stroke="#000000" points="1836.5342,-231.5001 1846.5341,-228 1836.5341,-224.5001 1836.5342,-231.5001"/>
</g>
<!-- MatDatepickerModule -->
<g id="node22" class="node">
<title>MatDatepickerModule</title>
<polygon fill="#8dd3c7" stroke="#000000" points="1255.5072,-187 1252.5072,-191 1231.5072,-191 1228.5072,-187 1112.4928,-187 1112.4928,-151 1255.5072,-151 1255.5072,-187"/>
<text text-anchor="middle" x="1184" y="-164.8" font-family="Times,serif" font-size="14.00" fill="#000000">MatDatepickerModule</text>
</g>
<!-- MatDatepickerModule&#45;&gt;PublicHolidaySetupModule -->
<g id="edge21" class="edge">
<title>MatDatepickerModule&#45;&gt;PublicHolidaySetupModule</title>
<path fill="none" stroke="#000000" d="M1184,-187.302C1184,-205.2699 1184,-230 1184,-230 1184,-230 1836.7146,-230 1836.7146,-230"/>
<polygon fill="#000000" stroke="#000000" points="1836.7147,-233.5001 1846.7146,-230 1836.7146,-226.5001 1836.7147,-233.5001"/>
</g>
<!-- ReactiveFormsModule -->
<g id="node23" class="node">
<title>ReactiveFormsModule</title>
<polygon fill="#8dd3c7" stroke="#000000" points="1094.3047,-187 1091.3047,-191 1070.3047,-191 1067.3047,-187 949.6953,-187 949.6953,-151 1094.3047,-151 1094.3047,-187"/>
<text text-anchor="middle" x="1022" y="-164.8" font-family="Times,serif" font-size="14.00" fill="#000000">ReactiveFormsModule</text>
</g>
<!-- ReactiveFormsModule&#45;&gt;PublicHolidaySetupModule -->
<g id="edge22" class="edge">
<title>ReactiveFormsModule&#45;&gt;PublicHolidaySetupModule</title>
<path fill="none" stroke="#000000" d="M1022,-187.1686C1022,-206.0898 1022,-233 1022,-233 1022,-233 1836.474,-233 1836.474,-233"/>
<polygon fill="#000000" stroke="#000000" points="1836.4741,-236.5001 1846.474,-233 1836.474,-229.5001 1836.4741,-236.5001"/>
</g>
<!-- MatSnackBarModule -->
<g id="node24" class="node">
<title>MatSnackBarModule</title>
<polygon fill="#8dd3c7" stroke="#000000" points="932.024,-187 929.024,-191 908.024,-191 905.024,-187 795.976,-187 795.976,-151 932.024,-151 932.024,-187"/>
<text text-anchor="middle" x="864" y="-164.8" font-family="Times,serif" font-size="14.00" fill="#000000">MatSnackBarModule</text>
</g>
<!-- MatSnackBarModule&#45;&gt;PublicHolidaySetupModule -->
<g id="edge23" class="edge">
<title>MatSnackBarModule&#45;&gt;PublicHolidaySetupModule</title>
<path fill="none" stroke="#000000" d="M864,-187.308C864,-207.1455 864,-236 864,-236 864,-236 1836.4248,-236 1836.4248,-236"/>
<polygon fill="#000000" stroke="#000000" points="1836.4248,-239.5001 1846.4248,-236 1836.4247,-232.5001 1836.4248,-239.5001"/>
</g>
<!-- MatTreeModule -->
<g id="node25" class="node">
<title>MatTreeModule</title>
<polygon fill="#8dd3c7" stroke="#000000" points="777.7423,-187 774.7423,-191 753.7423,-191 750.7423,-187 670.2577,-187 670.2577,-151 777.7423,-151 777.7423,-187"/>
<text text-anchor="middle" x="724" y="-164.8" font-family="Times,serif" font-size="14.00" fill="#000000">MatTreeModule</text>
</g>
<!-- MatTreeModule&#45;&gt;PublicHolidaySetupModule -->
<g id="edge24" class="edge">
<title>MatTreeModule&#45;&gt;PublicHolidaySetupModule</title>
<path fill="none" stroke="#000000" d="M724,-187.0267C724,-207.7672 724,-239 724,-239 724,-239 1836.5369,-239 1836.5369,-239"/>
<polygon fill="#000000" stroke="#000000" points="1836.5369,-242.5001 1846.5369,-239 1836.5369,-235.5001 1836.5369,-242.5001"/>
</g>
<!-- MatCheckboxModule -->
<g id="node26" class="node">
<title>MatCheckboxModule</title>
<polygon fill="#8dd3c7" stroke="#000000" points="652.3655,-187 649.3655,-191 628.3655,-191 625.3655,-187 513.6345,-187 513.6345,-151 652.3655,-151 652.3655,-187"/>
<text text-anchor="middle" x="583" y="-164.8" font-family="Times,serif" font-size="14.00" fill="#000000">MatCheckboxModule</text>
</g>
<!-- MatCheckboxModule&#45;&gt;PublicHolidaySetupModule -->
<g id="edge25" class="edge">
<title>MatCheckboxModule&#45;&gt;PublicHolidaySetupModule</title>
<path fill="none" stroke="#000000" d="M583,-187.1686C583,-208.498 583,-241 583,-241 583,-241 1836.7557,-241 1836.7557,-241"/>
<polygon fill="#000000" stroke="#000000" points="1836.7557,-244.5001 1846.7557,-241 1836.7556,-237.5001 1836.7557,-244.5001"/>
</g>
<!-- MatButtonModule -->
<g id="node27" class="node">
<title>MatButtonModule</title>
<polygon fill="#8dd3c7" stroke="#000000" points="495.2176,-187 492.2176,-191 471.2176,-191 468.2176,-187 374.7824,-187 374.7824,-151 495.2176,-151 495.2176,-187"/>
<text text-anchor="middle" x="435" y="-164.8" font-family="Times,serif" font-size="14.00" fill="#000000">MatButtonModule</text>
</g>
<!-- MatButtonModule&#45;&gt;PublicHolidaySetupModule -->
<g id="edge26" class="edge">
<title>MatButtonModule&#45;&gt;PublicHolidaySetupModule</title>
<path fill="none" stroke="#000000" d="M435,-187.1554C435,-209.3519 435,-244 435,-244 435,-244 1836.8076,-244 1836.8076,-244"/>
<polygon fill="#000000" stroke="#000000" points="1836.8077,-247.5001 1846.8076,-244 1836.8076,-240.5001 1836.8077,-247.5001"/>
</g>
<!-- ClickOutsideModule -->
<g id="node28" class="node">
<title>ClickOutsideModule</title>
<polygon fill="#8dd3c7" stroke="#000000" points="356.9299,-187 353.9299,-191 332.9299,-191 329.9299,-187 223.0701,-187 223.0701,-151 356.9299,-151 356.9299,-187"/>
<text text-anchor="middle" x="290" y="-164.8" font-family="Times,serif" font-size="14.00" fill="#000000">ClickOutsideModule</text>
</g>
<!-- ClickOutsideModule&#45;&gt;PublicHolidaySetupModule -->
<g id="edge27" class="edge">
<title>ClickOutsideModule&#45;&gt;PublicHolidaySetupModule</title>
<path fill="none" stroke="#000000" d="M290,-187.0908C290,-210.1328 290,-247 290,-247 290,-247 1836.6908,-247 1836.6908,-247"/>
<polygon fill="#000000" stroke="#000000" points="1836.6908,-250.5001 1846.6908,-247 1836.6908,-243.5001 1836.6908,-250.5001"/>
</g>
<!-- RouterModule.forChild(args) -->
<g id="node29" class="node">
<title>RouterModule.forChild(args)</title>
<polygon fill="#8dd3c7" stroke="#000000" points="205.7323,-187 202.7323,-191 181.7323,-191 178.7323,-187 24.2677,-187 24.2677,-151 205.7323,-151 205.7323,-187"/>
<text text-anchor="middle" x="115" y="-164.8" font-family="Times,serif" font-size="14.00" fill="#000000">RouterModule.forChild(args)</text>
</g>
<!-- RouterModule.forChild(args)&#45;&gt;PublicHolidaySetupModule -->
<g id="edge28" class="edge">
<title>RouterModule.forChild(args)&#45;&gt;PublicHolidaySetupModule</title>
<path fill="none" stroke="#000000" d="M115,-187.3802C115,-211.2785 115,-250 115,-250 115,-250 1836.5371,-250 1836.5371,-250"/>
<polygon fill="#000000" stroke="#000000" points="1836.5372,-253.5001 1846.5371,-250 1836.5371,-246.5001 1836.5372,-253.5001"/>
</g>
</g>
</svg>
