<?xml version="1.0" encoding="UTF-8" standalone="no"?>
<!DOCTYPE svg PUBLIC "-//W3C//DTD SVG 1.1//EN"
 "http://www.w3.org/Graphics/SVG/1.1/DTD/svg11.dtd">
<!-- Generated by graphviz version 2.40.1 (20161225.0304)
 -->
<!-- Title: dependencies Pages: 1 -->
<svg width="3214pt" height="276pt"
 viewBox="0.00 0.00 3214.00 276.00" xmlns="http://www.w3.org/2000/svg" xmlns:xlink="http://www.w3.org/1999/xlink">
<g id="graph0" class="graph" transform="scale(1 1) rotate(0) translate(4 272)">
<title>dependencies</title>
<polygon fill="#ffffff" stroke="transparent" points="-4,4 -4,-272 3210,-272 3210,4 -4,4"/>
<text text-anchor="start" x="1582.0091" y="-42.4" font-family="sans-serif" font-weight="bold" font-size="14.00" fill="#000000">Legend</text>
<polygon fill="#ffffb3" stroke="transparent" points="1369,-10 1369,-30 1389,-30 1389,-10 1369,-10"/>
<text text-anchor="start" x="1392.629" y="-15.4" font-family="sans-serif" font-size="14.00" fill="#000000"> &#160;Declarations</text>
<polygon fill="#8dd3c7" stroke="transparent" points="1482,-10 1482,-30 1502,-30 1502,-10 1482,-10"/>
<text text-anchor="start" x="1505.7251" y="-15.4" font-family="sans-serif" font-size="14.00" fill="#000000"> &#160;Module</text>
<polygon fill="#80b1d3" stroke="transparent" points="1568,-10 1568,-30 1588,-30 1588,-10 1568,-10"/>
<text text-anchor="start" x="1591.7812" y="-15.4" font-family="sans-serif" font-size="14.00" fill="#000000"> &#160;Bootstrap</text>
<polygon fill="#fdb462" stroke="transparent" points="1665,-10 1665,-30 1685,-30 1685,-10 1665,-10"/>
<text text-anchor="start" x="1688.6732" y="-15.4" font-family="sans-serif" font-size="14.00" fill="#000000"> &#160;Providers</text>
<polygon fill="#fb8072" stroke="transparent" points="1761,-10 1761,-30 1781,-30 1781,-10 1761,-10"/>
<text text-anchor="start" x="1784.7258" y="-15.4" font-family="sans-serif" font-size="14.00" fill="#000000"> &#160;Exports</text>
<g id="clust1" class="cluster">
<title>cluster_PublicHolidaySetupModule</title>
<polygon fill="none" stroke="#000000" stroke-dasharray="1,5" points="8,-70 8,-260 3198,-260 3198,-70 8,-70"/>
</g>
<g id="clust2" class="cluster">
<title>cluster_PublicHolidaySetupModule_declarations</title>
<polygon fill="none" stroke="#000000" points="2562,-143 2562,-195 3190,-195 3190,-143 2562,-143"/>
</g>
<g id="clust3" class="cluster">
<title>cluster_PublicHolidaySetupModule_ManageHolidayPage_providers</title>
<polygon fill="none" stroke="#000000" points="3042,-78 3042,-130 3188,-130 3188,-78 3042,-78"/>
</g>
<g id="clust7" class="cluster">
<title>cluster_PublicHolidaySetupModule_imports</title>
<polygon fill="none" stroke="#000000" points="16,-143 16,-195 2554,-195 2554,-143 16,-143"/>
</g>
<!-- ManageHolidayPage -->
<g id="node1" class="node">
<title>ManageHolidayPage</title>
<polygon fill="#ffffb3" stroke="#000000" points="3181.9032,-187 3048.0968,-187 3048.0968,-151 3181.9032,-151 3181.9032,-187"/>
<text text-anchor="middle" x="3115" y="-164.8" font-family="Times,serif" font-size="14.00" fill="#000000">ManageHolidayPage</text>
</g>
<!-- PublicHolidaySetupModule -->
<g id="node5" class="node">
<title>PublicHolidaySetupModule</title>
<polygon fill="#8dd3c7" stroke="#000000" points="1723.3187,-252 1720.3187,-256 1699.3187,-256 1696.3187,-252 1550.6813,-252 1550.6813,-216 1723.3187,-216 1723.3187,-252"/>
<text text-anchor="middle" x="1637" y="-229.8" font-family="Times,serif" font-size="14.00" fill="#000000">PublicHolidaySetupModule</text>
</g>
<!-- ManageHolidayPage&#45;&gt;PublicHolidaySetupModule -->
<g id="edge1" class="edge">
<title>ManageHolidayPage&#45;&gt;PublicHolidaySetupModule</title>
<path fill="none" stroke="#000000" d="M3115,-187.1532C3115,-210.7566 3115,-249 3115,-249 3115,-249 1733.3941,-249 1733.3941,-249"/>
<polygon fill="#000000" stroke="#000000" points="1733.3941,-245.5001 1723.3941,-249 1733.3941,-252.5001 1733.3941,-245.5001"/>
</g>
<!-- PublicHolidaySetup -->
<g id="node2" class="node">
<title>PublicHolidaySetup</title>
<polygon fill="#ffffb3" stroke="#000000" points="3030.2688,-187 2901.7312,-187 2901.7312,-151 3030.2688,-151 3030.2688,-187"/>
<text text-anchor="middle" x="2966" y="-164.8" font-family="Times,serif" font-size="14.00" fill="#000000">PublicHolidaySetup</text>
</g>
<!-- PublicHolidaySetup&#45;&gt;PublicHolidaySetupModule -->
<g id="edge3" class="edge">
<title>PublicHolidaySetup&#45;&gt;PublicHolidaySetupModule</title>
<path fill="none" stroke="#000000" d="M2966,-187.2479C2966,-210.0179 2966,-246 2966,-246 2966,-246 1733.1754,-246 1733.1754,-246"/>
<polygon fill="#000000" stroke="#000000" points="1733.1754,-242.5001 1723.1754,-246 1733.1754,-249.5001 1733.1754,-242.5001"/>
</g>
<!-- AssignCalendarPage -->
<g id="node3" class="node">
<title>AssignCalendarPage</title>
<polygon fill="#ffffb3" stroke="#000000" points="2883.1303,-187 2750.8697,-187 2750.8697,-151 2883.1303,-151 2883.1303,-187"/>
<text text-anchor="middle" x="2817" y="-164.8" font-family="Times,serif" font-size="14.00" fill="#000000">AssignCalendarPage</text>
</g>
<!-- AssignCalendarPage&#45;&gt;PublicHolidaySetupModule -->
<g id="edge4" class="edge">
<title>AssignCalendarPage&#45;&gt;PublicHolidaySetupModule</title>
<path fill="none" stroke="#000000" d="M2817,-187.2921C2817,-209.2057 2817,-243 2817,-243 2817,-243 1733.2901,-243 1733.2901,-243"/>
<polygon fill="#000000" stroke="#000000" points="1733.2902,-239.5001 1723.2901,-243 1733.2901,-246.5001 1733.2902,-239.5001"/>
</g>
<!-- SnackbarNotificationPage -->
<g id="node4" class="node">
<title>SnackbarNotificationPage</title>
<polygon fill="#ffffb3" stroke="#000000" points="2732.4482,-187 2569.5518,-187 2569.5518,-151 2732.4482,-151 2732.4482,-187"/>
<text text-anchor="middle" x="2651" y="-164.8" font-family="Times,serif" font-size="14.00" fill="#000000">SnackbarNotificationPage</text>
</g>
<!-- SnackbarNotificationPage&#45;&gt;PublicHolidaySetupModule -->
<g id="edge5" class="edge">
<title>SnackbarNotificationPage&#45;&gt;PublicHolidaySetupModule</title>
<path fill="none" stroke="#000000" d="M2651,-187.0267C2651,-207.7672 2651,-239 2651,-239 2651,-239 1733.4531,-239 1733.4531,-239"/>
<polygon fill="#000000" stroke="#000000" points="1733.4531,-235.5001 1723.4531,-239 1733.453,-242.5001 1733.4531,-235.5001"/>
</g>
<!-- TitleCasePipe -->
<g id="node6" class="node">
<title>TitleCasePipe</title>
<ellipse fill="#fdb462" stroke="#000000" cx="3115" cy="-104" rx="65.4208" ry="18"/>
<text text-anchor="middle" x="3115" y="-99.8" font-family="Times,serif" font-size="14.00" fill="#000000">TitleCasePipe</text>
</g>
<!-- TitleCasePipe&#45;&gt;ManageHolidayPage -->
<g id="edge2" class="edge">
<title>TitleCasePipe&#45;&gt;ManageHolidayPage</title>
<path fill="none" stroke="#000000" d="M3115,-122.1061C3115,-122.1061 3115,-140.991 3115,-140.991"/>
<polygon fill="#000000" stroke="#000000" points="3111.5001,-140.9909 3115,-150.991 3118.5001,-140.991 3111.5001,-140.9909"/>
</g>
<!-- CommonModule -->
<g id="node7" class="node">
<title>CommonModule</title>
<polygon fill="#8dd3c7" stroke="#000000" points="2545.6681,-187 2542.6681,-191 2521.6681,-191 2518.6681,-187 2434.3319,-187 2434.3319,-151 2545.6681,-151 2545.6681,-187"/>
<text text-anchor="middle" x="2490" y="-164.8" font-family="Times,serif" font-size="14.00" fill="#000000">CommonModule</text>
</g>
<!-- CommonModule&#45;&gt;PublicHolidaySetupModule -->
<g id="edge6" class="edge">
<title>CommonModule&#45;&gt;PublicHolidaySetupModule</title>
<path fill="none" stroke="#000000" d="M2490,-187.308C2490,-207.1455 2490,-236 2490,-236 2490,-236 1733.4844,-236 1733.4844,-236"/>
<polygon fill="#000000" stroke="#000000" points="1733.4844,-232.5001 1723.4844,-236 1733.4844,-239.5001 1733.4844,-232.5001"/>
</g>
<!-- FormsModule -->
<g id="node8" class="node">
<title>FormsModule</title>
<polygon fill="#8dd3c7" stroke="#000000" points="2416.8288,-187 2413.8288,-191 2392.8288,-191 2389.8288,-187 2321.1712,-187 2321.1712,-151 2416.8288,-151 2416.8288,-187"/>
<text text-anchor="middle" x="2369" y="-164.8" font-family="Times,serif" font-size="14.00" fill="#000000">FormsModule</text>
</g>
<!-- FormsModule&#45;&gt;PublicHolidaySetupModule -->
<g id="edge7" class="edge">
<title>FormsModule&#45;&gt;PublicHolidaySetupModule</title>
<path fill="none" stroke="#000000" d="M2369,-187.1686C2369,-206.0898 2369,-233 2369,-233 2369,-233 1733.4831,-233 1733.4831,-233"/>
<polygon fill="#000000" stroke="#000000" points="1733.4831,-229.5001 1723.4831,-233 1733.483,-236.5001 1733.4831,-229.5001"/>
</g>
<!-- IonicModule -->
<g id="node9" class="node">
<title>IonicModule</title>
<polygon fill="#8dd3c7" stroke="#000000" points="2303.3162,-187 2300.3162,-191 2279.3162,-191 2276.3162,-187 2214.6838,-187 2214.6838,-151 2303.3162,-151 2303.3162,-187"/>
<text text-anchor="middle" x="2259" y="-164.8" font-family="Times,serif" font-size="14.00" fill="#000000">IonicModule</text>
</g>
<!-- IonicModule&#45;&gt;PublicHolidaySetupModule -->
<g id="edge8" class="edge">
<title>IonicModule&#45;&gt;PublicHolidaySetupModule</title>
<path fill="none" stroke="#000000" d="M2259,-187.302C2259,-205.2699 2259,-230 2259,-230 2259,-230 1733.1597,-230 1733.1597,-230"/>
<polygon fill="#000000" stroke="#000000" points="1733.1597,-226.5001 1723.1597,-230 1733.1596,-233.5001 1733.1597,-226.5001"/>
</g>
<!-- MatPaginatorModule -->
<g id="node10" class="node">
<title>MatPaginatorModule</title>
<polygon fill="#8dd3c7" stroke="#000000" points="2196.7534,-187 2193.7534,-191 2172.7534,-191 2169.7534,-187 2061.2466,-187 2061.2466,-151 2196.7534,-151 2196.7534,-187"/>
<text text-anchor="middle" x="2129" y="-164.8" font-family="Times,serif" font-size="14.00" fill="#000000">MatPaginatorModule</text>
</g>
<!-- MatPaginatorModule&#45;&gt;PublicHolidaySetupModule -->
<g id="edge9" class="edge">
<title>MatPaginatorModule&#45;&gt;PublicHolidaySetupModule</title>
<path fill="none" stroke="#000000" d="M2129,-187.0352C2129,-203.7344 2129,-226 2129,-226 2129,-226 1733.2629,-226 1733.2629,-226"/>
<polygon fill="#000000" stroke="#000000" points="1733.2629,-222.5001 1723.2629,-226 1733.2628,-229.5001 1733.2629,-222.5001"/>
</g>
<!-- MatInputModule -->
<g id="node11" class="node">
<title>MatInputModule</title>
<polygon fill="#8dd3c7" stroke="#000000" points="2042.6513,-187 2039.6513,-191 2018.6513,-191 2015.6513,-187 1931.3487,-187 1931.3487,-151 2042.6513,-151 2042.6513,-187"/>
<text text-anchor="middle" x="1987" y="-164.8" font-family="Times,serif" font-size="14.00" fill="#000000">MatInputModule</text>
</g>
<!-- MatInputModule&#45;&gt;PublicHolidaySetupModule -->
<g id="edge10" class="edge">
<title>MatInputModule&#45;&gt;PublicHolidaySetupModule</title>
<path fill="none" stroke="#000000" d="M1987,-187.2819C1987,-202.9478 1987,-223 1987,-223 1987,-223 1733.5169,-223 1733.5169,-223"/>
<polygon fill="#000000" stroke="#000000" points="1733.5169,-219.5001 1723.5169,-223 1733.5168,-226.5001 1733.5169,-219.5001"/>
</g>
<!-- MatSelectModule -->
<g id="node12" class="node">
<title>MatSelectModule</title>
<polygon fill="#8dd3c7" stroke="#000000" points="1913.3076,-187 1910.3076,-191 1889.3076,-191 1886.3076,-187 1796.6924,-187 1796.6924,-151 1913.3076,-151 1913.3076,-187"/>
<text text-anchor="middle" x="1855" y="-164.8" font-family="Times,serif" font-size="14.00" fill="#000000">MatSelectModule</text>
</g>
<!-- MatSelectModule&#45;&gt;PublicHolidaySetupModule -->
<g id="edge11" class="edge">
<title>MatSelectModule&#45;&gt;PublicHolidaySetupModule</title>
<path fill="none" stroke="#000000" d="M1855,-187.1243C1855,-201.7832 1855,-220 1855,-220 1855,-220 1733.1594,-220 1733.1594,-220"/>
<polygon fill="#000000" stroke="#000000" points="1733.1594,-216.5001 1723.1594,-220 1733.1593,-223.5001 1733.1594,-216.5001"/>
</g>
<!-- MatFormFieldModule -->
<g id="node13" class="node">
<title>MatFormFieldModule</title>
<polygon fill="#8dd3c7" stroke="#000000" points="1778.712,-187 1775.712,-191 1754.712,-191 1751.712,-187 1637.288,-187 1637.288,-151 1778.712,-151 1778.712,-187"/>
<text text-anchor="middle" x="1708" y="-164.8" font-family="Times,serif" font-size="14.00" fill="#000000">MatFormFieldModule</text>
</g>
<!-- MatFormFieldModule&#45;&gt;PublicHolidaySetupModule -->
<g id="edge12" class="edge">
<title>MatFormFieldModule&#45;&gt;PublicHolidaySetupModule</title>
<path fill="none" stroke="#000000" d="M1680.2767,-187.1061C1680.2767,-187.1061 1680.2767,-205.991 1680.2767,-205.991"/>
<polygon fill="#000000" stroke="#000000" points="1676.7767,-205.9909 1680.2767,-215.991 1683.7767,-205.991 1676.7767,-205.9909"/>
</g>
<!-- MatIconModule -->
<g id="node14" class="node">
<title>MatIconModule</title>
<polygon fill="#8dd3c7" stroke="#000000" points="1619.4748,-187 1616.4748,-191 1595.4748,-191 1592.4748,-187 1512.5252,-187 1512.5252,-151 1619.4748,-151 1619.4748,-187"/>
<text text-anchor="middle" x="1566" y="-164.8" font-family="Times,serif" font-size="14.00" fill="#000000">MatIconModule</text>
</g>
<!-- MatIconModule&#45;&gt;PublicHolidaySetupModule -->
<g id="edge13" class="edge">
<title>MatIconModule&#45;&gt;PublicHolidaySetupModule</title>
<path fill="none" stroke="#000000" d="M1585.1641,-187.1061C1585.1641,-187.1061 1585.1641,-205.991 1585.1641,-205.991"/>
<polygon fill="#000000" stroke="#000000" points="1581.6642,-205.9909 1585.1641,-215.991 1588.6642,-205.991 1581.6642,-205.9909"/>
</g>
<!-- MatGridListModule -->
<g id="node15" class="node">
<title>MatGridListModule</title>
<polygon fill="#8dd3c7" stroke="#000000" points="1494.5366,-187 1491.5366,-191 1470.5366,-191 1467.5366,-187 1365.4634,-187 1365.4634,-151 1494.5366,-151 1494.5366,-187"/>
<text text-anchor="middle" x="1430" y="-164.8" font-family="Times,serif" font-size="14.00" fill="#000000">MatGridListModule</text>
</g>
<!-- MatGridListModule&#45;&gt;PublicHolidaySetupModule -->
<g id="edge14" class="edge">
<title>MatGridListModule&#45;&gt;PublicHolidaySetupModule</title>
<path fill="none" stroke="#000000" d="M1430,-187.1243C1430,-201.7832 1430,-220 1430,-220 1430,-220 1540.7123,-220 1540.7123,-220"/>
<polygon fill="#000000" stroke="#000000" points="1540.7123,-223.5001 1550.7123,-220 1540.7123,-216.5001 1540.7123,-223.5001"/>
</g>
<!-- MatCardModule -->
<g id="node16" class="node">
<title>MatCardModule</title>
<polygon fill="#8dd3c7" stroke="#000000" points="1347.8118,-187 1344.8118,-191 1323.8118,-191 1320.8118,-187 1238.1882,-187 1238.1882,-151 1347.8118,-151 1347.8118,-187"/>
<text text-anchor="middle" x="1293" y="-164.8" font-family="Times,serif" font-size="14.00" fill="#000000">MatCardModule</text>
</g>
<!-- MatCardModule&#45;&gt;PublicHolidaySetupModule -->
<g id="edge15" class="edge">
<title>MatCardModule&#45;&gt;PublicHolidaySetupModule</title>
<path fill="none" stroke="#000000" d="M1293,-187.2819C1293,-202.9478 1293,-223 1293,-223 1293,-223 1540.6383,-223 1540.6383,-223"/>
<polygon fill="#000000" stroke="#000000" points="1540.6383,-226.5001 1550.6383,-223 1540.6383,-219.5001 1540.6383,-226.5001"/>
</g>
<!-- MatTabsModule -->
<g id="node17" class="node">
<title>MatTabsModule</title>
<polygon fill="#8dd3c7" stroke="#000000" points="1220.8118,-187 1217.8118,-191 1196.8118,-191 1193.8118,-187 1111.1882,-187 1111.1882,-151 1220.8118,-151 1220.8118,-187"/>
<text text-anchor="middle" x="1166" y="-164.8" font-family="Times,serif" font-size="14.00" fill="#000000">MatTabsModule</text>
</g>
<!-- MatTabsModule&#45;&gt;PublicHolidaySetupModule -->
<g id="edge16" class="edge">
<title>MatTabsModule&#45;&gt;PublicHolidaySetupModule</title>
<path fill="none" stroke="#000000" d="M1166,-187.0352C1166,-203.7344 1166,-226 1166,-226 1166,-226 1540.6113,-226 1540.6113,-226"/>
<polygon fill="#000000" stroke="#000000" points="1540.6114,-229.5001 1550.6113,-226 1540.6113,-222.5001 1540.6114,-229.5001"/>
</g>
<!-- InlineSVGModule -->
<g id="node18" class="node">
<title>InlineSVGModule</title>
<polygon fill="#8dd3c7" stroke="#000000" points="1093.2022,-187 1090.2022,-191 1069.2022,-191 1066.2022,-187 972.7978,-187 972.7978,-151 1093.2022,-151 1093.2022,-187"/>
<text text-anchor="middle" x="1033" y="-164.8" font-family="Times,serif" font-size="14.00" fill="#000000">InlineSVGModule</text>
</g>
<!-- InlineSVGModule&#45;&gt;PublicHolidaySetupModule -->
<g id="edge17" class="edge">
<title>InlineSVGModule&#45;&gt;PublicHolidaySetupModule</title>
<path fill="none" stroke="#000000" d="M1033,-187.302C1033,-205.2699 1033,-230 1033,-230 1033,-230 1540.7825,-230 1540.7825,-230"/>
<polygon fill="#000000" stroke="#000000" points="1540.7825,-233.5001 1550.7825,-230 1540.7824,-226.5001 1540.7825,-233.5001"/>
</g>
<!-- FullCalendarModule -->
<g id="node19" class="node">
<title>FullCalendarModule</title>
<polygon fill="#8dd3c7" stroke="#000000" points="955.1457,-187 952.1457,-191 931.1457,-191 928.1457,-187 822.8543,-187 822.8543,-151 955.1457,-151 955.1457,-187"/>
<text text-anchor="middle" x="889" y="-164.8" font-family="Times,serif" font-size="14.00" fill="#000000">FullCalendarModule</text>
</g>
<!-- FullCalendarModule&#45;&gt;PublicHolidaySetupModule -->
<g id="edge18" class="edge">
<title>FullCalendarModule&#45;&gt;PublicHolidaySetupModule</title>
<path fill="none" stroke="#000000" d="M889,-187.1686C889,-206.0898 889,-233 889,-233 889,-233 1540.8298,-233 1540.8298,-233"/>
<polygon fill="#000000" stroke="#000000" points="1540.8299,-236.5001 1550.8298,-233 1540.8298,-229.5001 1540.8299,-236.5001"/>
</g>
<!-- SpinnerModule -->
<g id="node20" class="node">
<title>SpinnerModule</title>
<polygon fill="#8dd3c7" stroke="#000000" points="804.5982,-187 801.5982,-191 780.5982,-191 777.5982,-187 701.4018,-187 701.4018,-151 804.5982,-151 804.5982,-187"/>
<text text-anchor="middle" x="753" y="-164.8" font-family="Times,serif" font-size="14.00" fill="#000000">SpinnerModule</text>
</g>
<!-- SpinnerModule&#45;&gt;PublicHolidaySetupModule -->
<g id="edge19" class="edge">
<title>SpinnerModule&#45;&gt;PublicHolidaySetupModule</title>
<path fill="none" stroke="#000000" d="M753,-187.308C753,-207.1455 753,-236 753,-236 753,-236 1540.6288,-236 1540.6288,-236"/>
<polygon fill="#000000" stroke="#000000" points="1540.6288,-239.5001 1550.6288,-236 1540.6288,-232.5001 1540.6288,-239.5001"/>
</g>
<!-- MatDatepickerModule -->
<g id="node21" class="node">
<title>MatDatepickerModule</title>
<polygon fill="#8dd3c7" stroke="#000000" points="683.5072,-187 680.5072,-191 659.5072,-191 656.5072,-187 540.4928,-187 540.4928,-151 683.5072,-151 683.5072,-187"/>
<text text-anchor="middle" x="612" y="-164.8" font-family="Times,serif" font-size="14.00" fill="#000000">MatDatepickerModule</text>
</g>
<!-- MatDatepickerModule&#45;&gt;PublicHolidaySetupModule -->
<g id="edge20" class="edge">
<title>MatDatepickerModule&#45;&gt;PublicHolidaySetupModule</title>
<path fill="none" stroke="#000000" d="M612,-187.0267C612,-207.7672 612,-239 612,-239 612,-239 1540.4925,-239 1540.4925,-239"/>
<polygon fill="#000000" stroke="#000000" points="1540.4925,-242.5001 1550.4925,-239 1540.4924,-235.5001 1540.4925,-242.5001"/>
</g>
<!-- ReactiveFormsModule -->
<g id="node22" class="node">
<title>ReactiveFormsModule</title>
<polygon fill="#8dd3c7" stroke="#000000" points="522.3047,-187 519.3047,-191 498.3047,-191 495.3047,-187 377.6953,-187 377.6953,-151 522.3047,-151 522.3047,-187"/>
<text text-anchor="middle" x="450" y="-164.8" font-family="Times,serif" font-size="14.00" fill="#000000">ReactiveFormsModule</text>
</g>
<!-- ReactiveFormsModule&#45;&gt;PublicHolidaySetupModule -->
<g id="edge21" class="edge">
<title>ReactiveFormsModule&#45;&gt;PublicHolidaySetupModule</title>
<path fill="none" stroke="#000000" d="M450,-187.2921C450,-209.2057 450,-243 450,-243 450,-243 1540.6777,-243 1540.6777,-243"/>
<polygon fill="#000000" stroke="#000000" points="1540.6778,-246.5001 1550.6777,-243 1540.6777,-239.5001 1540.6778,-246.5001"/>
</g>
<!-- MatSnackBarModule -->
<g id="node23" class="node">
<title>MatSnackBarModule</title>
<polygon fill="#8dd3c7" stroke="#000000" points="360.024,-187 357.024,-191 336.024,-191 333.024,-187 223.976,-187 223.976,-151 360.024,-151 360.024,-187"/>
<text text-anchor="middle" x="292" y="-164.8" font-family="Times,serif" font-size="14.00" fill="#000000">MatSnackBarModule</text>
</g>
<!-- MatSnackBarModule&#45;&gt;PublicHolidaySetupModule -->
<g id="edge22" class="edge">
<title>MatSnackBarModule&#45;&gt;PublicHolidaySetupModule</title>
<path fill="none" stroke="#000000" d="M292,-187.2479C292,-210.0179 292,-246 292,-246 292,-246 1540.8182,-246 1540.8182,-246"/>
<polygon fill="#000000" stroke="#000000" points="1540.8182,-249.5001 1550.8182,-246 1540.8181,-242.5001 1540.8182,-249.5001"/>
</g>
<!-- RouterModule.forChild(args) -->
<g id="node24" class="node">
<title>RouterModule.forChild(args)</title>
<polygon fill="#8dd3c7" stroke="#000000" points="205.7323,-187 202.7323,-191 181.7323,-191 178.7323,-187 24.2677,-187 24.2677,-151 205.7323,-151 205.7323,-187"/>
<text text-anchor="middle" x="115" y="-164.8" font-family="Times,serif" font-size="14.00" fill="#000000">RouterModule.forChild(args)</text>
</g>
<!-- RouterModule.forChild(args)&#45;&gt;PublicHolidaySetupModule -->
<g id="edge23" class="edge">
<title>RouterModule.forChild(args)&#45;&gt;PublicHolidaySetupModule</title>
<path fill="none" stroke="#000000" d="M115,-187.1532C115,-210.7566 115,-249 115,-249 115,-249 1540.8098,-249 1540.8098,-249"/>
<polygon fill="#000000" stroke="#000000" points="1540.8099,-252.5001 1550.8098,-249 1540.8098,-245.5001 1540.8099,-252.5001"/>
</g>
</g>
</svg>
