<?xml version="1.0" encoding="UTF-8" standalone="no"?>
<!DOCTYPE svg PUBLIC "-//W3C//DTD SVG 1.1//EN"
 "http://www.w3.org/Graphics/SVG/1.1/DTD/svg11.dtd">
<!-- Generated by graphviz version 2.40.1 (20161225.0304)
 -->
<!-- Title: dependencies Pages: 1 -->
<svg width="2728pt" height="276pt"
 viewBox="0.00 0.00 2728.00 276.00" xmlns="http://www.w3.org/2000/svg" xmlns:xlink="http://www.w3.org/1999/xlink">
<g id="graph0" class="graph" transform="scale(1 1) rotate(0) translate(4 272)">
<title>dependencies</title>
<polygon fill="#ffffff" stroke="transparent" points="-4,4 -4,-272 2724,-272 2724,4 -4,4"/>
<text text-anchor="start" x="1339.0091" y="-42.4" font-family="sans-serif" font-weight="bold" font-size="14.00" fill="#000000">Legend</text>
<polygon fill="#ffffb3" stroke="transparent" points="1126,-10 1126,-30 1146,-30 1146,-10 1126,-10"/>
<text text-anchor="start" x="1149.629" y="-15.4" font-family="sans-serif" font-size="14.00" fill="#000000"> &#160;Declarations</text>
<polygon fill="#8dd3c7" stroke="transparent" points="1239,-10 1239,-30 1259,-30 1259,-10 1239,-10"/>
<text text-anchor="start" x="1262.7251" y="-15.4" font-family="sans-serif" font-size="14.00" fill="#000000"> &#160;Module</text>
<polygon fill="#80b1d3" stroke="transparent" points="1325,-10 1325,-30 1345,-30 1345,-10 1325,-10"/>
<text text-anchor="start" x="1348.7812" y="-15.4" font-family="sans-serif" font-size="14.00" fill="#000000"> &#160;Bootstrap</text>
<polygon fill="#fdb462" stroke="transparent" points="1422,-10 1422,-30 1442,-30 1442,-10 1422,-10"/>
<text text-anchor="start" x="1445.6732" y="-15.4" font-family="sans-serif" font-size="14.00" fill="#000000"> &#160;Providers</text>
<polygon fill="#fb8072" stroke="transparent" points="1518,-10 1518,-30 1538,-30 1538,-10 1518,-10"/>
<text text-anchor="start" x="1541.7258" y="-15.4" font-family="sans-serif" font-size="14.00" fill="#000000"> &#160;Exports</text>
<g id="clust1" class="cluster">
<title>cluster_PublicHolidaySetupModule</title>
<polygon fill="none" stroke="#000000" stroke-dasharray="1,5" points="8,-70 8,-260 2712,-260 2712,-70 8,-70"/>
</g>
<g id="clust2" class="cluster">
<title>cluster_PublicHolidaySetupModule_declarations</title>
<polygon fill="none" stroke="#000000" points="2408,-143 2408,-195 2704,-195 2704,-143 2408,-143"/>
</g>
<g id="clust3" class="cluster">
<title>cluster_PublicHolidaySetupModule_ManageHolidayPage_providers</title>
<polygon fill="none" stroke="#000000" points="2556,-78 2556,-130 2702,-130 2702,-78 2556,-78"/>
</g>
<g id="clust5" class="cluster">
<title>cluster_PublicHolidaySetupModule_imports</title>
<polygon fill="none" stroke="#000000" points="16,-143 16,-195 2400,-195 2400,-143 16,-143"/>
</g>
<!-- ManageHolidayPage -->
<g id="node1" class="node">
<title>ManageHolidayPage</title>
<polygon fill="#ffffb3" stroke="#000000" points="2695.9032,-187 2562.0968,-187 2562.0968,-151 2695.9032,-151 2695.9032,-187"/>
<text text-anchor="middle" x="2629" y="-164.8" font-family="Times,serif" font-size="14.00" fill="#000000">ManageHolidayPage</text>
</g>
<!-- PublicHolidaySetupModule -->
<g id="node3" class="node">
<title>PublicHolidaySetupModule</title>
<polygon fill="#8dd3c7" stroke="#000000" points="1498.3187,-252 1495.3187,-256 1474.3187,-256 1471.3187,-252 1325.6813,-252 1325.6813,-216 1498.3187,-216 1498.3187,-252"/>
<text text-anchor="middle" x="1412" y="-229.8" font-family="Times,serif" font-size="14.00" fill="#000000">PublicHolidaySetupModule</text>
</g>
<!-- ManageHolidayPage&#45;&gt;PublicHolidaySetupModule -->
<g id="edge1" class="edge">
<title>ManageHolidayPage&#45;&gt;PublicHolidaySetupModule</title>
<path fill="none" stroke="#000000" d="M2629,-187.3228C2629,-210.6602 2629,-248 2629,-248 2629,-248 1508.548,-248 1508.548,-248"/>
<polygon fill="#000000" stroke="#000000" points="1508.548,-244.5001 1498.548,-248 1508.548,-251.5001 1508.548,-244.5001"/>
</g>
<!-- PublicHolidaySetup -->
<g id="node2" class="node">
<title>PublicHolidaySetup</title>
<polygon fill="#ffffb3" stroke="#000000" points="2544.2688,-187 2415.7312,-187 2415.7312,-151 2544.2688,-151 2544.2688,-187"/>
<text text-anchor="middle" x="2480" y="-164.8" font-family="Times,serif" font-size="14.00" fill="#000000">PublicHolidaySetup</text>
</g>
<!-- PublicHolidaySetup&#45;&gt;PublicHolidaySetupModule -->
<g id="edge3" class="edge">
<title>PublicHolidaySetup&#45;&gt;PublicHolidaySetupModule</title>
<path fill="none" stroke="#000000" d="M2480,-187.1554C2480,-209.3519 2480,-244 2480,-244 2480,-244 1508.4943,-244 1508.4943,-244"/>
<polygon fill="#000000" stroke="#000000" points="1508.4943,-240.5001 1498.4943,-244 1508.4942,-247.5001 1508.4943,-240.5001"/>
</g>
<!-- TitleCasePipe -->
<g id="node4" class="node">
<title>TitleCasePipe</title>
<ellipse fill="#fdb462" stroke="#000000" cx="2629" cy="-104" rx="65.4208" ry="18"/>
<text text-anchor="middle" x="2629" y="-99.8" font-family="Times,serif" font-size="14.00" fill="#000000">TitleCasePipe</text>
</g>
<!-- TitleCasePipe&#45;&gt;ManageHolidayPage -->
<g id="edge2" class="edge">
<title>TitleCasePipe&#45;&gt;ManageHolidayPage</title>
<path fill="none" stroke="#000000" d="M2629,-122.1061C2629,-122.1061 2629,-140.991 2629,-140.991"/>
<polygon fill="#000000" stroke="#000000" points="2625.5001,-140.9909 2629,-150.991 2632.5001,-140.991 2625.5001,-140.9909"/>
</g>
<!-- CommonModule -->
<g id="node5" class="node">
<title>CommonModule</title>
<polygon fill="#8dd3c7" stroke="#000000" points="2391.6681,-187 2388.6681,-191 2367.6681,-191 2364.6681,-187 2280.3319,-187 2280.3319,-151 2391.6681,-151 2391.6681,-187"/>
<text text-anchor="middle" x="2336" y="-164.8" font-family="Times,serif" font-size="14.00" fill="#000000">CommonModule</text>
</g>
<!-- CommonModule&#45;&gt;PublicHolidaySetupModule -->
<g id="edge4" class="edge">
<title>CommonModule&#45;&gt;PublicHolidaySetupModule</title>
<path fill="none" stroke="#000000" d="M2336,-187.2843C2336,-208.3211 2336,-240 2336,-240 2336,-240 1508.5124,-240 1508.5124,-240"/>
<polygon fill="#000000" stroke="#000000" points="1508.5124,-236.5001 1498.5124,-240 1508.5124,-243.5001 1508.5124,-236.5001"/>
</g>
<!-- FormsModule -->
<g id="node6" class="node">
<title>FormsModule</title>
<polygon fill="#8dd3c7" stroke="#000000" points="2262.8288,-187 2259.8288,-191 2238.8288,-191 2235.8288,-187 2167.1712,-187 2167.1712,-151 2262.8288,-151 2262.8288,-187"/>
<text text-anchor="middle" x="2215" y="-164.8" font-family="Times,serif" font-size="14.00" fill="#000000">FormsModule</text>
</g>
<!-- FormsModule&#45;&gt;PublicHolidaySetupModule -->
<g id="edge5" class="edge">
<title>FormsModule&#45;&gt;PublicHolidaySetupModule</title>
<path fill="none" stroke="#000000" d="M2215,-187.308C2215,-207.1455 2215,-236 2215,-236 2215,-236 1508.3162,-236 1508.3162,-236"/>
<polygon fill="#000000" stroke="#000000" points="1508.3162,-232.5001 1498.3162,-236 1508.3162,-239.5001 1508.3162,-232.5001"/>
</g>
<!-- IonicModule -->
<g id="node7" class="node">
<title>IonicModule</title>
<polygon fill="#8dd3c7" stroke="#000000" points="2149.3162,-187 2146.3162,-191 2125.3162,-191 2122.3162,-187 2060.6838,-187 2060.6838,-151 2149.3162,-151 2149.3162,-187"/>
<text text-anchor="middle" x="2105" y="-164.8" font-family="Times,serif" font-size="14.00" fill="#000000">IonicModule</text>
</g>
<!-- IonicModule&#45;&gt;PublicHolidaySetupModule -->
<g id="edge6" class="edge">
<title>IonicModule&#45;&gt;PublicHolidaySetupModule</title>
<path fill="none" stroke="#000000" d="M2105,-187.2222C2105,-205.8285 2105,-232 2105,-232 2105,-232 1508.3677,-232 1508.3677,-232"/>
<polygon fill="#000000" stroke="#000000" points="1508.3678,-228.5001 1498.3677,-232 1508.3677,-235.5001 1508.3678,-228.5001"/>
</g>
<!-- MatPaginatorModule -->
<g id="node8" class="node">
<title>MatPaginatorModule</title>
<polygon fill="#8dd3c7" stroke="#000000" points="2042.7534,-187 2039.7534,-191 2018.7534,-191 2015.7534,-187 1907.2466,-187 1907.2466,-151 2042.7534,-151 2042.7534,-187"/>
<text text-anchor="middle" x="1975" y="-164.8" font-family="Times,serif" font-size="14.00" fill="#000000">MatPaginatorModule</text>
</g>
<!-- MatPaginatorModule&#45;&gt;PublicHolidaySetupModule -->
<g id="edge7" class="edge">
<title>MatPaginatorModule&#45;&gt;PublicHolidaySetupModule</title>
<path fill="none" stroke="#000000" d="M1975,-187.0225C1975,-204.3734 1975,-228 1975,-228 1975,-228 1508.4275,-228 1508.4275,-228"/>
<polygon fill="#000000" stroke="#000000" points="1508.4275,-224.5001 1498.4275,-228 1508.4274,-231.5001 1508.4275,-224.5001"/>
</g>
<!-- MatInputModule -->
<g id="node9" class="node">
<title>MatInputModule</title>
<polygon fill="#8dd3c7" stroke="#000000" points="1888.6513,-187 1885.6513,-191 1864.6513,-191 1861.6513,-187 1777.3487,-187 1777.3487,-151 1888.6513,-151 1888.6513,-187"/>
<text text-anchor="middle" x="1833" y="-164.8" font-family="Times,serif" font-size="14.00" fill="#000000">MatInputModule</text>
</g>
<!-- MatInputModule&#45;&gt;PublicHolidaySetupModule -->
<g id="edge8" class="edge">
<title>MatInputModule&#45;&gt;PublicHolidaySetupModule</title>
<path fill="none" stroke="#000000" d="M1833,-187.0091C1833,-203.0494 1833,-224 1833,-224 1833,-224 1508.2115,-224 1508.2115,-224"/>
<polygon fill="#000000" stroke="#000000" points="1508.2116,-220.5001 1498.2115,-224 1508.2115,-227.5001 1508.2116,-220.5001"/>
</g>
<!-- MatSelectModule -->
<g id="node10" class="node">
<title>MatSelectModule</title>
<polygon fill="#8dd3c7" stroke="#000000" points="1759.3076,-187 1756.3076,-191 1735.3076,-191 1732.3076,-187 1642.6924,-187 1642.6924,-151 1759.3076,-151 1759.3076,-187"/>
<text text-anchor="middle" x="1701" y="-164.8" font-family="Times,serif" font-size="14.00" fill="#000000">MatSelectModule</text>
</g>
<!-- MatSelectModule&#45;&gt;PublicHolidaySetupModule -->
<g id="edge9" class="edge">
<title>MatSelectModule&#45;&gt;PublicHolidaySetupModule</title>
<path fill="none" stroke="#000000" d="M1701,-187.1243C1701,-201.7832 1701,-220 1701,-220 1701,-220 1508.3181,-220 1508.3181,-220"/>
<polygon fill="#000000" stroke="#000000" points="1508.3181,-216.5001 1498.3181,-220 1508.318,-223.5001 1508.3181,-216.5001"/>
</g>
<!-- MatFormFieldModule -->
<g id="node11" class="node">
<title>MatFormFieldModule</title>
<polygon fill="#8dd3c7" stroke="#000000" points="1624.712,-187 1621.712,-191 1600.712,-191 1597.712,-187 1483.288,-187 1483.288,-151 1624.712,-151 1624.712,-187"/>
<text text-anchor="middle" x="1554" y="-164.8" font-family="Times,serif" font-size="14.00" fill="#000000">MatFormFieldModule</text>
</g>
<!-- MatFormFieldModule&#45;&gt;PublicHolidaySetupModule -->
<g id="edge10" class="edge">
<title>MatFormFieldModule&#45;&gt;PublicHolidaySetupModule</title>
<path fill="none" stroke="#000000" d="M1490.7767,-187.1061C1490.7767,-187.1061 1490.7767,-205.991 1490.7767,-205.991"/>
<polygon fill="#000000" stroke="#000000" points="1487.2767,-205.9909 1490.7767,-215.991 1494.2767,-205.991 1487.2767,-205.9909"/>
</g>
<!-- MatIconModule -->
<g id="node12" class="node">
<title>MatIconModule</title>
<polygon fill="#8dd3c7" stroke="#000000" points="1465.4748,-187 1462.4748,-191 1441.4748,-191 1438.4748,-187 1358.5252,-187 1358.5252,-151 1465.4748,-151 1465.4748,-187"/>
<text text-anchor="middle" x="1412" y="-164.8" font-family="Times,serif" font-size="14.00" fill="#000000">MatIconModule</text>
</g>
<!-- MatIconModule&#45;&gt;PublicHolidaySetupModule -->
<g id="edge11" class="edge">
<title>MatIconModule&#45;&gt;PublicHolidaySetupModule</title>
<path fill="none" stroke="#000000" d="M1412,-187.1061C1412,-187.1061 1412,-205.991 1412,-205.991"/>
<polygon fill="#000000" stroke="#000000" points="1408.5001,-205.9909 1412,-215.991 1415.5001,-205.991 1408.5001,-205.9909"/>
</g>
<!-- MatGridListModule -->
<g id="node13" class="node">
<title>MatGridListModule</title>
<polygon fill="#8dd3c7" stroke="#000000" points="1340.5366,-187 1337.5366,-191 1316.5366,-191 1313.5366,-187 1211.4634,-187 1211.4634,-151 1340.5366,-151 1340.5366,-187"/>
<text text-anchor="middle" x="1276" y="-164.8" font-family="Times,serif" font-size="14.00" fill="#000000">MatGridListModule</text>
</g>
<!-- MatGridListModule&#45;&gt;PublicHolidaySetupModule -->
<g id="edge12" class="edge">
<title>MatGridListModule&#45;&gt;PublicHolidaySetupModule</title>
<path fill="none" stroke="#000000" d="M1333.3043,-187.1061C1333.3043,-187.1061 1333.3043,-205.991 1333.3043,-205.991"/>
<polygon fill="#000000" stroke="#000000" points="1329.8044,-205.9909 1333.3043,-215.991 1336.8044,-205.991 1329.8044,-205.9909"/>
</g>
<!-- MatCardModule -->
<g id="node14" class="node">
<title>MatCardModule</title>
<polygon fill="#8dd3c7" stroke="#000000" points="1193.8118,-187 1190.8118,-191 1169.8118,-191 1166.8118,-187 1084.1882,-187 1084.1882,-151 1193.8118,-151 1193.8118,-187"/>
<text text-anchor="middle" x="1139" y="-164.8" font-family="Times,serif" font-size="14.00" fill="#000000">MatCardModule</text>
</g>
<!-- MatCardModule&#45;&gt;PublicHolidaySetupModule -->
<g id="edge13" class="edge">
<title>MatCardModule&#45;&gt;PublicHolidaySetupModule</title>
<path fill="none" stroke="#000000" d="M1139,-187.1243C1139,-201.7832 1139,-220 1139,-220 1139,-220 1315.6211,-220 1315.6211,-220"/>
<polygon fill="#000000" stroke="#000000" points="1315.6211,-223.5001 1325.6211,-220 1315.6211,-216.5001 1315.6211,-223.5001"/>
</g>
<!-- MatTabsModule -->
<g id="node15" class="node">
<title>MatTabsModule</title>
<polygon fill="#8dd3c7" stroke="#000000" points="1066.8118,-187 1063.8118,-191 1042.8118,-191 1039.8118,-187 957.1882,-187 957.1882,-151 1066.8118,-151 1066.8118,-187"/>
<text text-anchor="middle" x="1012" y="-164.8" font-family="Times,serif" font-size="14.00" fill="#000000">MatTabsModule</text>
</g>
<!-- MatTabsModule&#45;&gt;PublicHolidaySetupModule -->
<g id="edge14" class="edge">
<title>MatTabsModule&#45;&gt;PublicHolidaySetupModule</title>
<path fill="none" stroke="#000000" d="M1012,-187.0091C1012,-203.0494 1012,-224 1012,-224 1012,-224 1315.6984,-224 1315.6984,-224"/>
<polygon fill="#000000" stroke="#000000" points="1315.6985,-227.5001 1325.6984,-224 1315.6984,-220.5001 1315.6985,-227.5001"/>
</g>
<!-- InlineSVGModule -->
<g id="node16" class="node">
<title>InlineSVGModule</title>
<polygon fill="#8dd3c7" stroke="#000000" points="939.2022,-187 936.2022,-191 915.2022,-191 912.2022,-187 818.7978,-187 818.7978,-151 939.2022,-151 939.2022,-187"/>
<text text-anchor="middle" x="879" y="-164.8" font-family="Times,serif" font-size="14.00" fill="#000000">InlineSVGModule</text>
</g>
<!-- InlineSVGModule&#45;&gt;PublicHolidaySetupModule -->
<g id="edge15" class="edge">
<title>InlineSVGModule&#45;&gt;PublicHolidaySetupModule</title>
<path fill="none" stroke="#000000" d="M879,-187.0225C879,-204.3734 879,-228 879,-228 879,-228 1315.772,-228 1315.772,-228"/>
<polygon fill="#000000" stroke="#000000" points="1315.772,-231.5001 1325.772,-228 1315.7719,-224.5001 1315.772,-231.5001"/>
</g>
<!-- FullCalendarModule -->
<g id="node17" class="node">
<title>FullCalendarModule</title>
<polygon fill="#8dd3c7" stroke="#000000" points="801.1457,-187 798.1457,-191 777.1457,-191 774.1457,-187 668.8543,-187 668.8543,-151 801.1457,-151 801.1457,-187"/>
<text text-anchor="middle" x="735" y="-164.8" font-family="Times,serif" font-size="14.00" fill="#000000">FullCalendarModule</text>
</g>
<!-- FullCalendarModule&#45;&gt;PublicHolidaySetupModule -->
<g id="edge16" class="edge">
<title>FullCalendarModule&#45;&gt;PublicHolidaySetupModule</title>
<path fill="none" stroke="#000000" d="M735,-187.2222C735,-205.8285 735,-232 735,-232 735,-232 1315.5698,-232 1315.5698,-232"/>
<polygon fill="#000000" stroke="#000000" points="1315.5699,-235.5001 1325.5698,-232 1315.5698,-228.5001 1315.5699,-235.5001"/>
</g>
<!-- SpinnerModule -->
<g id="node18" class="node">
<title>SpinnerModule</title>
<polygon fill="#8dd3c7" stroke="#000000" points="650.5982,-187 647.5982,-191 626.5982,-191 623.5982,-187 547.4018,-187 547.4018,-151 650.5982,-151 650.5982,-187"/>
<text text-anchor="middle" x="599" y="-164.8" font-family="Times,serif" font-size="14.00" fill="#000000">SpinnerModule</text>
</g>
<!-- SpinnerModule&#45;&gt;PublicHolidaySetupModule -->
<g id="edge17" class="edge">
<title>SpinnerModule&#45;&gt;PublicHolidaySetupModule</title>
<path fill="none" stroke="#000000" d="M599,-187.308C599,-207.1455 599,-236 599,-236 599,-236 1315.7644,-236 1315.7644,-236"/>
<polygon fill="#000000" stroke="#000000" points="1315.7645,-239.5001 1325.7644,-236 1315.7644,-232.5001 1315.7645,-239.5001"/>
</g>
<!-- MatDatepickerModule -->
<g id="node19" class="node">
<title>MatDatepickerModule</title>
<polygon fill="#8dd3c7" stroke="#000000" points="529.5072,-187 526.5072,-191 505.5072,-191 502.5072,-187 386.4928,-187 386.4928,-151 529.5072,-151 529.5072,-187"/>
<text text-anchor="middle" x="458" y="-164.8" font-family="Times,serif" font-size="14.00" fill="#000000">MatDatepickerModule</text>
</g>
<!-- MatDatepickerModule&#45;&gt;PublicHolidaySetupModule -->
<g id="edge18" class="edge">
<title>MatDatepickerModule&#45;&gt;PublicHolidaySetupModule</title>
<path fill="none" stroke="#000000" d="M458,-187.2843C458,-208.3211 458,-240 458,-240 458,-240 1315.6563,-240 1315.6563,-240"/>
<polygon fill="#000000" stroke="#000000" points="1315.6563,-243.5001 1325.6563,-240 1315.6562,-236.5001 1315.6563,-243.5001"/>
</g>
<!-- ReactiveFormsModule -->
<g id="node20" class="node">
<title>ReactiveFormsModule</title>
<polygon fill="#8dd3c7" stroke="#000000" points="368.3047,-187 365.3047,-191 344.3047,-191 341.3047,-187 223.6953,-187 223.6953,-151 368.3047,-151 368.3047,-187"/>
<text text-anchor="middle" x="296" y="-164.8" font-family="Times,serif" font-size="14.00" fill="#000000">ReactiveFormsModule</text>
</g>
<!-- ReactiveFormsModule&#45;&gt;PublicHolidaySetupModule -->
<g id="edge19" class="edge">
<title>ReactiveFormsModule&#45;&gt;PublicHolidaySetupModule</title>
<path fill="none" stroke="#000000" d="M296,-187.1554C296,-209.3519 296,-244 296,-244 296,-244 1315.8207,-244 1315.8207,-244"/>
<polygon fill="#000000" stroke="#000000" points="1315.8208,-247.5001 1325.8207,-244 1315.8207,-240.5001 1315.8208,-247.5001"/>
</g>
<!-- RouterModule.forChild(args) -->
<g id="node21" class="node">
<title>RouterModule.forChild(args)</title>
<polygon fill="#8dd3c7" stroke="#000000" points="205.7323,-187 202.7323,-191 181.7323,-191 178.7323,-187 24.2677,-187 24.2677,-151 205.7323,-151 205.7323,-187"/>
<text text-anchor="middle" x="115" y="-164.8" font-family="Times,serif" font-size="14.00" fill="#000000">RouterModule.forChild(args)</text>
</g>
<!-- RouterModule.forChild(args)&#45;&gt;PublicHolidaySetupModule -->
<g id="edge20" class="edge">
<title>RouterModule.forChild(args)&#45;&gt;PublicHolidaySetupModule</title>
<path fill="none" stroke="#000000" d="M115,-187.3228C115,-210.6602 115,-248 115,-248 115,-248 1315.6438,-248 1315.6438,-248"/>
<polygon fill="#000000" stroke="#000000" points="1315.6439,-251.5001 1325.6438,-248 1315.6438,-244.5001 1315.6439,-251.5001"/>
</g>
</g>
</svg>
