<svg xmlns="http://www.w3.org/2000/svg" width="17.528" height="17.5" viewBox="0 0 17.528 17.5">
    <defs>
        <style>
            .cls-1{fill:#a5a4bf;stroke:#a5a4bf;stroke-width:.5px;opacity:.797}
        </style>
    </defs>
    <path id="Advance_Filters" d="M3.405 5.859H6.28a2.433 2.433 0 0 0 4.792 0h8.551a.405.405 0 0 0 0-.811h-8.551a2.433 2.433 0 0 0-4.792 0H3.405a.405.405 0 1 0 0 .811zm5.271-2.027a1.622 1.622 0 1 1-1.622 1.622 1.622 1.622 0 0 1 1.622-1.622zm10.947 7.3h-2.875a2.433 2.433 0 0 0-4.792 0H3.405a.405.405 0 1 0 0 .811h8.551a2.433 2.433 0 0 0 4.792 0h2.875a.405.405 0 1 0 0-.811zm-5.271 2.027a1.622 1.622 0 1 1 1.622-1.622 1.622 1.622 0 0 1-1.622 1.62zm5.271 4.054h-8.551a2.433 2.433 0 0 0-4.792 0H3.405a.405.405 0 1 0 0 .811H6.28a2.433 2.433 0 0 0 4.792 0h8.551a.405.405 0 0 0 0-.811zM8.676 19.239a1.622 1.622 0 1 1 1.624-1.622 1.622 1.622 0 0 1-1.624 1.622z" class="cls-1" data-name="Advance Filters" transform="translate(-2.75 -2.785)"/>
</svg>
