<?xml version="1.0" encoding="UTF-8" standalone="no"?>
<!DOCTYPE svg PUBLIC "-//W3C//DTD SVG 1.1//EN"
 "http://www.w3.org/Graphics/SVG/1.1/DTD/svg11.dtd">
<!-- Generated by graphviz version 2.40.1 (20161225.0304)
 -->
<!-- Title: dependencies Pages: 1 -->
<svg width="2430pt" height="284pt"
 viewBox="0.00 0.00 2430.00 284.00" xmlns="http://www.w3.org/2000/svg" xmlns:xlink="http://www.w3.org/1999/xlink">
<g id="graph0" class="graph" transform="scale(1 1) rotate(0) translate(4 280)">
<title>dependencies</title>
<polygon fill="#ffffff" stroke="transparent" points="-4,4 -4,-280 2426,-280 2426,4 -4,4"/>
<text text-anchor="start" x="1190.0091" y="-42.4" font-family="sans-serif" font-weight="bold" font-size="14.00" fill="#000000">Legend</text>
<polygon fill="#ffffb3" stroke="transparent" points="977,-10 977,-30 997,-30 997,-10 977,-10"/>
<text text-anchor="start" x="1000.629" y="-15.4" font-family="sans-serif" font-size="14.00" fill="#000000"> &#160;Declarations</text>
<polygon fill="#8dd3c7" stroke="transparent" points="1090,-10 1090,-30 1110,-30 1110,-10 1090,-10"/>
<text text-anchor="start" x="1113.7251" y="-15.4" font-family="sans-serif" font-size="14.00" fill="#000000"> &#160;Module</text>
<polygon fill="#80b1d3" stroke="transparent" points="1176,-10 1176,-30 1196,-30 1196,-10 1176,-10"/>
<text text-anchor="start" x="1199.7812" y="-15.4" font-family="sans-serif" font-size="14.00" fill="#000000"> &#160;Bootstrap</text>
<polygon fill="#fdb462" stroke="transparent" points="1273,-10 1273,-30 1293,-30 1293,-10 1273,-10"/>
<text text-anchor="start" x="1296.6732" y="-15.4" font-family="sans-serif" font-size="14.00" fill="#000000"> &#160;Providers</text>
<polygon fill="#fb8072" stroke="transparent" points="1369,-10 1369,-30 1389,-30 1389,-10 1369,-10"/>
<text text-anchor="start" x="1392.7258" y="-15.4" font-family="sans-serif" font-size="14.00" fill="#000000"> &#160;Exports</text>
<g id="clust1" class="cluster">
<title>cluster_AppModule</title>
<polygon fill="none" stroke="#000000" stroke-dasharray="1,5" points="8,-70 8,-268 2414,-268 2414,-70 8,-70"/>
</g>
<g id="clust2" class="cluster">
<title>cluster_AppModule_declarations</title>
<polygon fill="none" stroke="#000000" points="2101,-78 2101,-130 2406,-130 2406,-78 2101,-78"/>
</g>
<g id="clust5" class="cluster">
<title>cluster_AppModule_imports</title>
<polygon fill="none" stroke="#000000" points="923,-78 923,-130 2093,-130 2093,-78 923,-78"/>
</g>
<g id="clust7" class="cluster">
<title>cluster_AppModule_bootstrap</title>
<polygon fill="none" stroke="#000000" points="1313,-208 1313,-260 1437,-260 1437,-208 1313,-208"/>
</g>
<g id="clust8" class="cluster">
<title>cluster_AppModule_providers</title>
<polygon fill="none" stroke="#000000" points="16,-78 16,-130 915,-130 915,-78 16,-78"/>
</g>
<!-- AppComponent -->
<g id="node1" class="node">
<title>AppComponent</title>
<polygon fill="#ffffb3" stroke="#000000" points="2397.9399,-122 2292.0601,-122 2292.0601,-86 2397.9399,-86 2397.9399,-122"/>
<text text-anchor="middle" x="2345" y="-99.8" font-family="Times,serif" font-size="14.00" fill="#000000">AppComponent</text>
</g>
<!-- AppModule -->
<g id="node3" class="node">
<title>AppModule</title>
<polygon fill="#8dd3c7" stroke="#000000" points="1416.6571,-187 1413.6571,-191 1392.6571,-191 1389.6571,-187 1333.3429,-187 1333.3429,-151 1416.6571,-151 1416.6571,-187"/>
<text text-anchor="middle" x="1375" y="-164.8" font-family="Times,serif" font-size="14.00" fill="#000000">AppModule</text>
</g>
<!-- AppComponent&#45;&gt;AppModule -->
<g id="edge1" class="edge">
<title>AppComponent&#45;&gt;AppModule</title>
<path fill="none" stroke="#000000" d="M2345,-122.0908C2345,-145.1328 2345,-182 2345,-182 2345,-182 1426.6797,-182 1426.6797,-182"/>
<polygon fill="#000000" stroke="#000000" points="1426.6797,-178.5001 1416.6797,-182 1426.6797,-185.5001 1426.6797,-178.5001"/>
</g>
<!-- PageNotFoundComponent -->
<g id="node2" class="node">
<title>PageNotFoundComponent</title>
<polygon fill="#ffffb3" stroke="#000000" points="2274.8243,-122 2109.1757,-122 2109.1757,-86 2274.8243,-86 2274.8243,-122"/>
<text text-anchor="middle" x="2192" y="-99.8" font-family="Times,serif" font-size="14.00" fill="#000000">PageNotFoundComponent</text>
</g>
<!-- PageNotFoundComponent&#45;&gt;AppModule -->
<g id="edge2" class="edge">
<title>PageNotFoundComponent&#45;&gt;AppModule</title>
<path fill="none" stroke="#000000" d="M2192,-122.0449C2192,-143.6623 2192,-177 2192,-177 2192,-177 1426.9213,-177 1426.9213,-177"/>
<polygon fill="#000000" stroke="#000000" points="1426.9213,-173.5001 1416.9213,-177 1426.9213,-180.5001 1426.9213,-173.5001"/>
</g>
<!-- AppComponent  -->
<g id="node12" class="node">
<title>AppComponent </title>
<polygon fill="#80b1d3" stroke="#000000" points="1429.439,-252 1320.561,-252 1320.561,-216 1429.439,-216 1429.439,-252"/>
<text text-anchor="middle" x="1375" y="-229.8" font-family="Times,serif" font-size="14.00" fill="#000000">AppComponent </text>
</g>
<!-- AppModule&#45;&gt;AppComponent  -->
<g id="edge11" class="edge">
<title>AppModule&#45;&gt;AppComponent </title>
<path fill="none" stroke="#000000" stroke-dasharray="1,5" d="M1375,-187.1061C1375,-187.1061 1375,-205.991 1375,-205.991"/>
<polygon fill="#000000" stroke="#000000" points="1371.5001,-205.9909 1375,-215.991 1378.5001,-205.991 1371.5001,-205.9909"/>
</g>
<!-- BrowserModule -->
<g id="node4" class="node">
<title>BrowserModule</title>
<polygon fill="#8dd3c7" stroke="#000000" points="2085.4734,-122 2082.4734,-126 2061.4734,-126 2058.4734,-122 1978.5266,-122 1978.5266,-86 2085.4734,-86 2085.4734,-122"/>
<text text-anchor="middle" x="2032" y="-99.8" font-family="Times,serif" font-size="14.00" fill="#000000">BrowserModule</text>
</g>
<!-- BrowserModule&#45;&gt;AppModule -->
<g id="edge3" class="edge">
<title>BrowserModule&#45;&gt;AppModule</title>
<path fill="none" stroke="#000000" d="M2032,-122.2228C2032,-142.3652 2032,-172 2032,-172 2032,-172 1426.8469,-172 1426.8469,-172"/>
<polygon fill="#000000" stroke="#000000" points="1426.8469,-168.5001 1416.8469,-172 1426.8469,-175.5001 1426.8469,-168.5001"/>
</g>
<!-- BrowserAnimationsModule -->
<g id="node5" class="node">
<title>BrowserAnimationsModule</title>
<polygon fill="#8dd3c7" stroke="#000000" points="1960.3019,-122 1957.3019,-126 1936.3019,-126 1933.3019,-122 1787.6981,-122 1787.6981,-86 1960.3019,-86 1960.3019,-122"/>
<text text-anchor="middle" x="1874" y="-99.8" font-family="Times,serif" font-size="14.00" fill="#000000">BrowserAnimationsModule</text>
</g>
<!-- BrowserAnimationsModule&#45;&gt;AppModule -->
<g id="edge4" class="edge">
<title>BrowserAnimationsModule&#45;&gt;AppModule</title>
<path fill="none" stroke="#000000" d="M1874,-122.2222C1874,-140.8285 1874,-167 1874,-167 1874,-167 1426.6862,-167 1426.6862,-167"/>
<polygon fill="#000000" stroke="#000000" points="1426.6862,-163.5001 1416.6862,-167 1426.6861,-170.5001 1426.6862,-163.5001"/>
</g>
<!-- HttpModule -->
<g id="node6" class="node">
<title>HttpModule</title>
<polygon fill="#8dd3c7" stroke="#000000" points="1770.4387,-122 1767.4387,-126 1746.4387,-126 1743.4387,-122 1685.5613,-122 1685.5613,-86 1770.4387,-86 1770.4387,-122"/>
<text text-anchor="middle" x="1728" y="-99.8" font-family="Times,serif" font-size="14.00" fill="#000000">HttpModule</text>
</g>
<!-- HttpModule&#45;&gt;AppModule -->
<g id="edge5" class="edge">
<title>HttpModule&#45;&gt;AppModule</title>
<path fill="none" stroke="#000000" d="M1728,-122.0336C1728,-139.0597 1728,-162 1728,-162 1728,-162 1426.8799,-162 1426.8799,-162"/>
<polygon fill="#000000" stroke="#000000" points="1426.88,-158.5001 1416.8799,-162 1426.8799,-165.5001 1426.88,-158.5001"/>
</g>
<!-- IonicModule.forRoot() -->
<g id="node7" class="node">
<title>IonicModule.forRoot()</title>
<polygon fill="#8dd3c7" stroke="#000000" points="1667.1855,-122 1664.1855,-126 1643.1855,-126 1640.1855,-122 1522.8145,-122 1522.8145,-86 1667.1855,-86 1667.1855,-122"/>
<text text-anchor="middle" x="1595" y="-99.8" font-family="Times,serif" font-size="14.00" fill="#000000">IonicModule.forRoot()</text>
</g>
<!-- IonicModule.forRoot()&#45;&gt;AppModule -->
<g id="edge6" class="edge">
<title>IonicModule.forRoot()&#45;&gt;AppModule</title>
<path fill="none" stroke="#000000" d="M1595,-122.2396C1595,-137.5706 1595,-157 1595,-157 1595,-157 1426.8982,-157 1426.8982,-157"/>
<polygon fill="#000000" stroke="#000000" points="1426.8982,-153.5001 1416.8982,-157 1426.8981,-160.5001 1426.8982,-153.5001"/>
</g>
<!-- AppRoutingModule -->
<g id="node8" class="node">
<title>AppRoutingModule</title>
<polygon fill="#8dd3c7" stroke="#000000" points="1504.2744,-122 1501.2744,-126 1480.2744,-126 1477.2744,-122 1375.7256,-122 1375.7256,-86 1504.2744,-86 1504.2744,-122"/>
<text text-anchor="middle" x="1440" y="-99.8" font-family="Times,serif" font-size="14.00" fill="#000000">AppRoutingModule</text>
</g>
<!-- AppRoutingModule&#45;&gt;AppModule -->
<g id="edge7" class="edge">
<title>AppRoutingModule&#45;&gt;AppModule</title>
<path fill="none" stroke="#000000" d="M1396.2206,-122.1061C1396.2206,-122.1061 1396.2206,-140.991 1396.2206,-140.991"/>
<polygon fill="#000000" stroke="#000000" points="1392.7206,-140.9909 1396.2206,-150.991 1399.7206,-140.991 1392.7206,-140.9909"/>
</g>
<!-- LoginModule -->
<g id="node9" class="node">
<title>LoginModule</title>
<polygon fill="#8dd3c7" stroke="#000000" points="1357.493,-122 1354.493,-126 1333.493,-126 1330.493,-122 1264.507,-122 1264.507,-86 1357.493,-86 1357.493,-122"/>
<text text-anchor="middle" x="1311" y="-99.8" font-family="Times,serif" font-size="14.00" fill="#000000">LoginModule</text>
</g>
<!-- LoginModule&#45;&gt;AppModule -->
<g id="edge8" class="edge">
<title>LoginModule&#45;&gt;AppModule</title>
<path fill="none" stroke="#000000" d="M1345.3342,-122.1061C1345.3342,-122.1061 1345.3342,-140.991 1345.3342,-140.991"/>
<polygon fill="#000000" stroke="#000000" points="1341.8342,-140.9909 1345.3342,-150.991 1348.8342,-140.991 1341.8342,-140.9909"/>
</g>
<!-- SideMenuNavigationModule -->
<g id="node10" class="node">
<title>SideMenuNavigationModule</title>
<polygon fill="#8dd3c7" stroke="#000000" points="1246.8047,-122 1243.8047,-126 1222.8047,-126 1219.8047,-122 1067.1953,-122 1067.1953,-86 1246.8047,-86 1246.8047,-122"/>
<text text-anchor="middle" x="1157" y="-99.8" font-family="Times,serif" font-size="14.00" fill="#000000">SideMenuNavigationModule</text>
</g>
<!-- SideMenuNavigationModule&#45;&gt;AppModule -->
<g id="edge9" class="edge">
<title>SideMenuNavigationModule&#45;&gt;AppModule</title>
<path fill="none" stroke="#000000" d="M1157,-122.2396C1157,-137.5706 1157,-157 1157,-157 1157,-157 1323.2253,-157 1323.2253,-157"/>
<polygon fill="#000000" stroke="#000000" points="1323.2254,-160.5001 1333.2253,-157 1323.2253,-153.5001 1323.2254,-160.5001"/>
</g>
<!-- HttpClientModule -->
<g id="node11" class="node">
<title>HttpClientModule</title>
<polygon fill="#8dd3c7" stroke="#000000" points="1049.1611,-122 1046.1611,-126 1025.1611,-126 1022.1611,-122 930.8389,-122 930.8389,-86 1049.1611,-86 1049.1611,-122"/>
<text text-anchor="middle" x="990" y="-99.8" font-family="Times,serif" font-size="14.00" fill="#000000">HttpClientModule</text>
</g>
<!-- HttpClientModule&#45;&gt;AppModule -->
<g id="edge10" class="edge">
<title>HttpClientModule&#45;&gt;AppModule</title>
<path fill="none" stroke="#000000" d="M990,-122.0336C990,-139.0597 990,-162 990,-162 990,-162 1323.0654,-162 1323.0654,-162"/>
<polygon fill="#000000" stroke="#000000" points="1323.0654,-165.5001 1333.0654,-162 1323.0653,-158.5001 1323.0654,-165.5001"/>
</g>
<!-- StatusBar -->
<g id="node13" class="node">
<title>StatusBar</title>
<ellipse fill="#fdb462" stroke="#000000" cx="858" cy="-104" rx="48.6694" ry="18"/>
<text text-anchor="middle" x="858" y="-99.8" font-family="Times,serif" font-size="14.00" fill="#000000">StatusBar</text>
</g>
<!-- StatusBar&#45;&gt;AppModule -->
<g id="edge12" class="edge">
<title>StatusBar&#45;&gt;AppModule</title>
<path fill="none" stroke="#000000" d="M858,-122.2222C858,-140.8285 858,-167 858,-167 858,-167 1323.1297,-167 1323.1297,-167"/>
<polygon fill="#000000" stroke="#000000" points="1323.1297,-170.5001 1333.1297,-167 1323.1296,-163.5001 1323.1297,-170.5001"/>
</g>
<!-- SplashScreen -->
<g id="node14" class="node">
<title>SplashScreen</title>
<ellipse fill="#fdb462" stroke="#000000" cx="728" cy="-104" rx="63.1189" ry="18"/>
<text text-anchor="middle" x="728" y="-99.8" font-family="Times,serif" font-size="14.00" fill="#000000">SplashScreen</text>
</g>
<!-- SplashScreen&#45;&gt;AppModule -->
<g id="edge13" class="edge">
<title>SplashScreen&#45;&gt;AppModule</title>
<path fill="none" stroke="#000000" d="M728,-122.2228C728,-142.3652 728,-172 728,-172 728,-172 1323.047,-172 1323.047,-172"/>
<polygon fill="#000000" stroke="#000000" points="1323.0471,-175.5001 1333.047,-172 1323.047,-168.5001 1323.0471,-175.5001"/>
</g>
<!-- XmlJson -->
<g id="node15" class="node">
<title>XmlJson</title>
<ellipse fill="#fdb462" stroke="#000000" cx="602" cy="-104" rx="45.2439" ry="18"/>
<text text-anchor="middle" x="602" y="-99.8" font-family="Times,serif" font-size="14.00" fill="#000000">XmlJson</text>
</g>
<!-- XmlJson&#45;&gt;AppModule -->
<g id="edge14" class="edge">
<title>XmlJson&#45;&gt;AppModule</title>
<path fill="none" stroke="#000000" d="M602,-122.0449C602,-143.6623 602,-177 602,-177 602,-177 1323.1661,-177 1323.1661,-177"/>
<polygon fill="#000000" stroke="#000000" points="1323.1661,-180.5001 1333.1661,-177 1323.166,-173.5001 1323.1661,-180.5001"/>
</g>
<!-- { provide: RouteReuseStrategy, useClass: IonicRouteStrategy } -->
<g id="node16" class="node">
<title>{ provide: RouteReuseStrategy, useClass: IonicRouteStrategy }</title>
<ellipse fill="#fdb462" stroke="#000000" cx="281" cy="-104" rx="257.2723" ry="18"/>
<text text-anchor="middle" x="281" y="-99.8" font-family="Times,serif" font-size="14.00" fill="#000000">{ provide: RouteReuseStrategy, useClass: IonicRouteStrategy }</text>
</g>
<!-- { provide: RouteReuseStrategy, useClass: IonicRouteStrategy }&#45;&gt;AppModule -->
<g id="edge15" class="edge">
<title>{ provide: RouteReuseStrategy, useClass: IonicRouteStrategy }&#45;&gt;AppModule</title>
<path fill="none" stroke="#000000" d="M281,-122.0908C281,-145.1328 281,-182 281,-182 281,-182 1323.1176,-182 1323.1176,-182"/>
<polygon fill="#000000" stroke="#000000" points="1323.1176,-185.5001 1333.1176,-182 1323.1176,-178.5001 1323.1176,-185.5001"/>
</g>
</g>
</svg>
