<?xml version="1.0" encoding="iso-8859-1"?>
<!-- Generator: Adobe Illustrator 19.0.0, SVG Export Plug-In . SVG Version: 6.00 Build 0)  -->
<svg version="1.1" id="Capa_1" xmlns="http://www.w3.org/2000/svg" xmlns:xlink="http://www.w3.org/1999/xlink" x="0px" y="0px"
	 viewBox="0 0 368 368" style="enable-background:new 0 0 368 368;" xml:space="preserve">
<g>
	<g>
		<path d="M288,32.408V8c0-4.424-3.584-8-8-8H8C3.584,0,0,3.576,0,8v352c0,4.424,3.584,8,8,8h272c4.416,0,8-3.576,8-8v-65.048
			l35.56,23.704c1.344,0.888,2.888,1.344,4.44,1.344c1.296,0,2.592-0.312,3.776-0.944c2.6-1.392,4.224-4.104,4.224-7.056V187.832
			c19.528-16.152,32-40.56,32-67.832C368,74.176,332.784,36.464,288,32.408z M16,16h256v16.408C256.304,33.832,241.8,39.4,229.56,48
			H16V16z M272,352H16V64h196.168c-7.656,9.264-13.392,20.136-16.76,32H56c-4.416,0-8,3.576-8,8v64c0,4.424,3.584,8,8,8h156.168
			c3.56,4.304,7.52,8.264,11.832,11.832V312c0,2.952,1.624,5.664,4.224,7.056c2.592,1.392,5.752,1.232,8.208-0.4L272,294.952V352z
			 M201.712,160H64v-48h128.408c-0.24,2.64-0.408,5.296-0.408,8C192,134.408,195.552,147.984,201.712,160z M320,297.056
			l-35.56-23.712c-0.272-0.184-0.584-0.264-0.872-0.408c-0.264-0.136-0.512-0.272-0.792-0.376c-1.8-0.672-3.752-0.672-5.552,0
			c-0.28,0.104-0.528,0.24-0.792,0.376c-0.288,0.144-0.6,0.232-0.872,0.408L240,297.056v-98.768c12.016,6.16,25.592,9.712,40,9.712
			c14.408,0,27.984-3.552,40-9.712V297.056z M280,192c-39.696,0-72-32.296-72-72s32.304-72,72-72s72,32.296,72,72
			S319.696,192,280,192z"/>
	</g>
</g>
<g>
	<g>
		<path d="M280,80c-22.056,0-40,17.944-40,40c0,22.056,17.944,40,40,40c22.056,0,40-17.944,40-40C320,97.944,302.056,80,280,80z
			 M280,144c-13.232,0-24-10.768-24-24s10.768-24,24-24s24,10.768,24,24S293.232,144,280,144z"/>
	</g>
</g>
<g>
	<g>
		<path d="M184,208H56c-4.416,0-8,3.576-8,8s3.584,8,8,8h128c4.416,0,8-3.576,8-8S188.416,208,184,208z"/>
	</g>
</g>
<g>
	<g>
		<path d="M184,256H56c-4.416,0-8,3.576-8,8s3.584,8,8,8h128c4.416,0,8-3.576,8-8S188.416,256,184,256z"/>
	</g>
</g>
<g>
	<g>
		<path d="M184,304H56c-4.416,0-8,3.576-8,8s3.584,8,8,8h128c4.416,0,8-3.576,8-8S188.416,304,184,304z"/>
	</g>
</g>
<g>
</g>
<g>
</g>
<g>
</g>
<g>
</g>
<g>
</g>
<g>
</g>
<g>
</g>
<g>
</g>
<g>
</g>
<g>
</g>
<g>
</g>
<g>
</g>
<g>
</g>
<g>
</g>
<g>
</g>
</svg>
