<svg xmlns="http://www.w3.org/2000/svg" xmlns:xlink="http://www.w3.org/1999/xlink" viewBox="0 0 185.99 110.97"><defs><style>.cls-1,.cls-14{fill:none;}.cls-2{clip-path:url(#clip-path);}.cls-3{fill:#fec4ad;}.cls-4{fill:#133a50;}.cls-5{fill:#e9f2f4;}.cls-6{fill:#d74473;}.cls-7{fill:#184867;}.cls-8{fill:#aebfde;}.cls-9{fill:#613531;}.cls-10{fill:#722e20;}.cls-11{fill:#ddae8a;}.cls-12{fill:#954031;}.cls-13{fill:#808194;}.cls-14{stroke:#aebfde;stroke-miterlimit:10;stroke-width:0.25px;}.cls-15{fill:#97a3cc;}.cls-16{fill:url(#linear-gradient);}</style><clipPath id="clip-path" transform="translate(-211.9 -52.14)"><rect class="cls-1" width="451" height="311"/></clipPath><linearGradient id="linear-gradient" x1="423.8" y1="237.78" x2="454.94" y2="237.46" gradientTransform="matrix(0.92, -0.32, 0.45, 0.93, -292.46, 31.05)" gradientUnits="userSpaceOnUse"><stop offset="0" stop-color="#eef4fb"/><stop offset="0.31" stop-color="#e3edf8"/><stop offset="1" stop-color="#cfe1f3"/></linearGradient></defs><title>OBJECTS</title><g id="Layer_2" data-name="Layer 2"><g id="OBJECTS"><g class="cls-2"><path class="cls-3" d="M242,107.73c.27,0-3.2-3.52-3.2-3.52l-3.07-1.13s-1.48-1.45-2.34-2.53-5-2.5-5-2.5l-.91,1.13a15.94,15.94,0,0,1,2.19,1.29,2.19,2.19,0,0,1,.33,1.26,22.52,22.52,0,0,1-3-.36,26.36,26.36,0,0,1-4.83-1.8l-.64,1a22.33,22.33,0,0,0,2.15,1.29c.69.32,2.13.9,2.13.9a25,25,0,0,1-3.33-.77c-.95-.37-2.19-.72-2.19-.72l-.42,1a20.15,20.15,0,0,0,2.63,1.08c1.09.32,2.93,1,2.93,1a32.07,32.07,0,0,1-3.45-.42,11.22,11.22,0,0,0-1.19-.28l-.12,1.15a8.74,8.74,0,0,0,2.53.75,11.55,11.55,0,0,1,2,.4,13.44,13.44,0,0,1-2.85-.06,2.25,2.25,0,0,0-.94-.17l0,.9s3.43,1,5.52,1.42,4.8.55,6.3.73,6.17,1.18,6.17,1.18Z" transform="translate(-211.9 -52.14)"/><path class="cls-4" d="M289.18,87.48l-18.85,18.46s-17.82.68-24.7-.52l-6.88-1.21L237,110.75s29.59,7.53,33.31,7.35,19.58-8.92,19.58-8.92S293,94.93,289.18,87.48Z" transform="translate(-211.9 -52.14)"/><path class="cls-4" d="M290.27,140.36l18.93,1.28,18.92-1.28s1.51,32.3,1.75,59.55c.27,31.06-.41,60.28-.41,60.28h-5.85s-4.71-25.82-6.75-44.11-8.47-50.87-8.47-50.87-4.83,32.58-6.86,50.87-5.83,44.11-5.83,44.11h-6.77s-.17-33-.41-60.28C288.25,167.91,290.27,140.36,290.27,140.36Z" transform="translate(-211.9 -52.14)"/><path class="cls-3" d="M375.69,108.73c-.27,0,3.27-3.46,3.27-3.46l3.1-1.06a33.07,33.07,0,0,0,2.39-2.48c.89-1.06,5.05-2.39,5.05-2.39l.88,1.15a15.69,15.69,0,0,0-2.21,1.24,2.27,2.27,0,0,0-.35,1.26,23.51,23.51,0,0,0,3-.3,26,26,0,0,0,4.87-1.7l.62,1a23.33,23.33,0,0,1-2.18,1.24c-.7.3-2.15.85-2.15.85a25.09,25.09,0,0,0,3.35-.7c.95-.35,2.2-.67,2.2-.67l.4,1a21.27,21.27,0,0,1-2.65,1c-1.1.3-2.95.9-2.95.9a32.87,32.87,0,0,0,3.45-.35,11.46,11.46,0,0,1,1.2-.25l.1,1.15a8.77,8.77,0,0,1-2.55.7,12.24,12.24,0,0,0-2.05.35,13.12,13.12,0,0,0,2.85,0,2.41,2.41,0,0,1,.95-.15l-.05.9s-3.45.9-5.55,1.3-4.81.45-6.31.6-6.2,1-6.2,1Z" transform="translate(-211.9 -52.14)"/><path class="cls-4" d="M328.9,87.48l18.46,18.86s17.79,1.06,24.7,0l6.9-1.07,1.6,5.72s-29.75,7.77-33.47,7.5-19.38-9.33-19.38-9.33S324.91,94.85,328.9,87.48Z" transform="translate(-211.9 -52.14)"/><path class="cls-3" d="M303.63,80.43c1-1.68,1.24-5.3,1.24-5.3h8.45s.62,5.3,1.84,6.34,5.06,3,7.83,4.19q-.66,6.06-1.51,12.08H298.62q-.64-6.49-1.41-13C299.39,83.78,302.6,82.11,303.63,80.43Z" transform="translate(-211.9 -52.14)"/><path class="cls-5" d="M327.81,144.22c-11.95.45-23.9,1.16-35.86,1.36.43-9.18,1.7-31,.57-39.63a59.11,59.11,0,0,1,.5-18.47l8-5.57,3,2.62,5.22,3,6.94-3,.94-2.62,10.06,5.57a59.11,59.11,0,0,1,.5,18.47C326.6,114.2,327.44,133.75,327.81,144.22Z" transform="translate(-211.9 -52.14)"/><polygon class="cls-6" points="98.74 38.8 100.72 71.06 97.17 74.99 93.99 71.64 95.78 38.8 98.74 38.8"/><polygon class="cls-6" points="100.69 36.51 98.74 38.8 95.78 38.8 93.59 35.75 97.35 35.34 100.69 36.51"/><path class="cls-7" d="M300.93,90.37l-2.48-7.59-9.23,4.7s.93,18.35,0,23.93-.37,35-.37,35h13.73c5.16,0,5.37-2.79,5.37-2.79A96.44,96.44,0,0,0,308,117,136.44,136.44,0,0,0,300.93,90.37Z" transform="translate(-211.9 -52.14)"/><path class="cls-4" d="M301.34,81.91s2.48,13.21,4.55,21.06A61.3,61.3,0,0,1,308,117L297.21,99.46l2.48-3.2-2.48-2.79,1.24-10.69Z" transform="translate(-211.9 -52.14)"/><path class="cls-7" d="M317.18,90.37l2.48-7.59,9.24,4.7s-.93,18.35,0,23.93.36,35,.36,35H315.53c-5.16,0-5.37-2.79-5.37-2.79a96.91,96.91,0,0,1,0-26.58A137.26,137.26,0,0,1,317.18,90.37Z" transform="translate(-211.9 -52.14)"/><path class="cls-4" d="M316.77,81.91s-2.48,13.21-4.54,21.06a61,61,0,0,0-2.07,14L320.9,99.46l-2.48-3.2,2.48-2.79-1.24-10.69Z" transform="translate(-211.9 -52.14)"/><polygon class="cls-8" points="89.11 29.76 91.02 28.29 97.35 35.34 93.21 38.8 89.11 29.76"/><polygon class="cls-8" points="105.22 29.76 103.31 28.29 97.35 35.34 101.49 38.8 105.22 29.76"/><path class="cls-4" d="M294.26,258.43v7.68H283.84s.39-2.08,5.33-3l.73-4.64Z" transform="translate(-211.9 -52.14)"/><path class="cls-4" d="M324.72,258.43v7.68h10.42s-.39-2.08-5.33-3l-.73-4.64Z" transform="translate(-211.9 -52.14)"/><path class="cls-3" d="M300.43,62.89s.11-3.61,2.34-5.24,6.47-1.75,6.47-1.75,4.25.12,6.48,1.75,2.34,5.24,2.34,5.24c-.11.7.7,5.9-1,10.25a12.55,12.55,0,0,1-4.43,5.77c-3.18,2-5.26,1-7.28-.12-1.84-1-3.38-3.37-4.21-5.73C300,70,300.38,63.4,300.43,62.89Z" transform="translate(-211.9 -52.14)"/><path class="cls-9" d="M301.88,54.71a11.14,11.14,0,0,1,15,.66c4.41,4.33,2.42,11.84,2.42,11.84-.73.44-.72.24-.81,1.18l-1.06.38s.67-2.93-.14-3.66-.52-1.76-.61-3c-.05-.75-.21-2.63-1.8-3.33-1.08-.48-2.12,1-4.95,1.07-3.54,0-4.73-1.41-5.81-1a3.53,3.53,0,0,0-2.14,3.55c0,1.24.26,1.8-.52,2.59s-.47,3.67-.47,3.67l-.82-.29c-.16-1.59-.19-1.33-.94-1.74C299.19,66.62,297,59.06,301.88,54.71Z" transform="translate(-211.9 -52.14)"/><path class="cls-3" d="M300.71,68.59c-.14-1.31-.52-2.82-1.26-3.44s-1.71.54-1.4,2.44,2.66,2.56,2.66,2.56Z" transform="translate(-211.9 -52.14)"/><path class="cls-3" d="M317.78,68.59c.14-1.31.52-2.82,1.26-3.44s1.71.54,1.4,2.44-2.66,3.35-2.66,3.35Z" transform="translate(-211.9 -52.14)"/><path id="_Path_" data-name="&lt;Path&gt;" class="cls-10" d="M371.86,73.88c-.27,4.45-1.29,7.19-2.25,8.05a57.94,57.94,0,0,1-6.33-.47,39.86,39.86,0,0,0-10.21.47,16,16,0,0,1-2.3-12.34c1.68-6.91,4.86-9.74,8.53-10.86s8,1.42,8,1.42S372.1,69.87,371.86,73.88Z" transform="translate(-211.9 -52.14)"/><path class="cls-3" d="M365.56,146.07c-.94,9.78-1.34,35-2.92,44.15s-5.91,46.67-6.22,51.4.31,16.71,1.58,18.6,4.41,5.68,4.41,5.68H351s1.26-4.73,0-16.08-4.33-30.44-3.06-45.81-1.58-35.31-2.53-45.2,3-22.2,3-22.2Z" transform="translate(-211.9 -52.14)"/><path class="cls-3" d="M379.41,146.07c-.94,9.78.15,35-1.43,44.15s-4.41,46.67-4.73,51.4.32,16.71,1.58,18.6,10.38,5.68,10.38,5.68l-5-.86-8.21-.47-4.21,1.33s1.26-4.73,0-16.08S362.57,224,363.25,204c.52-15.41-3.07-35.31-4-45.2a155.44,155.44,0,0,1,0-22.2Z" transform="translate(-211.9 -52.14)"/><polygon id="_Path_2" data-name="&lt;Path&gt;" class="cls-3" points="165.85 66.64 134.59 59.1 134.59 35.88 144.07 32.47 158.7 33.76 161.67 36.09 165.85 66.64"/><rect id="_Path_3" data-name="&lt;Path&gt;" class="cls-3" x="145.53" y="22.78" width="8.68" height="14.13"/><g id="_Group_" data-name="&lt;Group&gt;"><path id="_Path_4" data-name="&lt;Path&gt;" class="cls-3" d="M369.55,75.23h0l.05-6.16h1.17a1.33,1.33,0,0,1,1.31,1.33l0,2.35A2.48,2.48,0,0,1,369.55,75.23Z" transform="translate(-211.9 -52.14)"/><path id="_Path_5" data-name="&lt;Path&gt;" class="cls-11" d="M370.37,73.67h-.07l0-3.55h.58a.5.5,0,0,1,.5.51v2A1,1,0,0,1,370.37,73.67Z" transform="translate(-211.9 -52.14)"/></g><g id="_Group_2" data-name="&lt;Group&gt;"><path id="_Path_6" data-name="&lt;Path&gt;" class="cls-3" d="M354.52,75.23h0l0-6.16h-1.17A1.32,1.32,0,0,0,352,70.41l0,2.35A2.48,2.48,0,0,0,354.52,75.23Z" transform="translate(-211.9 -52.14)"/><path id="_Path_7" data-name="&lt;Path&gt;" class="cls-11" d="M353.7,73.67h.07l0-3.55h-.58a.5.5,0,0,0-.5.51v2A1,1,0,0,0,353.7,73.67Z" transform="translate(-211.9 -52.14)"/></g><path id="_Path_8" data-name="&lt;Path&gt;" class="cls-3" d="M370.62,63.33A48,48,0,0,1,370.7,71a13.35,13.35,0,0,1-1.36,5.3c-.53,1.36-3.61,3.92-5.85,5a4.1,4.1,0,0,1-2.4.08c-2.87-.79-5.84-4.09-6.73-6.1a19.41,19.41,0,0,1-1.06-6.56c-.05-2.41-.06-5.52,0-7.32C353.63,55.11,370.52,60.68,370.62,63.33Z" transform="translate(-211.9 -52.14)"/><polygon class="cls-5" points="141.19 36.91 143.36 32.33 150.04 34.16 156.01 32.33 157.8 32.77 159.58 40.23 154.96 67.23 143.45 47.85 141.19 36.91"/><path class="cls-4" d="M385.91,121.16c-.27-2-1.71-15.08-2.4-17.56-1.16-4.18-2.71-8.53-4.12-10.81s-4.54-6.44-4.54-6.44l-2.09,12.7s1.61,15.11,3.92,18.58c.79,1.19,3.19,2.08,4,2.87C380.83,119.6,385,124.63,385.91,121.16Z" transform="translate(-211.9 -52.14)"/><path class="cls-4" d="M379.45,141.68q.62,2.46,1.41,5.2c4.9,17.05-2.31,44.23-2.31,44.23-5.57,2-7,3-16.84,2-4.44-.45-8.18-.73-13.74-2.75,0,0-3.94-8-3.87-33.52a74.55,74.55,0,0,1,2-15.19Z" transform="translate(-211.9 -52.14)"/><path class="cls-7" d="M377.32,115.71c-1,4.25,2.79,23.2,3.62,29a40.1,40.1,0,0,1-14.14,2.15c-19.12-.83-22.7-.26-22.7-.26.78-5.28,4.85-23.9,3.36-29.75-1.87-7.36-4.6-16.24-4.6-16.24s.91-10.71,1.52-12.58l10-3.32L367.64,111,372,85.42l2.88.93c.61,1.87,2.51,10.19,3.74,14.22a17.85,17.85,0,0,1,.72,8.09C379,111.09,378.05,112.66,377.32,115.71Z" transform="translate(-211.9 -52.14)"/><path id="_Path_9" data-name="&lt;Path&gt;" class="cls-4" d="M355.26,84.47,352,85.56l1.35,7.83,3.14-.67,0,4.65c6,2.57,11.35,13.87,11.35,13.87s-4.05-11.55-5.95-15.15C356.9,86.58,355.26,84.47,355.26,84.47Z" transform="translate(-211.9 -52.14)"/><path class="cls-4" d="M354.61,117.4c-.4-6.6-.59-18-.59-18L344.38,88s-2.15.25-2.66,6.69c-.2,2.56,2,16.52,2.76,24.86.56,6.38,1.46,5.36,1,5.41s9,2.88,11.24,1.41C355.56,122.21,354.67,123.21,354.61,117.4Z" transform="translate(-211.9 -52.14)"/><path id="_Path_10" data-name="&lt;Path&gt;" class="cls-4" d="M369.18,84.78l2.79.64,2.31,6.49-2.52-.35,1.7,5.17c-3.4,3.14-5.78,14.51-5.78,14.51s.41-9.77.9-15.42C369.39,86.35,369.18,84.78,369.18,84.78Z" transform="translate(-211.9 -52.14)"/><path class="cls-8" d="M364,85.63s1-.42,2.15-2.57l1.8,1.41-2.16,6.27Z" transform="translate(-211.9 -52.14)"/><path class="cls-8" d="M364,85.63s-5-.42-6.67-2.57l-2,1.41,5.8,6.15Z" transform="translate(-211.9 -52.14)"/><path id="_Path_11" data-name="&lt;Path&gt;" class="cls-12" d="M364.07,56.06c-1,.6-.85,3.36-.57,4.73s3.43,4.63,5.43,8.4-1.39,12-2.36,14.54a14.47,14.47,0,0,0,5.61-2.62c2.17-1.88,2.4-2.81,2.4-5.71s-.54-12.71-2.42-16.18S366.52,54.64,364.07,56.06Z" transform="translate(-211.9 -52.14)"/><path id="_Path_12" data-name="&lt;Path&gt;" class="cls-12" d="M359.66,63.7c-3.74,1.63-4.32,4.77-4.56,8.33-.21,3.28,1.43,10,2.86,11.7,0,0-6.48-.57-7.6-3.61s.48-16,1.52-19a11,11,0,0,1,7.23-6.45c3.87-.77,5.94.12,6.25,2S363.78,61.9,359.66,63.7Z" transform="translate(-211.9 -52.14)"/><path class="cls-3" d="M361.52,117.71c-.77-1.56-2.53-3.5-2.85-5.38a4.49,4.49,0,0,0-3.11-3.57,30,30,0,0,0-4.16-1.3c-.9-.26-1.16.71.13,1.3a29.53,29.53,0,0,1,2.79,1.3,2.85,2.85,0,0,1,.85,1.23,10.36,10.36,0,0,0-4-.85c-1.95.07-3.44-.06-3.5.52s.84,1.17,2.66,1.24,2.92.32,3.3.77a2.7,2.7,0,0,0,.94.68s-2.82-.22-4.24-.29-2.53,1-1.69,1.37a17.43,17.43,0,0,0,3.83.26,3,3,0,0,1,2.1,1.49s-1.52.13-3.14.19-2.21.65-1.17,1,3.17.15,4.31.32a31.87,31.87,0,0,1,3.54,1Z" transform="translate(-211.9 -52.14)"/><path class="cls-13" d="M359.9,124.07c-2.74.23-2.59-5-2.59-5s4.68-2.45,4.9-.25S359.9,124.07,359.9,124.07Z" transform="translate(-211.9 -52.14)"/><path class="cls-3" d="M362.09,115.86c-1.41,0-3.78-1.41-6,0a19.78,19.78,0,0,0-3.65,2.87s4.48-.07,6.93,1.09a28.44,28.44,0,0,1,4.86,3.11Z" transform="translate(-211.9 -52.14)"/><path class="cls-4" d="M362.09,115.86c.66,1.09-2.79,7.36-3.09,8.42a53.07,53.07,0,0,0,11.31,1.61c7.8.33,13.48.63,15.27-.59s-.39-10.56-5-8.79a21.21,21.21,0,0,1-11.22.68C365.28,116.33,362.09,115.86,362.09,115.86Z" transform="translate(-211.9 -52.14)"/><path class="cls-3" d="M368.31,115.71c1.41-.16,3.6-1.84,6-.73a20.17,20.17,0,0,1,4,2.43s-4.46.45-6.76,1.88a28.17,28.17,0,0,0-4.47,3.65Z" transform="translate(-211.9 -52.14)"/><path class="cls-4" d="M368.31,115.71c1.81.63,4,1.89,4,8a53.3,53.3,0,0,1-11.05,2.89c-7.71,1.23-13.38,0-15.3-1s-.93-10.06,3.16-9c2.91.78,8.18,2.53,12.11,1.22S368.31,115.71,368.31,115.71Z" transform="translate(-211.9 -52.14)"/><path class="cls-4" d="M357.87,259.43c-1.58-.31-2.14.32-3.56,1.26a6,6,0,0,1-3,.95v4.26h11Z" transform="translate(-211.9 -52.14)"/><path class="cls-4" d="M374.83,260.22s-.16,1.48-2.53,2.14a4,4,0,0,1-4-1.28l-.52,4.82h3l1.18-1.33,1.32,1.44h13.15Z" transform="translate(-211.9 -52.14)"/><path class="cls-4" d="M268.78,260.17v5.94H257.35s.43-2.15,5.85-3.14l.8-2.8Z" transform="translate(-211.9 -52.14)"/><path class="cls-4" d="M246.63,260.17v5.94H235.21s.43-2.15,5.85-3.14l.79-2.8Z" transform="translate(-211.9 -52.14)"/><path class="cls-3" d="M246,61.38c-1.13.74-4.13,3.38-4.74,5.56a39.83,39.83,0,0,0-1,9.42,9.09,9.09,0,0,0,3.42,6.94c2,1.36,6.07-.23,8.12-1.82s2.57-4.28,3.36-6.72a15.47,15.47,0,0,0,.55-5.21s1.48-4-.51-5.9C247.52,56.4,244.59,60,246,61.38Z" transform="translate(-211.9 -52.14)"/><path class="cls-9" d="M243,63.71c1.27,1.08,4.24,1.25,6.74,1.19s4.2-1.15,4.14.51-1.14,3.27-1.4,4.65a16.39,16.39,0,0,0-.21,3,31.44,31.44,0,0,1,3,2.81c.49.7-.25,5.29-.25,5.29a31.81,31.81,0,0,0,3-3.24,68.23,68.23,0,0,1,4-5.86c1.45-1.9,2-7.74-2.63-11.37s-8.52-4-11-3.22-4.56,1.27-4.56,1.27S240.9,61.91,243,63.71Z" transform="translate(-211.9 -52.14)"/><path class="cls-3" d="M253.94,72.91c.24-1.2.53-4.28,3.36-3.91s1.36,4.33.22,5.08a19.49,19.49,0,0,0-2.76,2.52A6,6,0,0,1,253.94,72.91Z" transform="translate(-211.9 -52.14)"/><path class="cls-4" d="M264.28,143.19a173.49,173.49,0,0,1,5.15,39.2c.07,20.3.28,77.76.28,77.76h-8.2s-6.45-55.43-9.52-68.48-11.07-51.24-11.07-51.24Z" transform="translate(-211.9 -52.14)"/><path class="cls-3" d="M255.67,74.55s.53,4.13,1,6.24a5.58,5.58,0,0,0,1.67,3.33c.51.51,6.23,4.43,6.23,4.43s-5.64,5.65-9.63,5.65-12.27-4.64-12.27-4.64,4.36-3.44,5-5.18a39,39,0,0,0,1-6.78Z" transform="translate(-211.9 -52.14)"/><path class="cls-4" d="M250.45,163.93s-1.54,30.93-1.84,37,0,59.17,0,59.17-7.69.21-7.69,0S233.68,204,232.74,189s-.39-32.8-1.63-34.88,3.36-13.82,3.36-13.82l10.87,2.9Z" transform="translate(-211.9 -52.14)"/><path class="cls-5" d="M261.51,84.83,273,92.39s-4.77,11.31-4.92,15.81-3.84,35-3.84,35-11.13,1.88-18.94,0-10.87-2.9-10.87-2.9.31-32.09.92-36.59,2.15-13.49,2.15-13.49l6.11-3.15L247,89.67Z" transform="translate(-211.9 -52.14)"/><path class="cls-14" d="M247,89.67s-4.94,29.12-3.62,52.6" transform="translate(-211.9 -52.14)"/><polygon class="cls-8" points="47.54 31.78 35.14 37.53 38.55 41.45 49.62 32.69 47.54 31.78"/><polygon class="cls-8" points="35.14 37.53 31.75 40.25 31.75 34.92 33.45 34.38 35.14 37.53"/><path class="cls-5" d="M273,92.39s6,29.58,6,30.89-9.44,27.74-12.56,30.64c0,0-2.43,1.23-5-2.54,0,0,2.24-6.32,3.62-10.81s2.46-19.18,2.46-19.18-7.61-10.56-7.68-16.82C259.69,91.23,273,92.39,273,92.39Z" transform="translate(-211.9 -52.14)"/><path class="cls-4" d="M266.42,87.62c.44.35.89.67,1.33,1-2,4.53-9.38,30-10.78,56.74l-1.63-.07C256.79,117.46,264.7,91.47,266.42,87.62Z" transform="translate(-211.9 -52.14)"/><path class="cls-4" d="M241.5,88.33c-1.37,5.16-5.71,31.22-3.1,57.42l-1.63.14c-2.52-25.36,1.41-51.12,3-57.24Z" transform="translate(-211.9 -52.14)"/><path id="_Path_13" data-name="&lt;Path&gt;" class="cls-15" d="M239.63,121.18l-11.93,3.45a2.79,2.79,0,0,1-3.19-1.41L212.89,98.39a1.85,1.85,0,0,1,1.23-2.65L226,92.24c2.16-.21,3.23.21,3.78,1.35l11.65,24.65C241.93,119.39,241.72,120.2,239.63,121.18Z" transform="translate(-211.9 -52.14)"/><path id="_Path_14" data-name="&lt;Path&gt;" class="cls-16" d="M239,121.43l-12,3.47a2.79,2.79,0,0,1-3.2-1.41L212.1,98.55a1.86,1.86,0,0,1,1.24-2.66l11.89-3.51a2.89,2.89,0,0,1,3.32,1.41l11.75,24.87A2,2,0,0,1,239,121.43Z" transform="translate(-211.9 -52.14)"/><path class="cls-3" d="M218.68,113.93c-.22-.49-.43-1-.64-1.46.8-.34,1.89-1,2.51-1.23a8,8,0,0,1,2.34-.69l.33,1.23a10.54,10.54,0,0,0-2.33.88C220.22,113,219.3,113.56,218.68,113.93Z" transform="translate(-211.9 -52.14)"/><path class="cls-3" d="M218,112.3l-.65-1.48a35.66,35.66,0,0,1,3.6-1.85l.72,1s-1.75,1-2.41,1.44Z" transform="translate(-211.9 -52.14)"/><path class="cls-3" d="M219.37,115.53l-.62-1.43a24.87,24.87,0,0,0,2.82-1,11.66,11.66,0,0,1,1.2-.56l.43,1.12a9.75,9.75,0,0,1-2.51,1.38C220.12,115.21,219.7,115.39,219.37,115.53Z" transform="translate(-211.9 -52.14)"/><path class="cls-3" d="M219.47,115.75a9.72,9.72,0,0,0,2.17-.61,2.81,2.81,0,0,1,1-.4l.2.92s-1.28.68-2.75,1.42Z" transform="translate(-211.9 -52.14)"/><polygon class="cls-3" points="9.24 64.39 8.15 64.94 6.14 63.77 4.55 59.27 5.7 56.83 9.24 64.39"/></g></g></g></svg>