<?xml version="1.0" encoding="UTF-8" standalone="no"?>
<!DOCTYPE svg PUBLIC "-//W3C//DTD SVG 1.1//EN"
 "http://www.w3.org/Graphics/SVG/1.1/DTD/svg11.dtd">
<!-- Generated by graphviz version 2.40.1 (20161225.0304)
 -->
<!-- Title: dependencies Pages: 1 -->
<svg width="2085pt" height="211pt"
 viewBox="0.00 0.00 2085.00 211.00" xmlns="http://www.w3.org/2000/svg" xmlns:xlink="http://www.w3.org/1999/xlink">
<g id="graph0" class="graph" transform="scale(1 1) rotate(0) translate(4 207)">
<title>dependencies</title>
<polygon fill="#ffffff" stroke="transparent" points="-4,4 -4,-207 2081,-207 2081,4 -4,4"/>
<text text-anchor="start" x="1017.5091" y="-42.4" font-family="sans-serif" font-weight="bold" font-size="14.00" fill="#000000">Legend</text>
<polygon fill="#ffffb3" stroke="transparent" points="804.5,-10 804.5,-30 824.5,-30 824.5,-10 804.5,-10"/>
<text text-anchor="start" x="828.129" y="-15.4" font-family="sans-serif" font-size="14.00" fill="#000000"> &#160;Declarations</text>
<polygon fill="#8dd3c7" stroke="transparent" points="917.5,-10 917.5,-30 937.5,-30 937.5,-10 917.5,-10"/>
<text text-anchor="start" x="941.2251" y="-15.4" font-family="sans-serif" font-size="14.00" fill="#000000"> &#160;Module</text>
<polygon fill="#80b1d3" stroke="transparent" points="1003.5,-10 1003.5,-30 1023.5,-30 1023.5,-10 1003.5,-10"/>
<text text-anchor="start" x="1027.2812" y="-15.4" font-family="sans-serif" font-size="14.00" fill="#000000"> &#160;Bootstrap</text>
<polygon fill="#fdb462" stroke="transparent" points="1100.5,-10 1100.5,-30 1120.5,-30 1120.5,-10 1100.5,-10"/>
<text text-anchor="start" x="1124.1732" y="-15.4" font-family="sans-serif" font-size="14.00" fill="#000000"> &#160;Providers</text>
<polygon fill="#fb8072" stroke="transparent" points="1196.5,-10 1196.5,-30 1216.5,-30 1216.5,-10 1196.5,-10"/>
<text text-anchor="start" x="1220.2258" y="-15.4" font-family="sans-serif" font-size="14.00" fill="#000000"> &#160;Exports</text>
<g id="clust1" class="cluster">
<title>cluster_SideMenuNavigationModule</title>
<polygon fill="none" stroke="#000000" stroke-dasharray="1,5" points="8,-70 8,-195 2069,-195 2069,-70 8,-70"/>
</g>
<g id="clust2" class="cluster">
<title>cluster_SideMenuNavigationModule_declarations</title>
<polygon fill="none" stroke="#000000" points="1843,-78 1843,-130 2061,-130 2061,-78 1843,-78"/>
</g>
<g id="clust4" class="cluster">
<title>cluster_SideMenuNavigationModule_imports</title>
<polygon fill="none" stroke="#000000" points="148,-78 148,-130 1835,-130 1835,-78 148,-78"/>
</g>
<g id="clust7" class="cluster">
<title>cluster_SideMenuNavigationModule_providers</title>
<polygon fill="none" stroke="#000000" points="16,-78 16,-130 140,-130 140,-78 16,-78"/>
</g>
<!-- SideMenuNavigationComponent -->
<g id="node1" class="node">
<title>SideMenuNavigationComponent</title>
<polygon fill="#ffffb3" stroke="#000000" points="2052.587,-122 1851.413,-122 1851.413,-86 2052.587,-86 2052.587,-122"/>
<text text-anchor="middle" x="1952" y="-99.8" font-family="Times,serif" font-size="14.00" fill="#000000">SideMenuNavigationComponent</text>
</g>
<!-- SideMenuNavigationModule -->
<g id="node2" class="node">
<title>SideMenuNavigationModule</title>
<polygon fill="#8dd3c7" stroke="#000000" points="1167.8047,-187 1164.8047,-191 1143.8047,-191 1140.8047,-187 988.1953,-187 988.1953,-151 1167.8047,-151 1167.8047,-187"/>
<text text-anchor="middle" x="1078" y="-164.8" font-family="Times,serif" font-size="14.00" fill="#000000">SideMenuNavigationModule</text>
</g>
<!-- SideMenuNavigationComponent&#45;&gt;SideMenuNavigationModule -->
<g id="edge1" class="edge">
<title>SideMenuNavigationComponent&#45;&gt;SideMenuNavigationModule</title>
<path fill="none" stroke="#000000" d="M1952,-122.0908C1952,-145.1328 1952,-182 1952,-182 1952,-182 1177.8334,-182 1177.8334,-182"/>
<polygon fill="#000000" stroke="#000000" points="1177.8334,-178.5001 1167.8334,-182 1177.8333,-185.5001 1177.8334,-178.5001"/>
</g>
<!-- CommonModule -->
<g id="node3" class="node">
<title>CommonModule</title>
<polygon fill="#8dd3c7" stroke="#000000" points="1826.6681,-122 1823.6681,-126 1802.6681,-126 1799.6681,-122 1715.3319,-122 1715.3319,-86 1826.6681,-86 1826.6681,-122"/>
<text text-anchor="middle" x="1771" y="-99.8" font-family="Times,serif" font-size="14.00" fill="#000000">CommonModule</text>
</g>
<!-- CommonModule&#45;&gt;SideMenuNavigationModule -->
<g id="edge2" class="edge">
<title>CommonModule&#45;&gt;SideMenuNavigationModule</title>
<path fill="none" stroke="#000000" d="M1771,-122.2843C1771,-143.3211 1771,-175 1771,-175 1771,-175 1177.8872,-175 1177.8872,-175"/>
<polygon fill="#000000" stroke="#000000" points="1177.8872,-171.5001 1167.8872,-175 1177.8872,-178.5001 1177.8872,-171.5001"/>
</g>
<!-- FormsModule -->
<g id="node4" class="node">
<title>FormsModule</title>
<polygon fill="#8dd3c7" stroke="#000000" points="1697.8288,-122 1694.8288,-126 1673.8288,-126 1670.8288,-122 1602.1712,-122 1602.1712,-86 1697.8288,-86 1697.8288,-122"/>
<text text-anchor="middle" x="1650" y="-99.8" font-family="Times,serif" font-size="14.00" fill="#000000">FormsModule</text>
</g>
<!-- FormsModule&#45;&gt;SideMenuNavigationModule -->
<g id="edge3" class="edge">
<title>FormsModule&#45;&gt;SideMenuNavigationModule</title>
<path fill="none" stroke="#000000" d="M1650,-122.1061C1650,-141.3391 1650,-169 1650,-169 1650,-169 1177.6894,-169 1177.6894,-169"/>
<polygon fill="#000000" stroke="#000000" points="1177.6894,-165.5001 1167.6894,-169 1177.6894,-172.5001 1177.6894,-165.5001"/>
</g>
<!-- IonicModule -->
<g id="node5" class="node">
<title>IonicModule</title>
<polygon fill="#8dd3c7" stroke="#000000" points="1584.3162,-122 1581.3162,-126 1560.3162,-126 1557.3162,-122 1495.6838,-122 1495.6838,-86 1584.3162,-86 1584.3162,-122"/>
<text text-anchor="middle" x="1540" y="-99.8" font-family="Times,serif" font-size="14.00" fill="#000000">IonicModule</text>
</g>
<!-- IonicModule&#45;&gt;SideMenuNavigationModule -->
<g id="edge4" class="edge">
<title>IonicModule&#45;&gt;SideMenuNavigationModule</title>
<path fill="none" stroke="#000000" d="M1540,-122.0225C1540,-139.3734 1540,-163 1540,-163 1540,-163 1177.9004,-163 1177.9004,-163"/>
<polygon fill="#000000" stroke="#000000" points="1177.9004,-159.5001 1167.9004,-163 1177.9003,-166.5001 1177.9004,-159.5001"/>
</g>
<!-- InlineSVGModule.forRoot() -->
<g id="node6" class="node">
<title>InlineSVGModule.forRoot()</title>
<polygon fill="#8dd3c7" stroke="#000000" points="1478.0721,-122 1475.0721,-126 1454.0721,-126 1451.0721,-122 1301.9279,-122 1301.9279,-86 1478.0721,-86 1478.0721,-122"/>
<text text-anchor="middle" x="1390" y="-99.8" font-family="Times,serif" font-size="14.00" fill="#000000">InlineSVGModule.forRoot()</text>
</g>
<!-- InlineSVGModule.forRoot()&#45;&gt;SideMenuNavigationModule -->
<g id="edge5" class="edge">
<title>InlineSVGModule.forRoot()&#45;&gt;SideMenuNavigationModule</title>
<path fill="none" stroke="#000000" d="M1390,-122.2396C1390,-137.5706 1390,-157 1390,-157 1390,-157 1177.8247,-157 1177.8247,-157"/>
<polygon fill="#000000" stroke="#000000" points="1177.8248,-153.5001 1167.8247,-157 1177.8247,-160.5001 1177.8248,-153.5001"/>
</g>
<!-- HttpClientModule -->
<g id="node7" class="node">
<title>HttpClientModule</title>
<polygon fill="#8dd3c7" stroke="#000000" points="1283.1611,-122 1280.1611,-126 1259.1611,-126 1256.1611,-122 1164.8389,-122 1164.8389,-86 1283.1611,-86 1283.1611,-122"/>
<text text-anchor="middle" x="1224" y="-99.8" font-family="Times,serif" font-size="14.00" fill="#000000">HttpClientModule</text>
</g>
<!-- HttpClientModule&#45;&gt;SideMenuNavigationModule -->
<g id="edge6" class="edge">
<title>HttpClientModule&#45;&gt;SideMenuNavigationModule</title>
<path fill="none" stroke="#000000" d="M1164.7118,-104C1159.1096,-104 1155.4695,-104 1155.4695,-104 1155.4695,-104 1155.4695,-140.8939 1155.4695,-140.8939"/>
<polygon fill="#000000" stroke="#000000" points="1151.9696,-140.8938 1155.4695,-150.8939 1158.9696,-140.8939 1151.9696,-140.8938"/>
</g>
<!-- AdminInvitesModule -->
<g id="node8" class="node">
<title>AdminInvitesModule</title>
<polygon fill="#8dd3c7" stroke="#000000" points="1146.0394,-122 1143.0394,-126 1122.0394,-126 1119.0394,-122 1009.9606,-122 1009.9606,-86 1146.0394,-86 1146.0394,-122"/>
<text text-anchor="middle" x="1078" y="-99.8" font-family="Times,serif" font-size="14.00" fill="#000000">AdminInvitesModule</text>
</g>
<!-- AdminInvitesModule&#45;&gt;SideMenuNavigationModule -->
<g id="edge7" class="edge">
<title>AdminInvitesModule&#45;&gt;SideMenuNavigationModule</title>
<path fill="none" stroke="#000000" d="M1078,-122.1061C1078,-122.1061 1078,-140.991 1078,-140.991"/>
<polygon fill="#000000" stroke="#000000" points="1074.5001,-140.9909 1078,-150.991 1081.5001,-140.991 1074.5001,-140.9909"/>
</g>
<!-- EmployeeProfileModule -->
<g id="node9" class="node">
<title>EmployeeProfileModule</title>
<polygon fill="#8dd3c7" stroke="#000000" points="992.413,-122 989.413,-126 968.413,-126 965.413,-122 837.587,-122 837.587,-86 992.413,-86 992.413,-122"/>
<text text-anchor="middle" x="915" y="-99.8" font-family="Times,serif" font-size="14.00" fill="#000000">EmployeeProfileModule</text>
</g>
<!-- EmployeeProfileModule&#45;&gt;SideMenuNavigationModule -->
<g id="edge8" class="edge">
<title>EmployeeProfileModule&#45;&gt;SideMenuNavigationModule</title>
<path fill="none" stroke="#000000" d="M992.4112,-104C997.689,-104 1000.9685,-104 1000.9685,-104 1000.9685,-104 1000.9685,-140.8939 1000.9685,-140.8939"/>
<polygon fill="#000000" stroke="#000000" points="997.4685,-140.8938 1000.9685,-150.8939 1004.4685,-140.8939 997.4685,-140.8938"/>
</g>
<!-- MatMenuModule -->
<g id="node10" class="node">
<title>MatMenuModule</title>
<polygon fill="#8dd3c7" stroke="#000000" points="819.2591,-122 816.2591,-126 795.2591,-126 792.2591,-122 704.7409,-122 704.7409,-86 819.2591,-86 819.2591,-122"/>
<text text-anchor="middle" x="762" y="-99.8" font-family="Times,serif" font-size="14.00" fill="#000000">MatMenuModule</text>
</g>
<!-- MatMenuModule&#45;&gt;SideMenuNavigationModule -->
<g id="edge9" class="edge">
<title>MatMenuModule&#45;&gt;SideMenuNavigationModule</title>
<path fill="none" stroke="#000000" d="M762,-122.2396C762,-137.5706 762,-157 762,-157 762,-157 978.2923,-157 978.2923,-157"/>
<polygon fill="#000000" stroke="#000000" points="978.2924,-160.5001 988.2923,-157 978.2923,-153.5001 978.2924,-160.5001"/>
</g>
<!-- AddEmployeeModule -->
<g id="node11" class="node">
<title>AddEmployeeModule</title>
<polygon fill="#8dd3c7" stroke="#000000" points="686.42,-122 683.42,-126 662.42,-126 659.42,-122 545.58,-122 545.58,-86 686.42,-86 686.42,-122"/>
<text text-anchor="middle" x="616" y="-99.8" font-family="Times,serif" font-size="14.00" fill="#000000">AddEmployeeModule</text>
</g>
<!-- AddEmployeeModule&#45;&gt;SideMenuNavigationModule -->
<g id="edge10" class="edge">
<title>AddEmployeeModule&#45;&gt;SideMenuNavigationModule</title>
<path fill="none" stroke="#000000" d="M616,-122.0225C616,-139.3734 616,-163 616,-163 616,-163 978.0996,-163 978.0996,-163"/>
<polygon fill="#000000" stroke="#000000" points="978.0997,-166.5001 988.0996,-163 978.0996,-159.5001 978.0997,-166.5001"/>
</g>
<!-- PublicHolidaySetupModule -->
<g id="node12" class="node">
<title>PublicHolidaySetupModule</title>
<polygon fill="#8dd3c7" stroke="#000000" points="528.3187,-122 525.3187,-126 504.3187,-126 501.3187,-122 355.6813,-122 355.6813,-86 528.3187,-86 528.3187,-122"/>
<text text-anchor="middle" x="442" y="-99.8" font-family="Times,serif" font-size="14.00" fill="#000000">PublicHolidaySetupModule</text>
</g>
<!-- PublicHolidaySetupModule&#45;&gt;SideMenuNavigationModule -->
<g id="edge11" class="edge">
<title>PublicHolidaySetupModule&#45;&gt;SideMenuNavigationModule</title>
<path fill="none" stroke="#000000" d="M442,-122.1061C442,-141.3391 442,-169 442,-169 442,-169 978.2257,-169 978.2257,-169"/>
<polygon fill="#000000" stroke="#000000" points="978.2257,-172.5001 988.2257,-169 978.2256,-165.5001 978.2257,-172.5001"/>
</g>
<!-- RouterModule.forChild(args) -->
<g id="node13" class="node">
<title>RouterModule.forChild(args)</title>
<polygon fill="#8dd3c7" stroke="#000000" points="337.7323,-122 334.7323,-126 313.7323,-126 310.7323,-122 156.2677,-122 156.2677,-86 337.7323,-86 337.7323,-122"/>
<text text-anchor="middle" x="247" y="-99.8" font-family="Times,serif" font-size="14.00" fill="#000000">RouterModule.forChild(args)</text>
</g>
<!-- RouterModule.forChild(args)&#45;&gt;SideMenuNavigationModule -->
<g id="edge12" class="edge">
<title>RouterModule.forChild(args)&#45;&gt;SideMenuNavigationModule</title>
<path fill="none" stroke="#000000" d="M247,-122.2843C247,-143.3211 247,-175 247,-175 247,-175 978.2789,-175 978.2789,-175"/>
<polygon fill="#000000" stroke="#000000" points="978.2789,-178.5001 988.2789,-175 978.2789,-171.5001 978.2789,-178.5001"/>
</g>
<!-- AuthGuard -->
<g id="node14" class="node">
<title>AuthGuard</title>
<ellipse fill="#fdb462" stroke="#000000" cx="78" cy="-104" rx="54.4566" ry="18"/>
<text text-anchor="middle" x="78" y="-99.8" font-family="Times,serif" font-size="14.00" fill="#000000">AuthGuard</text>
</g>
<!-- AuthGuard&#45;&gt;SideMenuNavigationModule -->
<g id="edge13" class="edge">
<title>AuthGuard&#45;&gt;SideMenuNavigationModule</title>
<path fill="none" stroke="#000000" d="M78,-122.0908C78,-145.1328 78,-182 78,-182 78,-182 977.9352,-182 977.9352,-182"/>
<polygon fill="#000000" stroke="#000000" points="977.9353,-185.5001 987.9352,-182 977.9352,-178.5001 977.9353,-185.5001"/>
</g>
</g>
</svg>
