<?xml version="1.0" encoding="UTF-8" standalone="no"?>
<!DOCTYPE svg PUBLIC "-//W3C//DTD SVG 1.1//EN"
 "http://www.w3.org/Graphics/SVG/1.1/DTD/svg11.dtd">
<!-- Generated by graphviz version 2.40.1 (20161225.0304)
 -->
<!-- Title: dependencies Pages: 1 -->
<svg width="1895pt" height="211pt"
 viewBox="0.00 0.00 1895.00 211.00" xmlns="http://www.w3.org/2000/svg" xmlns:xlink="http://www.w3.org/1999/xlink">
<g id="graph0" class="graph" transform="scale(1 1) rotate(0) translate(4 207)">
<title>dependencies</title>
<polygon fill="#ffffff" stroke="transparent" points="-4,4 -4,-207 1891,-207 1891,4 -4,4"/>
<text text-anchor="start" x="922.5091" y="-42.4" font-family="sans-serif" font-weight="bold" font-size="14.00" fill="#000000">Legend</text>
<polygon fill="#ffffb3" stroke="transparent" points="709.5,-10 709.5,-30 729.5,-30 729.5,-10 709.5,-10"/>
<text text-anchor="start" x="733.129" y="-15.4" font-family="sans-serif" font-size="14.00" fill="#000000"> &#160;Declarations</text>
<polygon fill="#8dd3c7" stroke="transparent" points="822.5,-10 822.5,-30 842.5,-30 842.5,-10 822.5,-10"/>
<text text-anchor="start" x="846.2251" y="-15.4" font-family="sans-serif" font-size="14.00" fill="#000000"> &#160;Module</text>
<polygon fill="#80b1d3" stroke="transparent" points="908.5,-10 908.5,-30 928.5,-30 928.5,-10 908.5,-10"/>
<text text-anchor="start" x="932.2812" y="-15.4" font-family="sans-serif" font-size="14.00" fill="#000000"> &#160;Bootstrap</text>
<polygon fill="#fdb462" stroke="transparent" points="1005.5,-10 1005.5,-30 1025.5,-30 1025.5,-10 1005.5,-10"/>
<text text-anchor="start" x="1029.1732" y="-15.4" font-family="sans-serif" font-size="14.00" fill="#000000"> &#160;Providers</text>
<polygon fill="#fb8072" stroke="transparent" points="1101.5,-10 1101.5,-30 1121.5,-30 1121.5,-10 1101.5,-10"/>
<text text-anchor="start" x="1125.2258" y="-15.4" font-family="sans-serif" font-size="14.00" fill="#000000"> &#160;Exports</text>
<g id="clust1" class="cluster">
<title>cluster_SideMenuNavigationModule</title>
<polygon fill="none" stroke="#000000" stroke-dasharray="1,5" points="8,-70 8,-195 1879,-195 1879,-70 8,-70"/>
</g>
<g id="clust2" class="cluster">
<title>cluster_SideMenuNavigationModule_declarations</title>
<polygon fill="none" stroke="#000000" points="1653,-78 1653,-130 1871,-130 1871,-78 1653,-78"/>
</g>
<g id="clust4" class="cluster">
<title>cluster_SideMenuNavigationModule_imports</title>
<polygon fill="none" stroke="#000000" points="148,-78 148,-130 1645,-130 1645,-78 148,-78"/>
</g>
<g id="clust7" class="cluster">
<title>cluster_SideMenuNavigationModule_providers</title>
<polygon fill="none" stroke="#000000" points="16,-78 16,-130 140,-130 140,-78 16,-78"/>
</g>
<!-- SideMenuNavigationComponent -->
<g id="node1" class="node">
<title>SideMenuNavigationComponent</title>
<polygon fill="#ffffb3" stroke="#000000" points="1862.587,-122 1661.413,-122 1661.413,-86 1862.587,-86 1862.587,-122"/>
<text text-anchor="middle" x="1762" y="-99.8" font-family="Times,serif" font-size="14.00" fill="#000000">SideMenuNavigationComponent</text>
</g>
<!-- SideMenuNavigationModule -->
<g id="node2" class="node">
<title>SideMenuNavigationModule</title>
<polygon fill="#8dd3c7" stroke="#000000" points="1050.8047,-187 1047.8047,-191 1026.8047,-191 1023.8047,-187 871.1953,-187 871.1953,-151 1050.8047,-151 1050.8047,-187"/>
<text text-anchor="middle" x="961" y="-164.8" font-family="Times,serif" font-size="14.00" fill="#000000">SideMenuNavigationModule</text>
</g>
<!-- SideMenuNavigationComponent&#45;&gt;SideMenuNavigationModule -->
<g id="edge1" class="edge">
<title>SideMenuNavigationComponent&#45;&gt;SideMenuNavigationModule</title>
<path fill="none" stroke="#000000" d="M1762,-122.0908C1762,-145.1328 1762,-182 1762,-182 1762,-182 1060.9402,-182 1060.9402,-182"/>
<polygon fill="#000000" stroke="#000000" points="1060.9403,-178.5001 1050.9402,-182 1060.9402,-185.5001 1060.9403,-178.5001"/>
</g>
<!-- CommonModule -->
<g id="node3" class="node">
<title>CommonModule</title>
<polygon fill="#8dd3c7" stroke="#000000" points="1636.6681,-122 1633.6681,-126 1612.6681,-126 1609.6681,-122 1525.3319,-122 1525.3319,-86 1636.6681,-86 1636.6681,-122"/>
<text text-anchor="middle" x="1581" y="-99.8" font-family="Times,serif" font-size="14.00" fill="#000000">CommonModule</text>
</g>
<!-- CommonModule&#45;&gt;SideMenuNavigationModule -->
<g id="edge2" class="edge">
<title>CommonModule&#45;&gt;SideMenuNavigationModule</title>
<path fill="none" stroke="#000000" d="M1581,-122.2843C1581,-143.3211 1581,-175 1581,-175 1581,-175 1060.822,-175 1060.822,-175"/>
<polygon fill="#000000" stroke="#000000" points="1060.8221,-171.5001 1050.822,-175 1060.822,-178.5001 1060.8221,-171.5001"/>
</g>
<!-- FormsModule -->
<g id="node4" class="node">
<title>FormsModule</title>
<polygon fill="#8dd3c7" stroke="#000000" points="1507.8288,-122 1504.8288,-126 1483.8288,-126 1480.8288,-122 1412.1712,-122 1412.1712,-86 1507.8288,-86 1507.8288,-122"/>
<text text-anchor="middle" x="1460" y="-99.8" font-family="Times,serif" font-size="14.00" fill="#000000">FormsModule</text>
</g>
<!-- FormsModule&#45;&gt;SideMenuNavigationModule -->
<g id="edge3" class="edge">
<title>FormsModule&#45;&gt;SideMenuNavigationModule</title>
<path fill="none" stroke="#000000" d="M1460,-122.1061C1460,-141.3391 1460,-169 1460,-169 1460,-169 1060.7875,-169 1060.7875,-169"/>
<polygon fill="#000000" stroke="#000000" points="1060.7875,-165.5001 1050.7875,-169 1060.7875,-172.5001 1060.7875,-165.5001"/>
</g>
<!-- IonicModule -->
<g id="node5" class="node">
<title>IonicModule</title>
<polygon fill="#8dd3c7" stroke="#000000" points="1394.3162,-122 1391.3162,-126 1370.3162,-126 1367.3162,-122 1305.6838,-122 1305.6838,-86 1394.3162,-86 1394.3162,-122"/>
<text text-anchor="middle" x="1350" y="-99.8" font-family="Times,serif" font-size="14.00" fill="#000000">IonicModule</text>
</g>
<!-- IonicModule&#45;&gt;SideMenuNavigationModule -->
<g id="edge4" class="edge">
<title>IonicModule&#45;&gt;SideMenuNavigationModule</title>
<path fill="none" stroke="#000000" d="M1350,-122.0225C1350,-139.3734 1350,-163 1350,-163 1350,-163 1060.7329,-163 1060.7329,-163"/>
<polygon fill="#000000" stroke="#000000" points="1060.7329,-159.5001 1050.7329,-163 1060.7329,-166.5001 1060.7329,-159.5001"/>
</g>
<!-- InlineSVGModule.forRoot() -->
<g id="node6" class="node">
<title>InlineSVGModule.forRoot()</title>
<polygon fill="#8dd3c7" stroke="#000000" points="1288.0721,-122 1285.0721,-126 1264.0721,-126 1261.0721,-122 1111.9279,-122 1111.9279,-86 1288.0721,-86 1288.0721,-122"/>
<text text-anchor="middle" x="1200" y="-99.8" font-family="Times,serif" font-size="14.00" fill="#000000">InlineSVGModule.forRoot()</text>
</g>
<!-- InlineSVGModule.forRoot()&#45;&gt;SideMenuNavigationModule -->
<g id="edge5" class="edge">
<title>InlineSVGModule.forRoot()&#45;&gt;SideMenuNavigationModule</title>
<path fill="none" stroke="#000000" d="M1200,-122.2396C1200,-137.5706 1200,-157 1200,-157 1200,-157 1060.6748,-157 1060.6748,-157"/>
<polygon fill="#000000" stroke="#000000" points="1060.6748,-153.5001 1050.6748,-157 1060.6747,-160.5001 1060.6748,-153.5001"/>
</g>
<!-- HttpClientModule -->
<g id="node7" class="node">
<title>HttpClientModule</title>
<polygon fill="#8dd3c7" stroke="#000000" points="1093.1611,-122 1090.1611,-126 1069.1611,-126 1066.1611,-122 974.8389,-122 974.8389,-86 1093.1611,-86 1093.1611,-122"/>
<text text-anchor="middle" x="1034" y="-99.8" font-family="Times,serif" font-size="14.00" fill="#000000">HttpClientModule</text>
</g>
<!-- HttpClientModule&#45;&gt;SideMenuNavigationModule -->
<g id="edge6" class="edge">
<title>HttpClientModule&#45;&gt;SideMenuNavigationModule</title>
<path fill="none" stroke="#000000" d="M1012.661,-122.1061C1012.661,-122.1061 1012.661,-140.991 1012.661,-140.991"/>
<polygon fill="#000000" stroke="#000000" points="1009.161,-140.9909 1012.661,-150.991 1016.161,-140.991 1009.161,-140.9909"/>
</g>
<!-- AdminInvitesModule -->
<g id="node8" class="node">
<title>AdminInvitesModule</title>
<polygon fill="#8dd3c7" stroke="#000000" points="956.0394,-122 953.0394,-126 932.0394,-126 929.0394,-122 819.9606,-122 819.9606,-86 956.0394,-86 956.0394,-122"/>
<text text-anchor="middle" x="888" y="-99.8" font-family="Times,serif" font-size="14.00" fill="#000000">AdminInvitesModule</text>
</g>
<!-- AdminInvitesModule&#45;&gt;SideMenuNavigationModule -->
<g id="edge7" class="edge">
<title>AdminInvitesModule&#45;&gt;SideMenuNavigationModule</title>
<path fill="none" stroke="#000000" d="M913.8086,-122.1061C913.8086,-122.1061 913.8086,-140.991 913.8086,-140.991"/>
<polygon fill="#000000" stroke="#000000" points="910.3086,-140.9909 913.8086,-150.991 917.3086,-140.991 910.3086,-140.9909"/>
</g>
<!-- EmployeeProfileModule -->
<g id="node9" class="node">
<title>EmployeeProfileModule</title>
<polygon fill="#8dd3c7" stroke="#000000" points="802.413,-122 799.413,-126 778.413,-126 775.413,-122 647.587,-122 647.587,-86 802.413,-86 802.413,-122"/>
<text text-anchor="middle" x="725" y="-99.8" font-family="Times,serif" font-size="14.00" fill="#000000">EmployeeProfileModule</text>
</g>
<!-- EmployeeProfileModule&#45;&gt;SideMenuNavigationModule -->
<g id="edge8" class="edge">
<title>EmployeeProfileModule&#45;&gt;SideMenuNavigationModule</title>
<path fill="none" stroke="#000000" d="M725,-122.2396C725,-137.5706 725,-157 725,-157 725,-157 861.1053,-157 861.1053,-157"/>
<polygon fill="#000000" stroke="#000000" points="861.1053,-160.5001 871.1053,-157 861.1052,-153.5001 861.1053,-160.5001"/>
</g>
<!-- MatMenuModule -->
<g id="node10" class="node">
<title>MatMenuModule</title>
<polygon fill="#8dd3c7" stroke="#000000" points="629.2591,-122 626.2591,-126 605.2591,-126 602.2591,-122 514.7409,-122 514.7409,-86 629.2591,-86 629.2591,-122"/>
<text text-anchor="middle" x="572" y="-99.8" font-family="Times,serif" font-size="14.00" fill="#000000">MatMenuModule</text>
</g>
<!-- MatMenuModule&#45;&gt;SideMenuNavigationModule -->
<g id="edge9" class="edge">
<title>MatMenuModule&#45;&gt;SideMenuNavigationModule</title>
<path fill="none" stroke="#000000" d="M572,-122.0225C572,-139.3734 572,-163 572,-163 572,-163 861.2671,-163 861.2671,-163"/>
<polygon fill="#000000" stroke="#000000" points="861.2671,-166.5001 871.2671,-163 861.2671,-159.5001 861.2671,-166.5001"/>
</g>
<!-- AddEmployeeModule -->
<g id="node11" class="node">
<title>AddEmployeeModule</title>
<polygon fill="#8dd3c7" stroke="#000000" points="496.42,-122 493.42,-126 472.42,-126 469.42,-122 355.58,-122 355.58,-86 496.42,-86 496.42,-122"/>
<text text-anchor="middle" x="426" y="-99.8" font-family="Times,serif" font-size="14.00" fill="#000000">AddEmployeeModule</text>
</g>
<!-- AddEmployeeModule&#45;&gt;SideMenuNavigationModule -->
<g id="edge10" class="edge">
<title>AddEmployeeModule&#45;&gt;SideMenuNavigationModule</title>
<path fill="none" stroke="#000000" d="M426,-122.1061C426,-141.3391 426,-169 426,-169 426,-169 861.1515,-169 861.1515,-169"/>
<polygon fill="#000000" stroke="#000000" points="861.1515,-172.5001 871.1515,-169 861.1514,-165.5001 861.1515,-172.5001"/>
</g>
<!-- RouterModule.forChild(args) -->
<g id="node12" class="node">
<title>RouterModule.forChild(args)</title>
<polygon fill="#8dd3c7" stroke="#000000" points="337.7323,-122 334.7323,-126 313.7323,-126 310.7323,-122 156.2677,-122 156.2677,-86 337.7323,-86 337.7323,-122"/>
<text text-anchor="middle" x="247" y="-99.8" font-family="Times,serif" font-size="14.00" fill="#000000">RouterModule.forChild(args)</text>
</g>
<!-- RouterModule.forChild(args)&#45;&gt;SideMenuNavigationModule -->
<g id="edge11" class="edge">
<title>RouterModule.forChild(args)&#45;&gt;SideMenuNavigationModule</title>
<path fill="none" stroke="#000000" d="M247,-122.2843C247,-143.3211 247,-175 247,-175 247,-175 861.2944,-175 861.2944,-175"/>
<polygon fill="#000000" stroke="#000000" points="861.2944,-178.5001 871.2944,-175 861.2943,-171.5001 861.2944,-178.5001"/>
</g>
<!-- AuthGuard -->
<g id="node13" class="node">
<title>AuthGuard</title>
<ellipse fill="#fdb462" stroke="#000000" cx="78" cy="-104" rx="54.4566" ry="18"/>
<text text-anchor="middle" x="78" y="-99.8" font-family="Times,serif" font-size="14.00" fill="#000000">AuthGuard</text>
</g>
<!-- AuthGuard&#45;&gt;SideMenuNavigationModule -->
<g id="edge12" class="edge">
<title>AuthGuard&#45;&gt;SideMenuNavigationModule</title>
<path fill="none" stroke="#000000" d="M78,-122.0908C78,-145.1328 78,-182 78,-182 78,-182 861.0639,-182 861.0639,-182"/>
<polygon fill="#000000" stroke="#000000" points="861.064,-185.5001 871.0639,-182 861.0639,-178.5001 861.064,-185.5001"/>
</g>
</g>
</svg>
