<svg height="512pt" viewBox="0 0 512 512" width="512pt" xmlns="http://www.w3.org/2000/svg"><path d="m481 211h16c8.285156 0 15-6.714844 15-15v-60c0-5.671875-3.199219-10.859375-8.269531-13.40625l-241-121c-4.234375-2.125-9.226563-2.125-13.460938 0l-241 121c-5.070312 2.546875-8.269531 7.734375-8.269531 13.40625v60c0 8.285156 6.714844 15 15 15h16v211h-16c-8.285156 0-15 6.714844-15 15v60c0 8.285156 6.714844 15 15 15h482c8.285156 0 15-6.714844 15-15v-60c0-8.285156-6.714844-15-15-15h-16c0-3.34375 0-207.878906 0-211zm-324.304688 271h-126.695312v-30h141.570312zm45.125-91-15.375 31h-125.445312v-31zm-140.820312-30v-150h30v150zm60 0v-150h90v150zm69.179688 121 45.125-91h41.390624l45.125 91zm50.820312-121v-150h30v150zm210 30v31h-125.445312l-15.375-31zm-30-30v-150h30v150zm-30 0h-90v-150h90zm91 91v30h-126.695312l-14.875-30zm-452-271v-35.746094l226-113.46875 226 113.46875v35.746094zm0 0"/><path d="m256 61c-24.8125 0-45 20.1875-45 45s20.1875 45 45 45 45-20.1875 45-45-20.1875-45-45-45zm0 60c-8.269531 0-15-6.730469-15-15 0-8.273438 6.730469-15 15-15s15 6.726562 15 15c0 8.269531-6.730469 15-15 15zm0 0"/></svg>