<?xml version="1.0" encoding="iso-8859-1"?>
<!-- Generator: Adobe Illustrator 19.0.0, SVG Export Plug-In . SVG Version: 6.00 Build 0)  -->
<svg version="1.1" id="Capa_1" xmlns="http://www.w3.org/2000/svg" xmlns:xlink="http://www.w3.org/1999/xlink" x="0px" y="0px"
	 viewBox="0 0 512 512" style="enable-background:new 0 0 512 512;" xml:space="preserve">
<g>
	<g>
		<path d="M467,121h-15V15c0-8.284-6.716-15-15-15H227c-8.284,0-15,6.716-15,15v106h-30v-15c0-8.284-6.716-15-15-15H75
			c-8.284,0-15,6.716-15,15v15H45c-24.813,0-45,20.187-45,45v271c0,24.813,20.187,45,45,45h15v15c0,8.284,6.716,15,15,15h92
			c8.284,0,15-6.716,15-15v-15h285c24.813,0,45-20.187,45-45V166C512,141.187,491.813,121,467,121z M60,452H45
			c-8.271,0-15-6.729-15-15V166c0-8.271,6.729-15,15-15h15V452z M152,482H90V121h62V482z M242,30h180v121H242V30z M482,437
			c0,8.271-6.729,15-15,15H182V151h30v15c0,8.284,6.716,15,15,15h210c8.284,0,15-6.716,15-15v-15h15c8.271,0,15,6.729,15,15V437z"/>
	</g>
</g>
<g>
	<g>
		<path d="M377,61h-90c-8.284,0-15,6.716-15,15s6.716,15,15,15h90c8.284,0,15-6.716,15-15S385.284,61,377,61z"/>
	</g>
</g>
<g>
	<g>
		<path d="M437,211H227c-8.284,0-15,6.716-15,15v60c0,8.284,6.716,15,15,15h210c8.284,0,15-6.716,15-15v-60
			C452,217.716,445.284,211,437,211z M422,271H242v-30h180V271z"/>
	</g>
</g>
<g>
	<g>
		<path d="M257,331h-30c-8.284,0-15,6.716-15,15s6.716,15,15,15h30c8.284,0,15-6.716,15-15S265.284,331,257,331z"/>
	</g>
</g>
<g>
	<g>
		<path d="M347,331h-30c-8.284,0-15,6.716-15,15s6.716,15,15,15h30c8.284,0,15-6.716,15-15S355.284,331,347,331z"/>
	</g>
</g>
<g>
	<g>
		<path d="M437,331h-30c-8.284,0-15,6.716-15,15s6.716,15,15,15h30c8.284,0,15-6.716,15-15S445.284,331,437,331z"/>
	</g>
</g>
<g>
	<g>
		<path d="M257,392h-30c-8.284,0-15,6.716-15,15s6.716,15,15,15h30c8.284,0,15-6.716,15-15S265.284,392,257,392z"/>
	</g>
</g>
<g>
	<g>
		<path d="M347,392h-30c-8.284,0-15,6.716-15,15s6.716,15,15,15h30c8.284,0,15-6.716,15-15S355.284,392,347,392z"/>
	</g>
</g>
<g>
	<g>
		<path d="M437,392h-30c-8.284,0-15,6.716-15,15s6.716,15,15,15h30c8.284,0,15-6.716,15-15S445.284,392,437,392z"/>
	</g>
</g>
<g>
</g>
<g>
</g>
<g>
</g>
<g>
</g>
<g>
</g>
<g>
</g>
<g>
</g>
<g>
</g>
<g>
</g>
<g>
</g>
<g>
</g>
<g>
</g>
<g>
</g>
<g>
</g>
<g>
</g>
</svg>
