<?xml version="1.0" encoding="iso-8859-1"?>
<!-- Generator: Adobe Illustrator 19.0.0, SVG Export Plug-In . SVG Version: 6.00 Build 0)  -->
<svg version="1.1" id="Layer_1" xmlns="http://www.w3.org/2000/svg" xmlns:xlink="http://www.w3.org/1999/xlink" x="0px" y="0px"
	 viewBox="0 0 512 512" style="enable-background:new 0 0 512 512;" xml:space="preserve">
<g>
	<g>
		<path d="M395.636,155.152h-85.333V65.902C310.303,29.564,280.739,0,244.401,0c-31.305,0-58.483,22.28-64.622,52.977
			l-20.433,102.175H0V512h395.636C459.799,512,512,459.799,512,395.636V271.515C512,207.352,459.799,155.152,395.636,155.152z
			 M155.152,465.455H46.545V201.697h108.606V465.455z M465.455,395.636c0,38.498-31.32,69.818-69.818,69.818H201.697V180.728
			l23.724-118.624c1.804-9.014,9.785-15.559,18.98-15.559c10.673,0,19.357,8.684,19.357,19.357v135.795h131.879
			c38.498,0,69.818,31.32,69.818,69.818V395.636z"/>
	</g>
</g>
<g>
</g>
<g>
</g>
<g>
</g>
<g>
</g>
<g>
</g>
<g>
</g>
<g>
</g>
<g>
</g>
<g>
</g>
<g>
</g>
<g>
</g>
<g>
</g>
<g>
</g>
<g>
</g>
<g>
</g>
</svg>
