<?xml version="1.0" encoding="iso-8859-1"?>
<!-- Generator: Adobe Illustrator 19.0.0, SVG Export Plug-In . SVG Version: 6.00 Build 0)  -->
<svg version="1.1" id="Capa_1" xmlns="http://www.w3.org/2000/svg" xmlns:xlink="http://www.w3.org/1999/xlink" x="0px" y="0px"
	 viewBox="0 0 512 512" style="enable-background:new 0 0 512 512;" xml:space="preserve">
<g>
	<g>
		<path d="M256,121c-74.439,0-135,60.561-135,135c0,74.488,60.635,135,135,135c74.428,0,135-60.577,135-135
			C391,181.561,330.439,121,256,121z M256,361c-24.499,0-47.063-8.435-64.946-22.552C204.327,315.41,228.825,301,256,301
			c27.176,0,51.673,14.41,64.945,37.448C303.063,352.565,280.499,361,256,361z M226,241c0-16.542,13.458-30,30-30s30,13.458,30,30
			s-13.458,30-30,30S226,257.542,226,241z M342.173,315.92c-10.579-15.236-24.903-27.239-41.438-34.992
			C310.22,270.313,316,256.321,316,241c0-33.084-26.916-60-60-60s-60,26.916-60,60c0,15.321,5.78,29.313,15.265,39.928
			c-16.535,7.753-30.858,19.756-41.438,34.992C157.968,298.916,151,278.258,151,256c0-57.897,47.103-105,105-105
			c57.897,0,105,47.103,105,105C361,278.258,354.033,298.916,342.173,315.92z"/>
	</g>
</g>
<g>
	<g>
		<path d="M499.418,211.196l-39.812-6.502c-4.997-19.876-12.842-38.766-23.408-56.37l22.927-32.098
			c4.262-5.967,3.585-14.14-1.6-19.325l-42.426-42.425c-5.185-5.185-13.357-5.861-19.325-1.599l-32.098,22.927
			c-17.604-10.567-36.494-18.411-56.37-23.409l-6.503-39.812C299.619,5.327,293.35,0,286,0h-60c-7.351,0-13.619,5.327-14.804,12.582
			l-6.502,39.812c-19.877,4.997-38.766,12.841-56.37,23.409l-32.099-22.927c-5.967-4.262-14.14-3.586-19.325,1.599L54.475,96.9
			c-5.185,5.185-5.861,13.358-1.6,19.325l22.927,32.098c-10.567,17.604-18.411,36.494-23.409,56.37l-39.812,6.502
			C5.327,212.381,0,218.649,0,226v60c0,7.351,5.327,13.619,12.582,14.804l39.812,6.502c4.998,19.877,12.842,38.766,23.409,56.37
			l-22.927,32.098c-4.262,5.967-3.585,14.14,1.6,19.325l42.425,42.426c5.185,5.185,13.359,5.861,19.325,1.599l32.099-22.927
			c17.604,10.567,36.493,18.411,56.37,23.409l6.502,39.812C212.382,506.673,218.649,512,226,512h60
			c7.351,0,13.619-5.327,14.804-12.582l6.503-39.812c19.876-4.997,38.766-12.842,56.37-23.409l32.098,22.927
			c5.97,4.263,14.142,3.586,19.325-1.599l42.426-42.426c5.185-5.185,5.861-13.358,1.6-19.325l-22.927-32.098
			c10.566-17.604,18.411-36.494,23.408-56.37l39.812-6.502C506.673,299.619,512,293.351,512,286v-60
			C512,218.649,506.673,212.381,499.418,211.196z M482,273.251l-37.217,6.078c-6.172,1.008-11.071,5.74-12.293,11.874
			c-4.618,23.185-13.646,44.93-26.833,64.63c-3.473,5.187-3.369,11.983,0.259,17.063l21.411,29.976l-24.455,24.455l-29.976-21.411
			c-5.078-3.627-11.874-3.732-17.063-0.259c-19.701,13.188-41.445,22.215-64.63,26.833c-6.134,1.222-10.866,6.121-11.874,12.293
			L273.251,482h-34.502l-6.079-37.217c-1.008-6.172-5.74-11.072-11.874-12.293c-23.186-4.618-44.93-13.646-64.629-26.833
			c-5.188-3.473-11.983-3.37-17.063,0.259l-29.976,21.411l-24.455-24.455l21.411-29.976c3.628-5.08,3.731-11.875,0.259-17.063
			c-13.188-19.7-22.215-41.444-26.833-64.629c-1.222-6.134-6.121-10.866-12.293-11.874L30,273.251v-34.502l37.217-6.078
			c6.172-1.008,11.071-5.74,12.293-11.874c4.618-23.185,13.646-44.929,26.833-64.629c3.473-5.187,3.37-11.983-0.259-17.063
			l-21.411-29.976l24.455-24.455l29.976,21.411c5.081,3.628,11.876,3.732,17.063,0.259c19.699-13.187,41.443-22.215,64.629-26.833
			c6.133-1.222,10.866-6.121,11.874-12.293L238.749,30h34.502l6.079,37.217c1.008,6.172,5.74,11.072,11.874,12.293
			c23.185,4.618,44.929,13.646,64.63,26.833c5.187,3.473,11.982,3.369,17.063-0.259l29.976-21.411l24.455,24.455l-21.411,29.976
			c-3.628,5.08-3.731,11.875-0.259,17.063c13.187,19.7,22.215,41.444,26.833,64.629c1.222,6.134,6.121,10.865,12.293,11.874
			L482,238.749V273.251z"/>
	</g>
</g>
<g>
</g>
<g>
</g>
<g>
</g>
<g>
</g>
<g>
</g>
<g>
</g>
<g>
</g>
<g>
</g>
<g>
</g>
<g>
</g>
<g>
</g>
<g>
</g>
<g>
</g>
<g>
</g>
<g>
</g>
</svg>
